<svg aria-roledescription="er" role="graphics-document document" viewBox="0 0 865.666259765625 1335" style="max-width: 865.666259765625px;" xmlns="http://www.w3.org/2000/svg" width="100%" id="export-svg"><style xmlns="http://www.w3.org/1999/xhtml">@import url("https://cdnjs.cloudflare.com/ajax/libs/font-awesome/6.2.0/css/all.min.css"); p {margin: 0;}</style><style>#export-svg{font-family:"trebuchet ms",verdana,arial,sans-serif;font-size:14px;fill:#333;}#export-svg .error-icon{fill:#ffffff;}#export-svg .error-text{fill:#000000;stroke:#000000;}#export-svg .edge-thickness-normal{stroke-width:1px;}#export-svg .edge-thickness-thick{stroke-width:3.5px;}#export-svg .edge-pattern-solid{stroke-dasharray:0;}#export-svg .edge-thickness-invisible{stroke-width:0;fill:none;}#export-svg .edge-pattern-dashed{stroke-dasharray:3;}#export-svg .edge-pattern-dotted{stroke-dasharray:2;}#export-svg .marker{fill:#000000;stroke:#000000;}#export-svg .marker.cross{stroke:#000000;}#export-svg svg{font-family:"trebuchet ms",verdana,arial,sans-serif;font-size:14px;}#export-svg p{margin:0;}#export-svg .entityBox{fill:#ffffff;stroke:#000000;}#export-svg .attributeBoxOdd{fill:#ffffff;stroke:#000000;}#export-svg .attributeBoxEven{fill:#f2f2f2;stroke:#000000;}#export-svg .relationshipLabelBox{fill:#ffffff;opacity:0.7;background-color:#ffffff;}#export-svg .relationshipLabelBox rect{opacity:0.5;}#export-svg .relationshipLine{stroke:#000000;}#export-svg .entityTitleText{text-anchor:middle;font-size:18px;fill:#333;}#export-svg #MD_PARENT_START{fill:#f5f5f5!important;stroke:#000000!important;stroke-width:1;}#export-svg #MD_PARENT_END{fill:#f5f5f5!important;stroke:#000000!important;stroke-width:1;}#export-svg .node .neo-node{stroke:#000000;}#export-svg [data-look="neo"].node rect,#export-svg [data-look="neo"].cluster rect,#export-svg [data-look="neo"].node polygon{stroke:url(#export-svg-gradient);filter:drop-shadow( 0px 1px 2px rgba(0, 0, 0, 0.25));}#export-svg [data-look="neo"].node rect,#export-svg [data-look="neo"].node polygon,#export-svg [data-look="neo"].node path{stroke:url(#export-svg-gradient);filter:drop-shadow( 0px 1px 2px rgba(0, 0, 0, 0.25));}#export-svg [data-look="neo"].node .neo-line path{stroke:hsl(0, 0%, 70%);filter:none;}#export-svg [data-look="neo"].node circle{stroke:url(#export-svg-gradient);filter:drop-shadow( 0px 1px 2px rgba(0, 0, 0, 0.25));}#export-svg [data-look="neo"].node circle .state-start{fill:#000000;}#export-svg [data-look="neo"].statediagram-cluster rect{fill:#ffffff;stroke:url(#export-svg-gradient);stroke-width:1px;}#export-svg [data-look="neo"].icon-shape .icon{fill:url(#export-svg-gradient);filter:drop-shadow( 0px 1px 2px rgba(0, 0, 0, 0.25));}#export-svg [data-look="neo"].icon-shape .icon-neo path{stroke:url(#export-svg-gradient);filter:drop-shadow( 0px 1px 2px rgba(0, 0, 0, 0.25));}#export-svg :root{--mermaid-font-family:"trebuchet ms",verdana,arial,sans-serif;}</style><g/><defs><marker orient="auto" markerHeight="240" markerWidth="190" refY="7" refX="0" id="MD_PARENT_START"><path d="M 18,7 L9,13 L1,7 L9,1 Z"/></marker></defs><defs><marker orient="auto" markerHeight="28" markerWidth="20" refY="7" refX="19" id="MD_PARENT_END"><path d="M 18,7 L9,13 L1,7 L9,1 Z"/></marker></defs><defs><marker orient="auto" markerHeight="18" markerWidth="18" refY="9" refX="0" id="ONLY_ONE_START"><path d="M9,0 L9,18 M15,0 L15,18" fill="none" stroke="gray"/></marker></defs><defs><marker orient="auto" markerHeight="18" markerWidth="18" refY="9" refX="18" id="ONLY_ONE_END"><path d="M3,0 L3,18 M9,0 L9,18" fill="none" stroke="gray"/></marker></defs><defs><marker orient="auto" markerHeight="18" markerWidth="30" refY="9" refX="0" id="ZERO_OR_ONE_START"><circle r="6" cy="9" cx="21" fill="white" stroke="gray"/><path d="M9,0 L9,18" fill="none" stroke="gray"/></marker></defs><defs><marker orient="auto" markerHeight="18" markerWidth="30" refY="9" refX="30" id="ZERO_OR_ONE_END"><circle r="6" cy="9" cx="9" fill="white" stroke="gray"/><path d="M21,0 L21,18" fill="none" stroke="gray"/></marker></defs><defs><marker orient="auto" markerHeight="36" markerWidth="45" refY="18" refX="18" id="ONE_OR_MORE_START"><path d="M0,18 Q 18,0 36,18 Q 18,36 0,18 M42,9 L42,27" fill="none" stroke="gray"/></marker></defs><defs><marker orient="auto" markerHeight="36" markerWidth="45" refY="18" refX="27" id="ONE_OR_MORE_END"><path d="M3,9 L3,27 M9,18 Q27,0 45,18 Q27,36 9,18" fill="none" stroke="gray"/></marker></defs><defs><marker orient="auto" markerHeight="36" markerWidth="57" refY="18" refX="18" id="ZERO_OR_MORE_START"><circle r="6" cy="18" cx="48" fill="white" stroke="gray"/><path d="M0,18 Q18,0 36,18 Q18,36 0,18" fill="none" stroke="gray"/></marker></defs><defs><marker orient="auto" markerHeight="36" markerWidth="57" refY="18" refX="39" id="ZERO_OR_MORE_END"><circle r="6" cy="18" cx="9" fill="white" stroke="gray"/><path d="M21,18 Q39,0 57,18 Q39,36 21,18" fill="none" stroke="gray"/></marker></defs><path marker-start="url(#ONLY_ONE_START)" marker-end="url(#ZERO_OR_MORE_END)" style="stroke: gray; fill: none;" d="M95.168,794L91.625,805.833C88.082,817.667,80.996,841.333,77.454,866.75C73.911,892.167,73.911,919.333,73.911,932.917L73.911,946.5" class="er relationshipLine"/><path marker-start="url(#ONE_OR_MORE_START)" marker-end="url(#ONLY_ONE_END)" style="stroke: gray; fill: none;" d="M73.911,1096.5L73.911,1110.083C73.911,1123.667,73.911,1150.833,73.911,1172.75C73.911,1194.667,73.911,1211.333,73.911,1219.667L73.911,1228" class="er relationshipLine"/><path marker-start="url(#ONLY_ONE_START)" marker-end="url(#ONE_OR_MORE_END)" style="stroke: gray; fill: none;" d="M128.197,794L136.498,805.833C144.799,817.667,161.4,841.333,178.505,866.032C195.61,890.73,213.217,916.46,222.021,929.326L230.825,942.191" class="er relationshipLine"/><path marker-start="url(#ZERO_OR_ONE_START)" marker-end="url(#ZERO_OR_MORE_END)" style="stroke: gray; fill: none;" d="M450.272,291.976L426.387,304.146C402.503,316.317,354.733,340.659,330.848,377.163C306.964,413.667,306.964,462.333,306.964,511C306.964,559.667,306.964,608.333,306.964,650C306.964,691.667,306.964,726.333,306.964,761C306.964,795.667,306.964,830.333,305.799,856C304.635,881.667,302.306,898.333,301.142,906.667L299.977,915" class="er relationshipLine"/><path marker-start="url(#ONE_OR_MORE_START)" marker-end="url(#ONLY_ONE_END)" style="stroke: gray; fill: none;" d="M486.659,315L482.894,323.333C479.128,331.667,471.596,348.333,467.831,370.25C464.065,392.167,464.065,419.333,464.065,432.917L464.065,446.5" class="er relationshipLine"/><path marker-start="url(#ONLY_ONE_START)" marker-end="url(#ZERO_OR_MORE_END)" style="stroke: gray; fill: none;" d="M568.511,315L577.377,323.333C586.242,331.667,603.974,348.333,617.65,365C631.327,381.667,640.948,398.333,645.759,406.667L650.57,415" class="er relationshipLine"/><path marker-start="url(#ZERO_OR_MORE_START)" marker-end="url(#ONLY_ONE_END)" style="stroke: gray; fill: none;" d="M570.936,106.806L560.957,115.171C550.978,123.537,531.02,140.269,521.04,156.968C511.061,173.667,511.061,190.333,511.061,198.667L511.061,207" class="er relationshipLine"/><path marker-start="url(#ZERO_OR_ONE_START)" marker-end="url(#ZERO_OR_MORE_END)" style="stroke: gray; fill: none;" d="M674.069,107L683.93,115.333C693.792,123.667,713.514,140.333,723.375,166C733.237,191.667,733.237,226.333,733.237,261C733.237,295.667,733.237,330.333,731.682,356C730.126,381.667,727.016,398.333,725.461,406.667L723.906,415" class="er relationshipLine"/><path marker-start="url(#ONLY_ONE_START)" marker-end="url(#ZERO_OR_MORE_END)" style="stroke: gray; fill: none;" d="M641.805,582.387L630.624,594.822C619.443,607.258,597.08,632.129,585.899,654.648C574.718,677.167,574.718,697.333,574.718,707.417L574.718,717.5" class="er relationshipLine"/><path marker-start="url(#ONLY_ONE_START)" marker-end="url(#ZERO_OR_MORE_END)" style="stroke: gray; fill: none;" d="M762.384,607L767.279,615.333C772.175,623.667,781.965,640.333,786.86,657C791.756,673.667,791.756,690.333,791.756,698.667L791.756,707" class="er relationshipLine"/><path marker-start="url(#ONE_OR_MORE_START)" marker-end="url(#ONLY_ONE_END)" style="stroke: gray; fill: none;" d="M574.718,804.5L574.718,814.583C574.718,824.667,574.718,844.833,535.493,876.112C496.268,907.391,417.819,949.782,378.594,970.978L339.37,992.173" class="er relationshipLine"/><g transform="translate(406.96350479125977,446.5 )" id="entity-CONNECTOR-145c89f3-1c45-5eec-96c8-7fa697a33332"><rect height="129" width="114.20249938964844" y="0" x="0" class="er entityBox"/><text transform="translate(57.10124969482422,12)" style="dominant-baseline: middle; text-anchor: middle; font-size: 12px;" y="0" x="0" id="text-entity-CONNECTOR-145c89f3-1c45-5eec-96c8-7fa697a33332" class="er entityLabel">CONNECTOR</text><rect height="21" width="35.26939392089844" y="24" x="0" class="er attributeBoxOdd"/><text transform="translate(5,34.5)" style="dominant-baseline: middle; font-size: 10.2px;" y="0" x="0" id="text-entity-CONNECTOR-145c89f3-1c45-5eec-96c8-7fa697a33332-attr-1-type" class="er entityLabel">string</text><rect height="21" width="78.93310546875" y="24" x="35.26939392089844" class="er attributeBoxOdd"/><text transform="translate(40.26939392089844,34.5)" style="dominant-baseline: middle; font-size: 10.2px;" y="0" x="0" id="text-entity-CONNECTOR-145c89f3-1c45-5eec-96c8-7fa697a33332-attr-1-name" class="er entityLabel">name</text><rect height="21" width="35.26939392089844" y="45" x="0" class="er attributeBoxEven"/><text transform="translate(5,55.5)" style="dominant-baseline: middle; font-size: 10.2px;" y="0" x="0" id="text-entity-CONNECTOR-145c89f3-1c45-5eec-96c8-7fa697a33332-attr-2-type" class="er entityLabel">string</text><rect height="21" width="78.93310546875" y="45" x="35.26939392089844" class="er attributeBoxEven"/><text transform="translate(40.26939392089844,55.5)" style="dominant-baseline: middle; font-size: 10.2px;" y="0" x="0" id="text-entity-CONNECTOR-145c89f3-1c45-5eec-96c8-7fa697a33332-attr-2-name" class="er entityLabel">version</text><rect height="21" width="35.26939392089844" y="66" x="0" class="er attributeBoxOdd"/><text transform="translate(5,76.5)" style="dominant-baseline: middle; font-size: 10.2px;" y="0" x="0" id="text-entity-CONNECTOR-145c89f3-1c45-5eec-96c8-7fa697a33332-attr-3-type" class="er entityLabel">string</text><rect height="21" width="78.93310546875" y="66" x="35.26939392089844" class="er attributeBoxOdd"/><text transform="translate(40.26939392089844,76.5)" style="dominant-baseline: middle; font-size: 10.2px;" y="0" x="0" id="text-entity-CONNECTOR-145c89f3-1c45-5eec-96c8-7fa697a33332-attr-3-name" class="er entityLabel">description</text><rect height="21" width="35.26939392089844" y="87" x="0" class="er attributeBoxEven"/><text transform="translate(5,97.5)" style="dominant-baseline: middle; font-size: 10.2px;" y="0" x="0" id="text-entity-CONNECTOR-145c89f3-1c45-5eec-96c8-7fa697a33332-attr-4-type" class="er entityLabel">json</text><rect height="21" width="78.93310546875" y="87" x="35.26939392089844" class="er attributeBoxEven"/><text transform="translate(40.26939392089844,97.5)" style="dominant-baseline: middle; font-size: 10.2px;" y="0" x="0" id="text-entity-CONNECTOR-145c89f3-1c45-5eec-96c8-7fa697a33332-attr-4-name" class="er entityLabel">config_schema</text><rect height="21" width="35.26939392089844" y="108" x="0" class="er attributeBoxOdd"/><text transform="translate(5,118.5)" style="dominant-baseline: middle; font-size: 10.2px;" y="0" x="0" id="text-entity-CONNECTOR-145c89f3-1c45-5eec-96c8-7fa697a33332-attr-5-type" class="er entityLabel">json</text><rect height="21" width="78.93310546875" y="108" x="35.26939392089844" class="er attributeBoxOdd"/><text transform="translate(40.26939392089844,118.5)" style="dominant-baseline: middle; font-size: 10.2px;" y="0" x="0" id="text-entity-CONNECTOR-145c89f3-1c45-5eec-96c8-7fa697a33332-attr-5-name" class="er entityLabel">query_schema</text></g><g transform="translate(450.2721061706543,207 )" id="entity-CONNECTION-b5526f05-21fa-56a1-98ce-b2cc78839c90"><rect height="108" width="121.57855224609375" y="0" x="0" class="er entityBox"/><text transform="translate(60.789276123046875,12)" style="dominant-baseline: middle; text-anchor: middle; font-size: 12px;" y="0" x="0" id="text-entity-CONNECTION-b5526f05-21fa-56a1-98ce-b2cc78839c90" class="er entityLabel">CONNECTION</text><rect height="21" width="35.26939392089844" y="24" x="0" class="er attributeBoxOdd"/><text transform="translate(5,34.5)" style="dominant-baseline: middle; font-size: 10.2px;" y="0" x="0" id="text-entity-CONNECTION-b5526f05-21fa-56a1-98ce-b2cc78839c90-attr-1-type" class="er entityLabel">int</text><rect height="21" width="86.30915832519531" y="24" x="35.26939392089844" class="er attributeBoxOdd"/><text transform="translate(40.26939392089844,34.5)" style="dominant-baseline: middle; font-size: 10.2px;" y="0" x="0" id="text-entity-CONNECTION-b5526f05-21fa-56a1-98ce-b2cc78839c90-attr-1-name" class="er entityLabel">id</text><rect height="21" width="35.26939392089844" y="45" x="0" class="er attributeBoxEven"/><text transform="translate(5,55.5)" style="dominant-baseline: middle; font-size: 10.2px;" y="0" x="0" id="text-entity-CONNECTION-b5526f05-21fa-56a1-98ce-b2cc78839c90-attr-2-type" class="er entityLabel">string</text><rect height="21" width="86.30915832519531" y="45" x="35.26939392089844" class="er attributeBoxEven"/><text transform="translate(40.26939392089844,55.5)" style="dominant-baseline: middle; font-size: 10.2px;" y="0" x="0" id="text-entity-CONNECTION-b5526f05-21fa-56a1-98ce-b2cc78839c90-attr-2-name" class="er entityLabel">connector_name</text><rect height="21" width="35.26939392089844" y="66" x="0" class="er attributeBoxOdd"/><text transform="translate(5,76.5)" style="dominant-baseline: middle; font-size: 10.2px;" y="0" x="0" id="text-entity-CONNECTION-b5526f05-21fa-56a1-98ce-b2cc78839c90-attr-3-type" class="er entityLabel">string</text><rect height="21" width="86.30915832519531" y="66" x="35.26939392089844" class="er attributeBoxOdd"/><text transform="translate(40.26939392089844,76.5)" style="dominant-baseline: middle; font-size: 10.2px;" y="0" x="0" id="text-entity-CONNECTION-b5526f05-21fa-56a1-98ce-b2cc78839c90-attr-3-name" class="er entityLabel">name</text><rect height="21" width="35.26939392089844" y="87" x="0" class="er attributeBoxEven"/><text transform="translate(5,97.5)" style="dominant-baseline: middle; font-size: 10.2px;" y="0" x="0" id="text-entity-CONNECTION-b5526f05-21fa-56a1-98ce-b2cc78839c90-attr-4-type" class="er entityLabel">json</text><rect height="21" width="86.30915832519531" y="87" x="35.26939392089844" class="er attributeBoxEven"/><text transform="translate(40.26939392089844,97.5)" style="dominant-baseline: middle; font-size: 10.2px;" y="0" x="0" id="text-entity-CONNECTION-b5526f05-21fa-56a1-98ce-b2cc78839c90-attr-4-name" class="er entityLabel">config</text></g><g transform="translate(53.132083892822266,728 )" id="entity-JOB-689ef35c-f61f-5e8b-bf9d-457a270301e5"><rect height="66" width="103.8314208984375" y="0" x="0" class="er entityBox"/><text transform="translate(51.91571044921875,12)" style="dominant-baseline: middle; text-anchor: middle; font-size: 12px;" y="0" x="0" id="text-entity-JOB-689ef35c-f61f-5e8b-bf9d-457a270301e5" class="er entityLabel">JOB</text><rect height="21" width="20.938858032226562" y="24" x="0" class="er attributeBoxOdd"/><text transform="translate(5,34.5)" style="dominant-baseline: middle; font-size: 10.2px;" y="0" x="0" id="text-entity-JOB-689ef35c-f61f-5e8b-bf9d-457a270301e5-attr-1-type" class="er entityLabel">int</text><rect height="21" width="82.89256286621094" y="24" x="20.938858032226562" class="er attributeBoxOdd"/><text transform="translate(25.938858032226562,34.5)" style="dominant-baseline: middle; font-size: 10.2px;" y="0" x="0" id="text-entity-JOB-689ef35c-f61f-5e8b-bf9d-457a270301e5-attr-1-name" class="er entityLabel">id</text><rect height="21" width="20.938858032226562" y="45" x="0" class="er attributeBoxEven"/><text transform="translate(5,55.5)" style="dominant-baseline: middle; font-size: 10.2px;" y="0" x="0" id="text-entity-JOB-689ef35c-f61f-5e8b-bf9d-457a270301e5-attr-2-type" class="er entityLabel">int</text><rect height="21" width="82.89256286621094" y="45" x="20.938858032226562" class="er attributeBoxEven"/><text transform="translate(25.938858032226562,55.5)" style="dominant-baseline: middle; font-size: 10.2px;" y="0" x="0" id="text-entity-JOB-689ef35c-f61f-5e8b-bf9d-457a270301e5-attr-2-name" class="er entityLabel">primary_post_id</text></g><g transform="translate(230.82484436035156,915 )" id="entity-POST-dedb1204-6961-5504-b717-5f982e5d0300"><rect height="213" width="108.54469299316406" y="0" x="0" class="er entityBox"/><text transform="translate(54.27234649658203,12)" style="dominant-baseline: middle; text-anchor: middle; font-size: 12px;" y="0" x="0" id="text-entity-POST-dedb1204-6961-5504-b717-5f982e5d0300" class="er entityLabel">POST</text><rect height="21" width="35.26939392089844" y="24" x="0" class="er attributeBoxOdd"/><text transform="translate(5,34.5)" style="dominant-baseline: middle; font-size: 10.2px;" y="0" x="0" id="text-entity-POST-dedb1204-6961-5504-b717-5f982e5d0300-attr-1-type" class="er entityLabel">int</text><rect height="21" width="73.27529907226562" y="24" x="35.26939392089844" class="er attributeBoxOdd"/><text transform="translate(40.26939392089844,34.5)" style="dominant-baseline: middle; font-size: 10.2px;" y="0" x="0" id="text-entity-POST-dedb1204-6961-5504-b717-5f982e5d0300-attr-1-name" class="er entityLabel">id</text><rect height="21" width="35.26939392089844" y="45" x="0" class="er attributeBoxEven"/><text transform="translate(5,55.5)" style="dominant-baseline: middle; font-size: 10.2px;" y="0" x="0" id="text-entity-POST-dedb1204-6961-5504-b717-5f982e5d0300-attr-2-type" class="er entityLabel">int</text><rect height="21" width="73.27529907226562" y="45" x="35.26939392089844" class="er attributeBoxEven"/><text transform="translate(40.26939392089844,55.5)" style="dominant-baseline: middle; font-size: 10.2px;" y="0" x="0" id="text-entity-POST-dedb1204-6961-5504-b717-5f982e5d0300-attr-2-name" class="er entityLabel">job_id</text><rect height="21" width="35.26939392089844" y="66" x="0" class="er attributeBoxOdd"/><text transform="translate(5,76.5)" style="dominant-baseline: middle; font-size: 10.2px;" y="0" x="0" id="text-entity-POST-dedb1204-6961-5504-b717-5f982e5d0300-attr-3-type" class="er entityLabel">int</text><rect height="21" width="73.27529907226562" y="66" x="35.26939392089844" class="er attributeBoxOdd"/><text transform="translate(40.26939392089844,76.5)" style="dominant-baseline: middle; font-size: 10.2px;" y="0" x="0" id="text-entity-POST-dedb1204-6961-5504-b717-5f982e5d0300-attr-3-name" class="er entityLabel">connection_id</text><rect height="21" width="35.26939392089844" y="87" x="0" class="er attributeBoxEven"/><text transform="translate(5,97.5)" style="dominant-baseline: middle; font-size: 10.2px;" y="0" x="0" id="text-entity-POST-dedb1204-6961-5504-b717-5f982e5d0300-attr-4-type" class="er entityLabel">string</text><rect height="21" width="73.27529907226562" y="87" x="35.26939392089844" class="er attributeBoxEven"/><text transform="translate(40.26939392089844,97.5)" style="dominant-baseline: middle; font-size: 10.2px;" y="0" x="0" id="text-entity-POST-dedb1204-6961-5504-b717-5f982e5d0300-attr-4-name" class="er entityLabel">unique_id</text><rect height="21" width="35.26939392089844" y="108" x="0" class="er attributeBoxOdd"/><text transform="translate(5,118.5)" style="dominant-baseline: middle; font-size: 10.2px;" y="0" x="0" id="text-entity-POST-dedb1204-6961-5504-b717-5f982e5d0300-attr-5-type" class="er entityLabel">string</text><rect height="21" width="73.27529907226562" y="108" x="35.26939392089844" class="er attributeBoxOdd"/><text transform="translate(40.26939392089844,118.5)" style="dominant-baseline: middle; font-size: 10.2px;" y="0" x="0" id="text-entity-POST-dedb1204-6961-5504-b717-5f982e5d0300-attr-5-name" class="er entityLabel">url</text><rect height="21" width="35.26939392089844" y="129" x="0" class="er attributeBoxEven"/><text transform="translate(5,139.5)" style="dominant-baseline: middle; font-size: 10.2px;" y="0" x="0" id="text-entity-POST-dedb1204-6961-5504-b717-5f982e5d0300-attr-6-type" class="er entityLabel">string</text><rect height="21" width="73.27529907226562" y="129" x="35.26939392089844" class="er attributeBoxEven"/><text transform="translate(40.26939392089844,139.5)" style="dominant-baseline: middle; font-size: 10.2px;" y="0" x="0" id="text-entity-POST-dedb1204-6961-5504-b717-5f982e5d0300-attr-6-name" class="er entityLabel">company</text><rect height="21" width="35.26939392089844" y="150" x="0" class="er attributeBoxOdd"/><text transform="translate(5,160.5)" style="dominant-baseline: middle; font-size: 10.2px;" y="0" x="0" id="text-entity-POST-dedb1204-6961-5504-b717-5f982e5d0300-attr-7-type" class="er entityLabel">string</text><rect height="21" width="73.27529907226562" y="150" x="35.26939392089844" class="er attributeBoxOdd"/><text transform="translate(40.26939392089844,160.5)" style="dominant-baseline: middle; font-size: 10.2px;" y="0" x="0" id="text-entity-POST-dedb1204-6961-5504-b717-5f982e5d0300-attr-7-name" class="er entityLabel">title</text><rect height="21" width="35.26939392089844" y="171" x="0" class="er attributeBoxEven"/><text transform="translate(5,181.5)" style="dominant-baseline: middle; font-size: 10.2px;" y="0" x="0" id="text-entity-POST-dedb1204-6961-5504-b717-5f982e5d0300-attr-8-type" class="er entityLabel">string</text><rect height="21" width="73.27529907226562" y="171" x="35.26939392089844" class="er attributeBoxEven"/><text transform="translate(40.26939392089844,181.5)" style="dominant-baseline: middle; font-size: 10.2px;" y="0" x="0" id="text-entity-POST-dedb1204-6961-5504-b717-5f982e5d0300-attr-8-name" class="er entityLabel">description</text><rect height="21" width="35.26939392089844" y="192" x="0" class="er attributeBoxOdd"/><text transform="translate(5,202.5)" style="dominant-baseline: middle; font-size: 10.2px;" y="0" x="0" id="text-entity-POST-dedb1204-6961-5504-b717-5f982e5d0300-attr-9-type" class="er entityLabel">string</text><rect height="21" width="73.27529907226562" y="192" x="35.26939392089844" class="er attributeBoxOdd"/><text transform="translate(40.26939392089844,202.5)" style="dominant-baseline: middle; font-size: 10.2px;" y="0" x="0" id="text-entity-POST-dedb1204-6961-5504-b717-5f982e5d0300-attr-9-name" class="er entityLabel">location</text></g><g transform="translate(20,946.5 )" id="entity-JOBSTAGE-03487128-ed0d-5aac-ada4-3834bff4bc59"><rect height="150" width="107.82147216796875" y="0" x="0" class="er entityBox"/><text transform="translate(53.910736083984375,12)" style="dominant-baseline: middle; text-anchor: middle; font-size: 12px;" y="0" x="0" id="text-entity-JOBSTAGE-03487128-ed0d-5aac-ada4-3834bff4bc59" class="er entityLabel">JOB_STAGE</text><rect height="21" width="49.44877624511719" y="24" x="0" class="er attributeBoxOdd"/><text transform="translate(5,34.5)" style="dominant-baseline: middle; font-size: 10.2px;" y="0" x="0" id="text-entity-JOBSTAGE-03487128-ed0d-5aac-ada4-3834bff4bc59-attr-1-type" class="er entityLabel">int</text><rect height="21" width="58.37269592285156" y="24" x="49.44877624511719" class="er attributeBoxOdd"/><text transform="translate(54.44877624511719,34.5)" style="dominant-baseline: middle; font-size: 10.2px;" y="0" x="0" id="text-entity-JOBSTAGE-03487128-ed0d-5aac-ada4-3834bff4bc59-attr-1-name" class="er entityLabel">id</text><rect height="21" width="49.44877624511719" y="45" x="0" class="er attributeBoxEven"/><text transform="translate(5,55.5)" style="dominant-baseline: middle; font-size: 10.2px;" y="0" x="0" id="text-entity-JOBSTAGE-03487128-ed0d-5aac-ada4-3834bff4bc59-attr-2-type" class="er entityLabel">int</text><rect height="21" width="58.37269592285156" y="45" x="49.44877624511719" class="er attributeBoxEven"/><text transform="translate(54.44877624511719,55.5)" style="dominant-baseline: middle; font-size: 10.2px;" y="0" x="0" id="text-entity-JOBSTAGE-03487128-ed0d-5aac-ada4-3834bff4bc59-attr-2-name" class="er entityLabel">stage_id</text><rect height="21" width="49.44877624511719" y="66" x="0" class="er attributeBoxOdd"/><text transform="translate(5,76.5)" style="dominant-baseline: middle; font-size: 10.2px;" y="0" x="0" id="text-entity-JOBSTAGE-03487128-ed0d-5aac-ada4-3834bff4bc59-attr-3-type" class="er entityLabel">int</text><rect height="21" width="58.37269592285156" y="66" x="49.44877624511719" class="er attributeBoxOdd"/><text transform="translate(54.44877624511719,76.5)" style="dominant-baseline: middle; font-size: 10.2px;" y="0" x="0" id="text-entity-JOBSTAGE-03487128-ed0d-5aac-ada4-3834bff4bc59-attr-3-name" class="er entityLabel">job_id</text><rect height="21" width="49.44877624511719" y="87" x="0" class="er attributeBoxEven"/><text transform="translate(5,97.5)" style="dominant-baseline: middle; font-size: 10.2px;" y="0" x="0" id="text-entity-JOBSTAGE-03487128-ed0d-5aac-ada4-3834bff4bc59-attr-4-type" class="er entityLabel">datetime</text><rect height="21" width="58.37269592285156" y="87" x="49.44877624511719" class="er attributeBoxEven"/><text transform="translate(54.44877624511719,97.5)" style="dominant-baseline: middle; font-size: 10.2px;" y="0" x="0" id="text-entity-JOBSTAGE-03487128-ed0d-5aac-ada4-3834bff4bc59-attr-4-name" class="er entityLabel">timestamp</text><rect height="21" width="49.44877624511719" y="108" x="0" class="er attributeBoxOdd"/><text transform="translate(5,118.5)" style="dominant-baseline: middle; font-size: 10.2px;" y="0" x="0" id="text-entity-JOBSTAGE-03487128-ed0d-5aac-ada4-3834bff4bc59-attr-5-type" class="er entityLabel">text</text><rect height="21" width="58.37269592285156" y="108" x="49.44877624511719" class="er attributeBoxOdd"/><text transform="translate(54.44877624511719,118.5)" style="dominant-baseline: middle; font-size: 10.2px;" y="0" x="0" id="text-entity-JOBSTAGE-03487128-ed0d-5aac-ada4-3834bff4bc59-attr-5-name" class="er entityLabel">comment</text><rect height="21" width="49.44877624511719" y="129" x="0" class="er attributeBoxEven"/><text transform="translate(5,139.5)" style="dominant-baseline: middle; font-size: 10.2px;" y="0" x="0" id="text-entity-JOBSTAGE-03487128-ed0d-5aac-ada4-3834bff4bc59-attr-6-type" class="er entityLabel">string</text><rect height="21" width="58.37269592285156" y="129" x="49.44877624511719" class="er attributeBoxEven"/><text transform="translate(54.44877624511719,139.5)" style="dominant-baseline: middle; font-size: 10.2px;" y="0" x="0" id="text-entity-JOBSTAGE-03487128-ed0d-5aac-ada4-3834bff4bc59-attr-6-name" class="er entityLabel">url</text></g><g transform="translate(23.910736083984375,1228 )" id="entity-STAGE-b3b3ae2f-3286-55e2-8698-6897421b790f"><rect height="87" width="100" y="0" x="0" class="er entityBox"/><text transform="translate(50,12)" style="dominant-baseline: middle; text-anchor: middle; font-size: 12px;" y="0" x="0" id="text-entity-STAGE-b3b3ae2f-3286-55e2-8698-6897421b790f" class="er entityLabel">STAGE</text><rect height="21" width="49.71361541748047" y="24" x="0" class="er attributeBoxOdd"/><text transform="translate(5,34.5)" style="dominant-baseline: middle; font-size: 10.2px;" y="0" x="0" id="text-entity-STAGE-b3b3ae2f-3286-55e2-8698-6897421b790f-attr-1-type" class="er entityLabel">int</text><rect height="21" width="50.28638458251953" y="24" x="49.71361541748047" class="er attributeBoxOdd"/><text transform="translate(54.71361541748047,34.5)" style="dominant-baseline: middle; font-size: 10.2px;" y="0" x="0" id="text-entity-STAGE-b3b3ae2f-3286-55e2-8698-6897421b790f-attr-1-name" class="er entityLabel">id</text><rect height="21" width="49.71361541748047" y="45" x="0" class="er attributeBoxEven"/><text transform="translate(5,55.5)" style="dominant-baseline: middle; font-size: 10.2px;" y="0" x="0" id="text-entity-STAGE-b3b3ae2f-3286-55e2-8698-6897421b790f-attr-2-type" class="er entityLabel">string</text><rect height="21" width="50.28638458251953" y="45" x="49.71361541748047" class="er attributeBoxEven"/><text transform="translate(54.71361541748047,55.5)" style="dominant-baseline: middle; font-size: 10.2px;" y="0" x="0" id="text-entity-STAGE-b3b3ae2f-3286-55e2-8698-6897421b790f-attr-2-name" class="er entityLabel">name</text><rect height="21" width="49.71361541748047" y="66" x="0" class="er attributeBoxOdd"/><text transform="translate(5,76.5)" style="dominant-baseline: middle; font-size: 10.2px;" y="0" x="0" id="text-entity-STAGE-b3b3ae2f-3286-55e2-8698-6897421b790f-attr-3-type" class="er entityLabel">string</text><rect height="21" width="50.28638458251953" y="66" x="49.71361541748047" class="er attributeBoxOdd"/><text transform="translate(54.71361541748047,76.5)" style="dominant-baseline: middle; font-size: 10.2px;" y="0" x="0" id="text-entity-STAGE-b3b3ae2f-3286-55e2-8698-6897421b790f-attr-3-name" class="er entityLabel">color</text></g><g transform="translate(641.8051376342773,415 )" id="entity-QUERY-e2d2dc0d-ae0a-5938-a9d1-e6e05bf81a37"><rect height="192" width="128.3719024658203" y="0" x="0" class="er entityBox"/><text transform="translate(64.18595123291016,12)" style="dominant-baseline: middle; text-anchor: middle; font-size: 12px;" y="0" x="0" id="text-entity-QUERY-e2d2dc0d-ae0a-5938-a9d1-e6e05bf81a37" class="er entityLabel">QUERY</text><rect height="21" width="49.44877624511719" y="24" x="0" class="er attributeBoxOdd"/><text transform="translate(5,34.5)" style="dominant-baseline: middle; font-size: 10.2px;" y="0" x="0" id="text-entity-QUERY-e2d2dc0d-ae0a-5938-a9d1-e6e05bf81a37-attr-1-type" class="er entityLabel">int</text><rect height="21" width="78.92312622070312" y="24" x="49.44877624511719" class="er attributeBoxOdd"/><text transform="translate(54.44877624511719,34.5)" style="dominant-baseline: middle; font-size: 10.2px;" y="0" x="0" id="text-entity-QUERY-e2d2dc0d-ae0a-5938-a9d1-e6e05bf81a37-attr-1-name" class="er entityLabel">id</text><rect height="21" width="49.44877624511719" y="45" x="0" class="er attributeBoxEven"/><text transform="translate(5,55.5)" style="dominant-baseline: middle; font-size: 10.2px;" y="0" x="0" id="text-entity-QUERY-e2d2dc0d-ae0a-5938-a9d1-e6e05bf81a37-attr-2-type" class="er entityLabel">int</text><rect height="21" width="78.92312622070312" y="45" x="49.44877624511719" class="er attributeBoxEven"/><text transform="translate(54.44877624511719,55.5)" style="dominant-baseline: middle; font-size: 10.2px;" y="0" x="0" id="text-entity-QUERY-e2d2dc0d-ae0a-5938-a9d1-e6e05bf81a37-attr-2-name" class="er entityLabel">schedule_id</text><rect height="21" width="49.44877624511719" y="66" x="0" class="er attributeBoxOdd"/><text transform="translate(5,76.5)" style="dominant-baseline: middle; font-size: 10.2px;" y="0" x="0" id="text-entity-QUERY-e2d2dc0d-ae0a-5938-a9d1-e6e05bf81a37-attr-3-type" class="er entityLabel">int</text><rect height="21" width="78.92312622070312" y="66" x="49.44877624511719" class="er attributeBoxOdd"/><text transform="translate(54.44877624511719,76.5)" style="dominant-baseline: middle; font-size: 10.2px;" y="0" x="0" id="text-entity-QUERY-e2d2dc0d-ae0a-5938-a9d1-e6e05bf81a37-attr-3-name" class="er entityLabel">connection_id</text><rect height="21" width="49.44877624511719" y="87" x="0" class="er attributeBoxEven"/><text transform="translate(5,97.5)" style="dominant-baseline: middle; font-size: 10.2px;" y="0" x="0" id="text-entity-QUERY-e2d2dc0d-ae0a-5938-a9d1-e6e05bf81a37-attr-4-type" class="er entityLabel">datetime</text><rect height="21" width="78.92312622070312" y="87" x="49.44877624511719" class="er attributeBoxEven"/><text transform="translate(54.44877624511719,97.5)" style="dominant-baseline: middle; font-size: 10.2px;" y="0" x="0" id="text-entity-QUERY-e2d2dc0d-ae0a-5938-a9d1-e6e05bf81a37-attr-4-name" class="er entityLabel">created</text><rect height="21" width="49.44877624511719" y="108" x="0" class="er attributeBoxOdd"/><text transform="translate(5,118.5)" style="dominant-baseline: middle; font-size: 10.2px;" y="0" x="0" id="text-entity-QUERY-e2d2dc0d-ae0a-5938-a9d1-e6e05bf81a37-attr-5-type" class="er entityLabel">datetime</text><rect height="21" width="78.92312622070312" y="108" x="49.44877624511719" class="er attributeBoxOdd"/><text transform="translate(54.44877624511719,118.5)" style="dominant-baseline: middle; font-size: 10.2px;" y="0" x="0" id="text-entity-QUERY-e2d2dc0d-ae0a-5938-a9d1-e6e05bf81a37-attr-5-name" class="er entityLabel">started</text><rect height="21" width="49.44877624511719" y="129" x="0" class="er attributeBoxEven"/><text transform="translate(5,139.5)" style="dominant-baseline: middle; font-size: 10.2px;" y="0" x="0" id="text-entity-QUERY-e2d2dc0d-ae0a-5938-a9d1-e6e05bf81a37-attr-6-type" class="er entityLabel">datetime</text><rect height="21" width="78.92312622070312" y="129" x="49.44877624511719" class="er attributeBoxEven"/><text transform="translate(54.44877624511719,139.5)" style="dominant-baseline: middle; font-size: 10.2px;" y="0" x="0" id="text-entity-QUERY-e2d2dc0d-ae0a-5938-a9d1-e6e05bf81a37-attr-6-name" class="er entityLabel">ended</text><rect height="21" width="49.44877624511719" y="150" x="0" class="er attributeBoxOdd"/><text transform="translate(5,160.5)" style="dominant-baseline: middle; font-size: 10.2px;" y="0" x="0" id="text-entity-QUERY-e2d2dc0d-ae0a-5938-a9d1-e6e05bf81a37-attr-7-type" class="er entityLabel">string</text><rect height="21" width="78.92312622070312" y="150" x="49.44877624511719" class="er attributeBoxOdd"/><text transform="translate(54.44877624511719,160.5)" style="dominant-baseline: middle; font-size: 10.2px;" y="0" x="0" id="text-entity-QUERY-e2d2dc0d-ae0a-5938-a9d1-e6e05bf81a37-attr-7-name" class="er entityLabel">error_message</text><rect height="21" width="49.44877624511719" y="171" x="0" class="er attributeBoxEven"/><text transform="translate(5,181.5)" style="dominant-baseline: middle; font-size: 10.2px;" y="0" x="0" id="text-entity-QUERY-e2d2dc0d-ae0a-5938-a9d1-e6e05bf81a37-attr-8-type" class="er entityLabel">json</text><rect height="21" width="78.92312622070312" y="171" x="49.44877624511719" class="er attributeBoxEven"/><text transform="translate(54.44877624511719,181.5)" style="dominant-baseline: middle; font-size: 10.2px;" y="0" x="0" id="text-entity-QUERY-e2d2dc0d-ae0a-5938-a9d1-e6e05bf81a37-attr-8-name" class="er entityLabel">query</text></g><g transform="translate(511.59088134765625,717.5 )" id="entity-QUERYRESULT-ec1f6df9-1e6f-5450-999e-a33d53cb7e9c"><rect height="87" width="126.25390625" y="0" x="0" class="er entityBox"/><text transform="translate(63.126953125,12)" style="dominant-baseline: middle; text-anchor: middle; font-size: 12px;" y="0" x="0" id="text-entity-QUERYRESULT-ec1f6df9-1e6f-5450-999e-a33d53cb7e9c" class="er entityLabel">QUERY_RESULT</text><rect height="21" width="48.8695068359375" y="24" x="0" class="er attributeBoxOdd"/><text transform="translate(5,34.5)" style="dominant-baseline: middle; font-size: 10.2px;" y="0" x="0" id="text-entity-QUERYRESULT-ec1f6df9-1e6f-5450-999e-a33d53cb7e9c-attr-1-type" class="er entityLabel">int</text><rect height="21" width="77.3843994140625" y="24" x="48.8695068359375" class="er attributeBoxOdd"/><text transform="translate(53.8695068359375,34.5)" style="dominant-baseline: middle; font-size: 10.2px;" y="0" x="0" id="text-entity-QUERYRESULT-ec1f6df9-1e6f-5450-999e-a33d53cb7e9c-attr-1-name" class="er entityLabel">id</text><rect height="21" width="48.8695068359375" y="45" x="0" class="er attributeBoxEven"/><text transform="translate(5,55.5)" style="dominant-baseline: middle; font-size: 10.2px;" y="0" x="0" id="text-entity-QUERYRESULT-ec1f6df9-1e6f-5450-999e-a33d53cb7e9c-attr-2-type" class="er entityLabel">int</text><rect height="21" width="77.3843994140625" y="45" x="48.8695068359375" class="er attributeBoxEven"/><text transform="translate(53.8695068359375,55.5)" style="dominant-baseline: middle; font-size: 10.2px;" y="0" x="0" id="text-entity-QUERYRESULT-ec1f6df9-1e6f-5450-999e-a33d53cb7e9c-attr-2-name" class="er entityLabel">query_id</text><rect height="21" width="48.8695068359375" y="66" x="0" class="er attributeBoxOdd"/><text transform="translate(5,76.5)" style="dominant-baseline: middle; font-size: 10.2px;" y="0" x="0" id="text-entity-QUERYRESULT-ec1f6df9-1e6f-5450-999e-a33d53cb7e9c-attr-3-type" class="er entityLabel">int</text><rect height="21" width="77.3843994140625" y="66" x="48.8695068359375" class="er attributeBoxOdd"/><text transform="translate(53.8695068359375,76.5)" style="dominant-baseline: middle; font-size: 10.2px;" y="0" x="0" id="text-entity-QUERYRESULT-ec1f6df9-1e6f-5450-999e-a33d53cb7e9c-attr-3-name" class="er entityLabel">post_id</text></g><g transform="translate(737.8447875976562,707 )" id="entity-QUERYLOG-69362357-6d2f-5ba9-bc71-5d168188a58d"><rect height="108" width="107.82147216796875" y="0" x="0" class="er entityBox"/><text transform="translate(53.910736083984375,12)" style="dominant-baseline: middle; text-anchor: middle; font-size: 12px;" y="0" x="0" id="text-entity-QUERYLOG-69362357-6d2f-5ba9-bc71-5d168188a58d" class="er entityLabel">QUERY_LOG</text><rect height="21" width="49.44877624511719" y="24" x="0" class="er attributeBoxOdd"/><text transform="translate(5,34.5)" style="dominant-baseline: middle; font-size: 10.2px;" y="0" x="0" id="text-entity-QUERYLOG-69362357-6d2f-5ba9-bc71-5d168188a58d-attr-1-type" class="er entityLabel">int</text><rect height="21" width="58.37269592285156" y="24" x="49.44877624511719" class="er attributeBoxOdd"/><text transform="translate(54.44877624511719,34.5)" style="dominant-baseline: middle; font-size: 10.2px;" y="0" x="0" id="text-entity-QUERYLOG-69362357-6d2f-5ba9-bc71-5d168188a58d-attr-1-name" class="er entityLabel">id</text><rect height="21" width="49.44877624511719" y="45" x="0" class="er attributeBoxEven"/><text transform="translate(5,55.5)" style="dominant-baseline: middle; font-size: 10.2px;" y="0" x="0" id="text-entity-QUERYLOG-69362357-6d2f-5ba9-bc71-5d168188a58d-attr-2-type" class="er entityLabel">int</text><rect height="21" width="58.37269592285156" y="45" x="49.44877624511719" class="er attributeBoxEven"/><text transform="translate(54.44877624511719,55.5)" style="dominant-baseline: middle; font-size: 10.2px;" y="0" x="0" id="text-entity-QUERYLOG-69362357-6d2f-5ba9-bc71-5d168188a58d-attr-2-name" class="er entityLabel">query_id</text><rect height="21" width="49.44877624511719" y="66" x="0" class="er attributeBoxOdd"/><text transform="translate(5,76.5)" style="dominant-baseline: middle; font-size: 10.2px;" y="0" x="0" id="text-entity-QUERYLOG-69362357-6d2f-5ba9-bc71-5d168188a58d-attr-3-type" class="er entityLabel">datetime</text><rect height="21" width="58.37269592285156" y="66" x="49.44877624511719" class="er attributeBoxOdd"/><text transform="translate(54.44877624511719,76.5)" style="dominant-baseline: middle; font-size: 10.2px;" y="0" x="0" id="text-entity-QUERYLOG-69362357-6d2f-5ba9-bc71-5d168188a58d-attr-3-name" class="er entityLabel">timestamp</text><rect height="21" width="49.44877624511719" y="87" x="0" class="er attributeBoxEven"/><text transform="translate(5,97.5)" style="dominant-baseline: middle; font-size: 10.2px;" y="0" x="0" id="text-entity-QUERYLOG-69362357-6d2f-5ba9-bc71-5d168188a58d-attr-4-type" class="er entityLabel">text</text><rect height="21" width="58.37269592285156" y="87" x="49.44877624511719" class="er attributeBoxEven"/><text transform="translate(54.44877624511719,97.5)" style="dominant-baseline: middle; font-size: 10.2px;" y="0" x="0" id="text-entity-QUERYLOG-69362357-6d2f-5ba9-bc71-5d168188a58d-attr-4-name" class="er entityLabel">message</text></g><g transform="translate(570.9360046386719,20 )" id="entity-SCHEDULE-d5aa4656-01eb-57f0-9eed-befe12843b9b"><rect height="87" width="103.31414794921875" y="0" x="0" class="er entityBox"/><text transform="translate(51.657073974609375,12)" style="dominant-baseline: middle; text-anchor: middle; font-size: 12px;" y="0" x="0" id="text-entity-SCHEDULE-d5aa4656-01eb-57f0-9eed-befe12843b9b" class="er entityLabel">SCHEDULE</text><rect height="21" width="30.038848876953125" y="24" x="0" class="er attributeBoxOdd"/><text transform="translate(5,34.5)" style="dominant-baseline: middle; font-size: 10.2px;" y="0" x="0" id="text-entity-SCHEDULE-d5aa4656-01eb-57f0-9eed-befe12843b9b-attr-1-type" class="er entityLabel">int</text><rect height="21" width="73.27529907226562" y="24" x="30.038848876953125" class="er attributeBoxOdd"/><text transform="translate(35.038848876953125,34.5)" style="dominant-baseline: middle; font-size: 10.2px;" y="0" x="0" id="text-entity-SCHEDULE-d5aa4656-01eb-57f0-9eed-befe12843b9b-attr-1-name" class="er entityLabel">id</text><rect height="21" width="30.038848876953125" y="45" x="0" class="er attributeBoxEven"/><text transform="translate(5,55.5)" style="dominant-baseline: middle; font-size: 10.2px;" y="0" x="0" id="text-entity-SCHEDULE-d5aa4656-01eb-57f0-9eed-befe12843b9b-attr-2-type" class="er entityLabel">int</text><rect height="21" width="73.27529907226562" y="45" x="30.038848876953125" class="er attributeBoxEven"/><text transform="translate(35.038848876953125,55.5)" style="dominant-baseline: middle; font-size: 10.2px;" y="0" x="0" id="text-entity-SCHEDULE-d5aa4656-01eb-57f0-9eed-befe12843b9b-attr-2-name" class="er entityLabel">connection_id</text><rect height="21" width="30.038848876953125" y="66" x="0" class="er attributeBoxOdd"/><text transform="translate(5,76.5)" style="dominant-baseline: middle; font-size: 10.2px;" y="0" x="0" id="text-entity-SCHEDULE-d5aa4656-01eb-57f0-9eed-befe12843b9b-attr-3-type" class="er entityLabel">json</text><rect height="21" width="73.27529907226562" y="66" x="30.038848876953125" class="er attributeBoxOdd"/><text transform="translate(35.038848876953125,76.5)" style="dominant-baseline: middle; font-size: 10.2px;" y="0" x="0" id="text-entity-SCHEDULE-d5aa4656-01eb-57f0-9eed-befe12843b9b-attr-3-name" class="er entityLabel">query</text></g><rect height="14" width="52.03125" y="862.1976928710938" x="51.1087646484375" class="er relationshipLabelBox"/><text style="text-anchor: middle; dominant-baseline: middle; font-size: 12px;" y="869.1976928710938" x="77.1243896484375" id="rel12" class="er relationshipLabel">has many</text><rect height="14" width="19.359375" y="1155.25" x="64.23131561279297" class="er relationshipLabelBox"/><text style="text-anchor: middle; dominant-baseline: middle; font-size: 12px;" y="1162.25" x="73.91100311279297" id="rel13" class="er relationshipLabel">has</text><rect height="14" width="52.03125" y="860.8983154296875" x="153.78005981445312" class="er relationshipLabelBox"/><text style="text-anchor: middle; dominant-baseline: middle; font-size: 12px;" y="867.8983154296875" x="179.79568481445312" id="rel14" class="er relationshipLabel">has many</text><rect height="14" width="52.03125" y="563.005126953125" x="280.9483642578125" class="er relationshipLabelBox"/><text style="text-anchor: middle; dominant-baseline: middle; font-size: 12px;" y="570.005126953125" x="306.9639892578125" id="rel15" class="er relationshipLabel">has many</text><rect height="14" width="25.359375" y="372.0906982421875" x="453.85736083984375" class="er relationshipLabelBox"/><text style="text-anchor: middle; dominant-baseline: middle; font-size: 12px;" y="379.0906982421875" x="466.53704833984375" id="rel16" class="er relationshipLabel">uses</text><rect height="14" width="23.34375" y="354.088134765625" x="602.696533203125" class="er relationshipLabelBox"/><text style="text-anchor: middle; dominant-baseline: middle; font-size: 12px;" y="361.088134765625" x="614.368408203125" id="rel17" class="er relationshipLabel">runs</text><rect height="14" width="25.359375" y="142.02037048339844" x="513.8080444335938" class="er relationshipLabelBox"/><text style="text-anchor: middle; dominant-baseline: middle; font-size: 12px;" y="149.02037048339844" x="526.4877319335938" id="rel18" class="er relationshipLabel">uses</text><rect height="14" width="39.359375" y="244.35629272460938" x="713.5493774414062" class="er relationshipLabelBox"/><text style="text-anchor: middle; dominant-baseline: middle; font-size: 12px;" y="251.35629272460938" x="733.2290649414062" id="rel19" class="er relationshipLabel">creates</text><rect height="14" width="39.359375" y="635.869873046875" x="572.8829956054688" class="er relationshipLabelBox"/><text style="text-anchor: middle; dominant-baseline: middle; font-size: 12px;" y="642.869873046875" x="592.5626831054688" id="rel20" class="er relationshipLabel">creates</text><rect height="14" width="52.03125" y="647.428955078125" x="760.0507202148438" class="er relationshipLabelBox"/><text style="text-anchor: middle; dominant-baseline: middle; font-size: 12px;" y="654.428955078125" x="786.0663452148438" id="rel21" class="er relationshipLabel">has many</text><rect height="14" width="19.359375" y="908.78955078125" x="466.79534912109375" class="er relationshipLabelBox"/><text style="text-anchor: middle; dominant-baseline: middle; font-size: 12px;" y="915.78955078125" x="476.47503662109375" id="rel22" class="er relationshipLabel">has</text></svg>