<svg aria-roledescription="er" role="graphics-document document" viewBox="0 0 848.275390625 1169" style="max-width: 848.275390625px;" xmlns="http://www.w3.org/2000/svg" width="100%" id="export-svg"><style xmlns="http://www.w3.org/1999/xhtml">@import url("https://cdnjs.cloudflare.com/ajax/libs/font-awesome/6.2.0/css/all.min.css"); p {margin: 0;}</style><style>#export-svg{font-family:"trebuchet ms",verdana,arial,sans-serif;font-size:14px;fill:#333;}#export-svg .error-icon{fill:#ffffff;}#export-svg .error-text{fill:#000000;stroke:#000000;}#export-svg .edge-thickness-normal{stroke-width:1px;}#export-svg .edge-thickness-thick{stroke-width:3.5px;}#export-svg .edge-pattern-solid{stroke-dasharray:0;}#export-svg .edge-thickness-invisible{stroke-width:0;fill:none;}#export-svg .edge-pattern-dashed{stroke-dasharray:3;}#export-svg .edge-pattern-dotted{stroke-dasharray:2;}#export-svg .marker{fill:#000000;stroke:#000000;}#export-svg .marker.cross{stroke:#000000;}#export-svg svg{font-family:"trebuchet ms",verdana,arial,sans-serif;font-size:14px;}#export-svg p{margin:0;}#export-svg .entityBox{fill:#ffffff;stroke:#000000;}#export-svg .attributeBoxOdd{fill:#ffffff;stroke:#000000;}#export-svg .attributeBoxEven{fill:#f2f2f2;stroke:#000000;}#export-svg .relationshipLabelBox{fill:#ffffff;opacity:0.7;background-color:#ffffff;}#export-svg .relationshipLabelBox rect{opacity:0.5;}#export-svg .relationshipLine{stroke:#000000;}#export-svg .entityTitleText{text-anchor:middle;font-size:18px;fill:#333;}#export-svg #MD_PARENT_START{fill:#f5f5f5!important;stroke:#000000!important;stroke-width:1;}#export-svg #MD_PARENT_END{fill:#f5f5f5!important;stroke:#000000!important;stroke-width:1;}#export-svg .node .neo-node{stroke:#000000;}#export-svg [data-look="neo"].node rect,#export-svg [data-look="neo"].cluster rect,#export-svg [data-look="neo"].node polygon{stroke:url(#export-svg-gradient);filter:drop-shadow( 0px 1px 2px rgba(0, 0, 0, 0.25));}#export-svg [data-look="neo"].node rect,#export-svg [data-look="neo"].node polygon,#export-svg [data-look="neo"].node path{stroke:url(#export-svg-gradient);filter:drop-shadow( 0px 1px 2px rgba(0, 0, 0, 0.25));}#export-svg [data-look="neo"].node .neo-line path{stroke:hsl(0, 0%, 70%);filter:none;}#export-svg [data-look="neo"].node circle{stroke:url(#export-svg-gradient);filter:drop-shadow( 0px 1px 2px rgba(0, 0, 0, 0.25));}#export-svg [data-look="neo"].node circle .state-start{fill:#000000;}#export-svg [data-look="neo"].statediagram-cluster rect{fill:#ffffff;stroke:url(#export-svg-gradient);stroke-width:1px;}#export-svg [data-look="neo"].icon-shape .icon{fill:url(#export-svg-gradient);filter:drop-shadow( 0px 1px 2px rgba(0, 0, 0, 0.25));}#export-svg [data-look="neo"].icon-shape .icon-neo path{stroke:url(#export-svg-gradient);filter:drop-shadow( 0px 1px 2px rgba(0, 0, 0, 0.25));}#export-svg :root{--mermaid-font-family:"trebuchet ms",verdana,arial,sans-serif;}</style><g/><defs><marker orient="auto" markerHeight="240" markerWidth="190" refY="7" refX="0" id="MD_PARENT_START"><path d="M 18,7 L9,13 L1,7 L9,1 Z"/></marker></defs><defs><marker orient="auto" markerHeight="28" markerWidth="20" refY="7" refX="19" id="MD_PARENT_END"><path d="M 18,7 L9,13 L1,7 L9,1 Z"/></marker></defs><defs><marker orient="auto" markerHeight="18" markerWidth="18" refY="9" refX="0" id="ONLY_ONE_START"><path d="M9,0 L9,18 M15,0 L15,18" fill="none" stroke="gray"/></marker></defs><defs><marker orient="auto" markerHeight="18" markerWidth="18" refY="9" refX="18" id="ONLY_ONE_END"><path d="M3,0 L3,18 M9,0 L9,18" fill="none" stroke="gray"/></marker></defs><defs><marker orient="auto" markerHeight="18" markerWidth="30" refY="9" refX="0" id="ZERO_OR_ONE_START"><circle r="6" cy="9" cx="21" fill="white" stroke="gray"/><path d="M9,0 L9,18" fill="none" stroke="gray"/></marker></defs><defs><marker orient="auto" markerHeight="18" markerWidth="30" refY="9" refX="30" id="ZERO_OR_ONE_END"><circle r="6" cy="9" cx="9" fill="white" stroke="gray"/><path d="M21,0 L21,18" fill="none" stroke="gray"/></marker></defs><defs><marker orient="auto" markerHeight="36" markerWidth="45" refY="18" refX="18" id="ONE_OR_MORE_START"><path d="M0,18 Q 18,0 36,18 Q 18,36 0,18 M42,9 L42,27" fill="none" stroke="gray"/></marker></defs><defs><marker orient="auto" markerHeight="36" markerWidth="45" refY="18" refX="27" id="ONE_OR_MORE_END"><path d="M3,9 L3,27 M9,18 Q27,0 45,18 Q27,36 9,18" fill="none" stroke="gray"/></marker></defs><defs><marker orient="auto" markerHeight="36" markerWidth="57" refY="18" refX="18" id="ZERO_OR_MORE_START"><circle r="6" cy="18" cx="48" fill="white" stroke="gray"/><path d="M0,18 Q18,0 36,18 Q18,36 0,18" fill="none" stroke="gray"/></marker></defs><defs><marker orient="auto" markerHeight="36" markerWidth="57" refY="18" refX="39" id="ZERO_OR_MORE_END"><circle r="6" cy="18" cx="9" fill="white" stroke="gray"/><path d="M21,18 Q39,0 57,18 Q39,36 21,18" fill="none" stroke="gray"/></marker></defs><path marker-start="url(#ONLY_ONE_START)" marker-end="url(#ONE_OR_MORE_END)" style="stroke: gray; fill: none;" d="M70,586L70,597.833C70,609.667,70,633.333,74.591,660.5C79.182,687.667,88.363,718.333,92.954,733.667L97.545,749" class="er relationshipLine"/><path marker-start="url(#ONLY_ONE_START)" marker-end="url(#ZERO_OR_MORE_END)" style="stroke: gray; fill: none;" d="M251.319,607L247.447,615.333C243.575,623.667,235.83,640.333,222.034,664C208.237,687.667,188.389,718.333,178.465,733.667L168.541,749" class="er relationshipLine"/><path marker-start="url(#ONLY_ONE_START)" marker-end="url(#ONE_OR_MORE_END)" style="stroke: gray; fill: none;" d="M316.171,607L319.504,615.333C322.837,623.667,329.504,640.333,336.983,657C344.463,673.667,352.755,690.333,356.901,698.667L361.047,707" class="er relationshipLine"/><path marker-start="url(#ONLY_ONE_START)" marker-end="url(#ZERO_OR_MORE_END)" style="stroke: gray; fill: none;" d="M582.03,149L582.03,157.333C582.03,165.667,582.03,182.333,582.03,199C582.03,215.667,582.03,232.333,582.03,240.667L582.03,249" class="er relationshipLine"/><path marker-start="url(#ZERO_OR_ONE_START)" marker-end="url(#ZERO_OR_MORE_END)" style="stroke: gray; fill: none;" d="M530.107,357L522.094,365.333C514.081,373.667,498.056,390.333,490.043,419.5C482.03,448.667,482.03,490.333,482.03,532C482.03,573.667,482.03,615.333,478.898,644.5C475.765,673.667,469.5,690.333,466.368,698.667L463.235,707" class="er relationshipLine"/><path marker-start="url(#ONLY_ONE_START)" marker-end="url(#ZERO_OR_MORE_END)" style="stroke: gray; fill: none;" d="M582.03,357L582.03,365.333C582.03,373.667,582.03,390.333,582.03,419.5C582.03,448.667,582.03,490.333,582.03,532C582.03,573.667,582.03,615.333,589.719,648C597.409,680.667,612.788,704.333,620.477,716.167L628.167,728" class="er relationshipLine"/><path marker-start="url(#ONLY_ONE_START)" marker-end="url(#ZERO_OR_MORE_END)" style="stroke: gray; fill: none;" d="M642.819,336.671L663.981,348.392C685.143,360.114,727.467,383.557,748.629,405.362C769.791,427.167,769.791,447.333,769.791,457.417L769.791,467.5" class="er relationshipLine"/><path marker-start="url(#ZERO_OR_ONE_START)" marker-end="url(#ZERO_OR_MORE_END)" style="stroke: gray; fill: none;" d="M769.791,596.5L769.791,606.583C769.791,616.667,769.791,636.833,764.176,658.75C758.561,680.667,747.331,704.333,741.716,716.167L736.101,728" class="er relationshipLine"/><path marker-start="url(#ONLY_ONE_START)" marker-end="url(#ZERO_OR_MORE_END)" style="stroke: gray; fill: none;" d="M419.256,941L419.256,949.333C419.256,957.667,419.256,974.333,424.104,992.75C428.952,1011.167,438.647,1031.333,443.495,1041.417L448.343,1051.5" class="er relationshipLine"/><path marker-start="url(#ONLY_ONE_START)" marker-end="url(#ZERO_OR_MORE_END)" style="stroke: gray; fill: none;" d="M628.167,920L620.477,931.833C612.788,943.667,597.409,967.333,578.785,989.25C560.162,1011.167,538.294,1031.333,527.36,1041.417L516.426,1051.5" class="er relationshipLine"/><path marker-start="url(#ONLY_ONE_START)" marker-end="url(#ZERO_OR_MORE_END)" style="stroke: gray; fill: none;" d="M719.291,920L722.834,931.833C726.377,943.667,733.463,967.333,737.006,987.5C740.549,1007.667,740.549,1024.333,740.549,1032.667L740.549,1041" class="er relationshipLine"/><g transform="translate(220,457 )" id="entity-JOB-689ef35c-f61f-5e8b-bf9d-457a270301e5"><rect height="150" width="132.34133911132812" y="0" x="0" class="er entityBox"/><text transform="translate(66.17066955566406,12)" style="dominant-baseline: middle; text-anchor: middle; font-size: 12px;" y="0" x="0" id="text-entity-JOB-689ef35c-f61f-5e8b-bf9d-457a270301e5" class="er entityLabel">JOB</text><rect height="21" width="49.44877624511719" y="24" x="0" class="er attributeBoxOdd"/><text transform="translate(5,34.5)" style="dominant-baseline: middle; font-size: 10.2px;" y="0" x="0" id="text-entity-JOB-689ef35c-f61f-5e8b-bf9d-457a270301e5-attr-1-type" class="er entityLabel">int</text><rect height="21" width="82.89256286621094" y="24" x="49.44877624511719" class="er attributeBoxOdd"/><text transform="translate(54.44877624511719,34.5)" style="dominant-baseline: middle; font-size: 10.2px;" y="0" x="0" id="text-entity-JOB-689ef35c-f61f-5e8b-bf9d-457a270301e5-attr-1-name" class="er entityLabel">id</text><rect height="21" width="49.44877624511719" y="45" x="0" class="er attributeBoxEven"/><text transform="translate(5,55.5)" style="dominant-baseline: middle; font-size: 10.2px;" y="0" x="0" id="text-entity-JOB-689ef35c-f61f-5e8b-bf9d-457a270301e5-attr-2-type" class="er entityLabel">int</text><rect height="21" width="82.89256286621094" y="45" x="49.44877624511719" class="er attributeBoxEven"/><text transform="translate(54.44877624511719,55.5)" style="dominant-baseline: middle; font-size: 10.2px;" y="0" x="0" id="text-entity-JOB-689ef35c-f61f-5e8b-bf9d-457a270301e5-attr-2-name" class="er entityLabel">primary_post_id</text><rect height="21" width="49.44877624511719" y="66" x="0" class="er attributeBoxOdd"/><text transform="translate(5,76.5)" style="dominant-baseline: middle; font-size: 10.2px;" y="0" x="0" id="text-entity-JOB-689ef35c-f61f-5e8b-bf9d-457a270301e5-attr-3-type" class="er entityLabel">text</text><rect height="21" width="82.89256286621094" y="66" x="49.44877624511719" class="er attributeBoxOdd"/><text transform="translate(54.44877624511719,76.5)" style="dominant-baseline: middle; font-size: 10.2px;" y="0" x="0" id="text-entity-JOB-689ef35c-f61f-5e8b-bf9d-457a270301e5-attr-3-name" class="er entityLabel">comments</text><rect height="21" width="49.44877624511719" y="87" x="0" class="er attributeBoxEven"/><text transform="translate(5,97.5)" style="dominant-baseline: middle; font-size: 10.2px;" y="0" x="0" id="text-entity-JOB-689ef35c-f61f-5e8b-bf9d-457a270301e5-attr-4-type" class="er entityLabel">datetime</text><rect height="21" width="82.89256286621094" y="87" x="49.44877624511719" class="er attributeBoxEven"/><text transform="translate(54.44877624511719,97.5)" style="dominant-baseline: middle; font-size: 10.2px;" y="0" x="0" id="text-entity-JOB-689ef35c-f61f-5e8b-bf9d-457a270301e5-attr-4-name" class="er entityLabel">created</text><rect height="21" width="49.44877624511719" y="108" x="0" class="er attributeBoxOdd"/><text transform="translate(5,118.5)" style="dominant-baseline: middle; font-size: 10.2px;" y="0" x="0" id="text-entity-JOB-689ef35c-f61f-5e8b-bf9d-457a270301e5-attr-5-type" class="er entityLabel">datetime</text><rect height="21" width="82.89256286621094" y="108" x="49.44877624511719" class="er attributeBoxOdd"/><text transform="translate(54.44877624511719,118.5)" style="dominant-baseline: middle; font-size: 10.2px;" y="0" x="0" id="text-entity-JOB-689ef35c-f61f-5e8b-bf9d-457a270301e5-attr-5-name" class="er entityLabel">modified</text><rect height="21" width="49.44877624511719" y="129" x="0" class="er attributeBoxEven"/><text transform="translate(5,139.5)" style="dominant-baseline: middle; font-size: 10.2px;" y="0" x="0" id="text-entity-JOB-689ef35c-f61f-5e8b-bf9d-457a270301e5-attr-6-type" class="er entityLabel">array</text><rect height="21" width="82.89256286621094" y="129" x="49.44877624511719" class="er attributeBoxEven"/><text transform="translate(54.44877624511719,139.5)" style="dominant-baseline: middle; font-size: 10.2px;" y="0" x="0" id="text-entity-JOB-689ef35c-f61f-5e8b-bf9d-457a270301e5-attr-6-name" class="er entityLabel">tags</text></g><g transform="translate(20,478 )" id="entity-STAGE-b3b3ae2f-3286-55e2-8698-6897421b790f"><rect height="108" width="100" y="0" x="0" class="er entityBox"/><text transform="translate(50,12)" style="dominant-baseline: middle; text-anchor: middle; font-size: 12px;" y="0" x="0" id="text-entity-STAGE-b3b3ae2f-3286-55e2-8698-6897421b790f" class="er entityLabel">STAGE</text><rect height="21" width="39.0892333984375" y="24" x="0" class="er attributeBoxOdd"/><text transform="translate(5,34.5)" style="dominant-baseline: middle; font-size: 10.2px;" y="0" x="0" id="text-entity-STAGE-b3b3ae2f-3286-55e2-8698-6897421b790f-attr-1-type" class="er entityLabel">int</text><rect height="21" width="60.9107666015625" y="24" x="39.0892333984375" class="er attributeBoxOdd"/><text transform="translate(44.0892333984375,34.5)" style="dominant-baseline: middle; font-size: 10.2px;" y="0" x="0" id="text-entity-STAGE-b3b3ae2f-3286-55e2-8698-6897421b790f-attr-1-name" class="er entityLabel">id</text><rect height="21" width="39.0892333984375" y="45" x="0" class="er attributeBoxEven"/><text transform="translate(5,55.5)" style="dominant-baseline: middle; font-size: 10.2px;" y="0" x="0" id="text-entity-STAGE-b3b3ae2f-3286-55e2-8698-6897421b790f-attr-2-type" class="er entityLabel">int</text><rect height="21" width="60.9107666015625" y="45" x="39.0892333984375" class="er attributeBoxEven"/><text transform="translate(44.0892333984375,55.5)" style="dominant-baseline: middle; font-size: 10.2px;" y="0" x="0" id="text-entity-STAGE-b3b3ae2f-3286-55e2-8698-6897421b790f-attr-2-name" class="er entityLabel">sort_order</text><rect height="21" width="39.0892333984375" y="66" x="0" class="er attributeBoxOdd"/><text transform="translate(5,76.5)" style="dominant-baseline: middle; font-size: 10.2px;" y="0" x="0" id="text-entity-STAGE-b3b3ae2f-3286-55e2-8698-6897421b790f-attr-3-type" class="er entityLabel">string</text><rect height="21" width="60.9107666015625" y="66" x="39.0892333984375" class="er attributeBoxOdd"/><text transform="translate(44.0892333984375,76.5)" style="dominant-baseline: middle; font-size: 10.2px;" y="0" x="0" id="text-entity-STAGE-b3b3ae2f-3286-55e2-8698-6897421b790f-attr-3-name" class="er entityLabel">name</text><rect height="21" width="39.0892333984375" y="87" x="0" class="er attributeBoxEven"/><text transform="translate(5,97.5)" style="dominant-baseline: middle; font-size: 10.2px;" y="0" x="0" id="text-entity-STAGE-b3b3ae2f-3286-55e2-8698-6897421b790f-attr-4-type" class="er entityLabel">string</text><rect height="21" width="60.9107666015625" y="87" x="39.0892333984375" class="er attributeBoxEven"/><text transform="translate(44.0892333984375,97.5)" style="dominant-baseline: middle; font-size: 10.2px;" y="0" x="0" id="text-entity-STAGE-b3b3ae2f-3286-55e2-8698-6897421b790f-attr-4-name" class="er entityLabel">color</text></g><g transform="translate(66.08926391601562,749 )" id="entity-JOBSTAGE-03487128-ed0d-5aac-ada4-3834bff4bc59"><rect height="150" width="107.82147216796875" y="0" x="0" class="er entityBox"/><text transform="translate(53.910736083984375,12)" style="dominant-baseline: middle; text-anchor: middle; font-size: 12px;" y="0" x="0" id="text-entity-JOBSTAGE-03487128-ed0d-5aac-ada4-3834bff4bc59" class="er entityLabel">JOB_STAGE</text><rect height="21" width="49.44877624511719" y="24" x="0" class="er attributeBoxOdd"/><text transform="translate(5,34.5)" style="dominant-baseline: middle; font-size: 10.2px;" y="0" x="0" id="text-entity-JOBSTAGE-03487128-ed0d-5aac-ada4-3834bff4bc59-attr-1-type" class="er entityLabel">int</text><rect height="21" width="58.37269592285156" y="24" x="49.44877624511719" class="er attributeBoxOdd"/><text transform="translate(54.44877624511719,34.5)" style="dominant-baseline: middle; font-size: 10.2px;" y="0" x="0" id="text-entity-JOBSTAGE-03487128-ed0d-5aac-ada4-3834bff4bc59-attr-1-name" class="er entityLabel">id</text><rect height="21" width="49.44877624511719" y="45" x="0" class="er attributeBoxEven"/><text transform="translate(5,55.5)" style="dominant-baseline: middle; font-size: 10.2px;" y="0" x="0" id="text-entity-JOBSTAGE-03487128-ed0d-5aac-ada4-3834bff4bc59-attr-2-type" class="er entityLabel">int</text><rect height="21" width="58.37269592285156" y="45" x="49.44877624511719" class="er attributeBoxEven"/><text transform="translate(54.44877624511719,55.5)" style="dominant-baseline: middle; font-size: 10.2px;" y="0" x="0" id="text-entity-JOBSTAGE-03487128-ed0d-5aac-ada4-3834bff4bc59-attr-2-name" class="er entityLabel">stage_id</text><rect height="21" width="49.44877624511719" y="66" x="0" class="er attributeBoxOdd"/><text transform="translate(5,76.5)" style="dominant-baseline: middle; font-size: 10.2px;" y="0" x="0" id="text-entity-JOBSTAGE-03487128-ed0d-5aac-ada4-3834bff4bc59-attr-3-type" class="er entityLabel">int</text><rect height="21" width="58.37269592285156" y="66" x="49.44877624511719" class="er attributeBoxOdd"/><text transform="translate(54.44877624511719,76.5)" style="dominant-baseline: middle; font-size: 10.2px;" y="0" x="0" id="text-entity-JOBSTAGE-03487128-ed0d-5aac-ada4-3834bff4bc59-attr-3-name" class="er entityLabel">job_id</text><rect height="21" width="49.44877624511719" y="87" x="0" class="er attributeBoxEven"/><text transform="translate(5,97.5)" style="dominant-baseline: middle; font-size: 10.2px;" y="0" x="0" id="text-entity-JOBSTAGE-03487128-ed0d-5aac-ada4-3834bff4bc59-attr-4-type" class="er entityLabel">datetime</text><rect height="21" width="58.37269592285156" y="87" x="49.44877624511719" class="er attributeBoxEven"/><text transform="translate(54.44877624511719,97.5)" style="dominant-baseline: middle; font-size: 10.2px;" y="0" x="0" id="text-entity-JOBSTAGE-03487128-ed0d-5aac-ada4-3834bff4bc59-attr-4-name" class="er entityLabel">timestamp</text><rect height="21" width="49.44877624511719" y="108" x="0" class="er attributeBoxOdd"/><text transform="translate(5,118.5)" style="dominant-baseline: middle; font-size: 10.2px;" y="0" x="0" id="text-entity-JOBSTAGE-03487128-ed0d-5aac-ada4-3834bff4bc59-attr-5-type" class="er entityLabel">text</text><rect height="21" width="58.37269592285156" y="108" x="49.44877624511719" class="er attributeBoxOdd"/><text transform="translate(54.44877624511719,118.5)" style="dominant-baseline: middle; font-size: 10.2px;" y="0" x="0" id="text-entity-JOBSTAGE-03487128-ed0d-5aac-ada4-3834bff4bc59-attr-5-name" class="er entityLabel">comment</text><rect height="21" width="49.44877624511719" y="129" x="0" class="er attributeBoxEven"/><text transform="translate(5,139.5)" style="dominant-baseline: middle; font-size: 10.2px;" y="0" x="0" id="text-entity-JOBSTAGE-03487128-ed0d-5aac-ada4-3834bff4bc59-attr-6-type" class="er entityLabel">string</text><rect height="21" width="58.37269592285156" y="129" x="49.44877624511719" class="er attributeBoxEven"/><text transform="translate(54.44877624511719,139.5)" style="dominant-baseline: middle; font-size: 10.2px;" y="0" x="0" id="text-entity-JOBSTAGE-03487128-ed0d-5aac-ada4-3834bff4bc59-attr-6-name" class="er entityLabel">url</text></g><g transform="translate(357.8939666748047,707 )" id="entity-POST-dedb1204-6961-5504-b717-5f982e5d0300"><rect height="234" width="122.72407531738281" y="0" x="0" class="er entityBox"/><text transform="translate(61.362037658691406,12)" style="dominant-baseline: middle; text-anchor: middle; font-size: 12px;" y="0" x="0" id="text-entity-POST-dedb1204-6961-5504-b717-5f982e5d0300" class="er entityLabel">POST</text><rect height="21" width="49.44877624511719" y="24" x="0" class="er attributeBoxOdd"/><text transform="translate(5,34.5)" style="dominant-baseline: middle; font-size: 10.2px;" y="0" x="0" id="text-entity-POST-dedb1204-6961-5504-b717-5f982e5d0300-attr-1-type" class="er entityLabel">int</text><rect height="21" width="73.27529907226562" y="24" x="49.44877624511719" class="er attributeBoxOdd"/><text transform="translate(54.44877624511719,34.5)" style="dominant-baseline: middle; font-size: 10.2px;" y="0" x="0" id="text-entity-POST-dedb1204-6961-5504-b717-5f982e5d0300-attr-1-name" class="er entityLabel">id</text><rect height="21" width="49.44877624511719" y="45" x="0" class="er attributeBoxEven"/><text transform="translate(5,55.5)" style="dominant-baseline: middle; font-size: 10.2px;" y="0" x="0" id="text-entity-POST-dedb1204-6961-5504-b717-5f982e5d0300-attr-2-type" class="er entityLabel">int</text><rect height="21" width="73.27529907226562" y="45" x="49.44877624511719" class="er attributeBoxEven"/><text transform="translate(54.44877624511719,55.5)" style="dominant-baseline: middle; font-size: 10.2px;" y="0" x="0" id="text-entity-POST-dedb1204-6961-5504-b717-5f982e5d0300-attr-2-name" class="er entityLabel">job_id</text><rect height="21" width="49.44877624511719" y="66" x="0" class="er attributeBoxOdd"/><text transform="translate(5,76.5)" style="dominant-baseline: middle; font-size: 10.2px;" y="0" x="0" id="text-entity-POST-dedb1204-6961-5504-b717-5f982e5d0300-attr-3-type" class="er entityLabel">int</text><rect height="21" width="73.27529907226562" y="66" x="49.44877624511719" class="er attributeBoxOdd"/><text transform="translate(54.44877624511719,76.5)" style="dominant-baseline: middle; font-size: 10.2px;" y="0" x="0" id="text-entity-POST-dedb1204-6961-5504-b717-5f982e5d0300-attr-3-name" class="er entityLabel">connection_id</text><rect height="21" width="49.44877624511719" y="87" x="0" class="er attributeBoxEven"/><text transform="translate(5,97.5)" style="dominant-baseline: middle; font-size: 10.2px;" y="0" x="0" id="text-entity-POST-dedb1204-6961-5504-b717-5f982e5d0300-attr-4-type" class="er entityLabel">string</text><rect height="21" width="73.27529907226562" y="87" x="49.44877624511719" class="er attributeBoxEven"/><text transform="translate(54.44877624511719,97.5)" style="dominant-baseline: middle; font-size: 10.2px;" y="0" x="0" id="text-entity-POST-dedb1204-6961-5504-b717-5f982e5d0300-attr-4-name" class="er entityLabel">url</text><rect height="21" width="49.44877624511719" y="108" x="0" class="er attributeBoxOdd"/><text transform="translate(5,118.5)" style="dominant-baseline: middle; font-size: 10.2px;" y="0" x="0" id="text-entity-POST-dedb1204-6961-5504-b717-5f982e5d0300-attr-5-type" class="er entityLabel">string</text><rect height="21" width="73.27529907226562" y="108" x="49.44877624511719" class="er attributeBoxOdd"/><text transform="translate(54.44877624511719,118.5)" style="dominant-baseline: middle; font-size: 10.2px;" y="0" x="0" id="text-entity-POST-dedb1204-6961-5504-b717-5f982e5d0300-attr-5-name" class="er entityLabel">company</text><rect height="21" width="49.44877624511719" y="129" x="0" class="er attributeBoxEven"/><text transform="translate(5,139.5)" style="dominant-baseline: middle; font-size: 10.2px;" y="0" x="0" id="text-entity-POST-dedb1204-6961-5504-b717-5f982e5d0300-attr-6-type" class="er entityLabel">string</text><rect height="21" width="73.27529907226562" y="129" x="49.44877624511719" class="er attributeBoxEven"/><text transform="translate(54.44877624511719,139.5)" style="dominant-baseline: middle; font-size: 10.2px;" y="0" x="0" id="text-entity-POST-dedb1204-6961-5504-b717-5f982e5d0300-attr-6-name" class="er entityLabel">title</text><rect height="21" width="49.44877624511719" y="150" x="0" class="er attributeBoxOdd"/><text transform="translate(5,160.5)" style="dominant-baseline: middle; font-size: 10.2px;" y="0" x="0" id="text-entity-POST-dedb1204-6961-5504-b717-5f982e5d0300-attr-7-type" class="er entityLabel">string</text><rect height="21" width="73.27529907226562" y="150" x="49.44877624511719" class="er attributeBoxOdd"/><text transform="translate(54.44877624511719,160.5)" style="dominant-baseline: middle; font-size: 10.2px;" y="0" x="0" id="text-entity-POST-dedb1204-6961-5504-b717-5f982e5d0300-attr-7-name" class="er entityLabel">description</text><rect height="21" width="49.44877624511719" y="171" x="0" class="er attributeBoxEven"/><text transform="translate(5,181.5)" style="dominant-baseline: middle; font-size: 10.2px;" y="0" x="0" id="text-entity-POST-dedb1204-6961-5504-b717-5f982e5d0300-attr-8-type" class="er entityLabel">string</text><rect height="21" width="73.27529907226562" y="171" x="49.44877624511719" class="er attributeBoxEven"/><text transform="translate(54.44877624511719,181.5)" style="dominant-baseline: middle; font-size: 10.2px;" y="0" x="0" id="text-entity-POST-dedb1204-6961-5504-b717-5f982e5d0300-attr-8-name" class="er entityLabel">location</text><rect height="21" width="49.44877624511719" y="192" x="0" class="er attributeBoxOdd"/><text transform="translate(5,202.5)" style="dominant-baseline: middle; font-size: 10.2px;" y="0" x="0" id="text-entity-POST-dedb1204-6961-5504-b717-5f982e5d0300-attr-9-type" class="er entityLabel">datetime</text><rect height="21" width="73.27529907226562" y="192" x="49.44877624511719" class="er attributeBoxOdd"/><text transform="translate(54.44877624511719,202.5)" style="dominant-baseline: middle; font-size: 10.2px;" y="0" x="0" id="text-entity-POST-dedb1204-6961-5504-b717-5f982e5d0300-attr-9-name" class="er entityLabel">created</text><rect height="21" width="49.44877624511719" y="213" x="0" class="er attributeBoxEven"/><text transform="translate(5,223.5)" style="dominant-baseline: middle; font-size: 10.2px;" y="0" x="0" id="text-entity-POST-dedb1204-6961-5504-b717-5f982e5d0300-attr-10-type" class="er entityLabel">datetime</text><rect height="21" width="73.27529907226562" y="213" x="49.44877624511719" class="er attributeBoxEven"/><text transform="translate(54.44877624511719,223.5)" style="dominant-baseline: middle; font-size: 10.2px;" y="0" x="0" id="text-entity-POST-dedb1204-6961-5504-b717-5f982e5d0300-attr-10-name" class="er entityLabel">modified</text></g><g transform="translate(524.9287490844727,20 )" id="entity-CONNECTOR-145c89f3-1c45-5eec-96c8-7fa697a33332"><rect height="129" width="114.20249938964844" y="0" x="0" class="er entityBox"/><text transform="translate(57.10124969482422,12)" style="dominant-baseline: middle; text-anchor: middle; font-size: 12px;" y="0" x="0" id="text-entity-CONNECTOR-145c89f3-1c45-5eec-96c8-7fa697a33332" class="er entityLabel">CONNECTOR</text><rect height="21" width="35.26939392089844" y="24" x="0" class="er attributeBoxOdd"/><text transform="translate(5,34.5)" style="dominant-baseline: middle; font-size: 10.2px;" y="0" x="0" id="text-entity-CONNECTOR-145c89f3-1c45-5eec-96c8-7fa697a33332-attr-1-type" class="er entityLabel">string</text><rect height="21" width="78.93310546875" y="24" x="35.26939392089844" class="er attributeBoxOdd"/><text transform="translate(40.26939392089844,34.5)" style="dominant-baseline: middle; font-size: 10.2px;" y="0" x="0" id="text-entity-CONNECTOR-145c89f3-1c45-5eec-96c8-7fa697a33332-attr-1-name" class="er entityLabel">name</text><rect height="21" width="35.26939392089844" y="45" x="0" class="er attributeBoxEven"/><text transform="translate(5,55.5)" style="dominant-baseline: middle; font-size: 10.2px;" y="0" x="0" id="text-entity-CONNECTOR-145c89f3-1c45-5eec-96c8-7fa697a33332-attr-2-type" class="er entityLabel">string</text><rect height="21" width="78.93310546875" y="45" x="35.26939392089844" class="er attributeBoxEven"/><text transform="translate(40.26939392089844,55.5)" style="dominant-baseline: middle; font-size: 10.2px;" y="0" x="0" id="text-entity-CONNECTOR-145c89f3-1c45-5eec-96c8-7fa697a33332-attr-2-name" class="er entityLabel">version</text><rect height="21" width="35.26939392089844" y="66" x="0" class="er attributeBoxOdd"/><text transform="translate(5,76.5)" style="dominant-baseline: middle; font-size: 10.2px;" y="0" x="0" id="text-entity-CONNECTOR-145c89f3-1c45-5eec-96c8-7fa697a33332-attr-3-type" class="er entityLabel">string</text><rect height="21" width="78.93310546875" y="66" x="35.26939392089844" class="er attributeBoxOdd"/><text transform="translate(40.26939392089844,76.5)" style="dominant-baseline: middle; font-size: 10.2px;" y="0" x="0" id="text-entity-CONNECTOR-145c89f3-1c45-5eec-96c8-7fa697a33332-attr-3-name" class="er entityLabel">description</text><rect height="21" width="35.26939392089844" y="87" x="0" class="er attributeBoxEven"/><text transform="translate(5,97.5)" style="dominant-baseline: middle; font-size: 10.2px;" y="0" x="0" id="text-entity-CONNECTOR-145c89f3-1c45-5eec-96c8-7fa697a33332-attr-4-type" class="er entityLabel">json</text><rect height="21" width="78.93310546875" y="87" x="35.26939392089844" class="er attributeBoxEven"/><text transform="translate(40.26939392089844,97.5)" style="dominant-baseline: middle; font-size: 10.2px;" y="0" x="0" id="text-entity-CONNECTOR-145c89f3-1c45-5eec-96c8-7fa697a33332-attr-4-name" class="er entityLabel">config_schema</text><rect height="21" width="35.26939392089844" y="108" x="0" class="er attributeBoxOdd"/><text transform="translate(5,118.5)" style="dominant-baseline: middle; font-size: 10.2px;" y="0" x="0" id="text-entity-CONNECTOR-145c89f3-1c45-5eec-96c8-7fa697a33332-attr-5-type" class="er entityLabel">json</text><rect height="21" width="78.93310546875" y="108" x="35.26939392089844" class="er attributeBoxOdd"/><text transform="translate(40.26939392089844,118.5)" style="dominant-baseline: middle; font-size: 10.2px;" y="0" x="0" id="text-entity-CONNECTOR-145c89f3-1c45-5eec-96c8-7fa697a33332-attr-5-name" class="er entityLabel">query_schema</text></g><g transform="translate(521.24072265625,249 )" id="entity-CONNECTION-b5526f05-21fa-56a1-98ce-b2cc78839c90"><rect height="108" width="121.57855224609375" y="0" x="0" class="er entityBox"/><text transform="translate(60.789276123046875,12)" style="dominant-baseline: middle; text-anchor: middle; font-size: 12px;" y="0" x="0" id="text-entity-CONNECTION-b5526f05-21fa-56a1-98ce-b2cc78839c90" class="er entityLabel">CONNECTION</text><rect height="21" width="35.26939392089844" y="24" x="0" class="er attributeBoxOdd"/><text transform="translate(5,34.5)" style="dominant-baseline: middle; font-size: 10.2px;" y="0" x="0" id="text-entity-CONNECTION-b5526f05-21fa-56a1-98ce-b2cc78839c90-attr-1-type" class="er entityLabel">int</text><rect height="21" width="86.30915832519531" y="24" x="35.26939392089844" class="er attributeBoxOdd"/><text transform="translate(40.26939392089844,34.5)" style="dominant-baseline: middle; font-size: 10.2px;" y="0" x="0" id="text-entity-CONNECTION-b5526f05-21fa-56a1-98ce-b2cc78839c90-attr-1-name" class="er entityLabel">id</text><rect height="21" width="35.26939392089844" y="45" x="0" class="er attributeBoxEven"/><text transform="translate(5,55.5)" style="dominant-baseline: middle; font-size: 10.2px;" y="0" x="0" id="text-entity-CONNECTION-b5526f05-21fa-56a1-98ce-b2cc78839c90-attr-2-type" class="er entityLabel">string</text><rect height="21" width="86.30915832519531" y="45" x="35.26939392089844" class="er attributeBoxEven"/><text transform="translate(40.26939392089844,55.5)" style="dominant-baseline: middle; font-size: 10.2px;" y="0" x="0" id="text-entity-CONNECTION-b5526f05-21fa-56a1-98ce-b2cc78839c90-attr-2-name" class="er entityLabel">connector_name</text><rect height="21" width="35.26939392089844" y="66" x="0" class="er attributeBoxOdd"/><text transform="translate(5,76.5)" style="dominant-baseline: middle; font-size: 10.2px;" y="0" x="0" id="text-entity-CONNECTION-b5526f05-21fa-56a1-98ce-b2cc78839c90-attr-3-type" class="er entityLabel">string</text><rect height="21" width="86.30915832519531" y="66" x="35.26939392089844" class="er attributeBoxOdd"/><text transform="translate(40.26939392089844,76.5)" style="dominant-baseline: middle; font-size: 10.2px;" y="0" x="0" id="text-entity-CONNECTION-b5526f05-21fa-56a1-98ce-b2cc78839c90-attr-3-name" class="er entityLabel">name</text><rect height="21" width="35.26939392089844" y="87" x="0" class="er attributeBoxEven"/><text transform="translate(5,97.5)" style="dominant-baseline: middle; font-size: 10.2px;" y="0" x="0" id="text-entity-CONNECTION-b5526f05-21fa-56a1-98ce-b2cc78839c90-attr-4-type" class="er entityLabel">json</text><rect height="21" width="86.30915832519531" y="87" x="35.26939392089844" class="er attributeBoxEven"/><text transform="translate(40.26939392089844,97.5)" style="dominant-baseline: middle; font-size: 10.2px;" y="0" x="0" id="text-entity-CONNECTION-b5526f05-21fa-56a1-98ce-b2cc78839c90-attr-4-name" class="er entityLabel">config</text></g><g transform="translate(711.3066558837891,467.5 )" id="entity-SCHEDULE-d5aa4656-01eb-57f0-9eed-befe12843b9b"><rect height="129" width="116.96875" y="0" x="0" class="er entityBox"/><text transform="translate(58.484375,12)" style="dominant-baseline: middle; text-anchor: middle; font-size: 12px;" y="0" x="0" id="text-entity-SCHEDULE-d5aa4656-01eb-57f0-9eed-befe12843b9b" class="er entityLabel">SCHEDULE</text><rect height="21" width="42.890625" y="24" x="0" class="er attributeBoxOdd"/><text transform="translate(5,34.5)" style="dominant-baseline: middle; font-size: 10.2px;" y="0" x="0" id="text-entity-SCHEDULE-d5aa4656-01eb-57f0-9eed-befe12843b9b-attr-1-type" class="er entityLabel">int</text><rect height="21" width="74.078125" y="24" x="42.890625" class="er attributeBoxOdd"/><text transform="translate(47.890625,34.5)" style="dominant-baseline: middle; font-size: 10.2px;" y="0" x="0" id="text-entity-SCHEDULE-d5aa4656-01eb-57f0-9eed-befe12843b9b-attr-1-name" class="er entityLabel">id</text><rect height="21" width="42.890625" y="45" x="0" class="er attributeBoxEven"/><text transform="translate(5,55.5)" style="dominant-baseline: middle; font-size: 10.2px;" y="0" x="0" id="text-entity-SCHEDULE-d5aa4656-01eb-57f0-9eed-befe12843b9b-attr-2-type" class="er entityLabel">int</text><rect height="21" width="74.078125" y="45" x="42.890625" class="er attributeBoxEven"/><text transform="translate(47.890625,55.5)" style="dominant-baseline: middle; font-size: 10.2px;" y="0" x="0" id="text-entity-SCHEDULE-d5aa4656-01eb-57f0-9eed-befe12843b9b-attr-2-name" class="er entityLabel">connection_id</text><rect height="21" width="42.890625" y="66" x="0" class="er attributeBoxOdd"/><text transform="translate(5,76.5)" style="dominant-baseline: middle; font-size: 10.2px;" y="0" x="0" id="text-entity-SCHEDULE-d5aa4656-01eb-57f0-9eed-befe12843b9b-attr-3-type" class="er entityLabel">bool</text><rect height="21" width="74.078125" y="66" x="42.890625" class="er attributeBoxOdd"/><text transform="translate(47.890625,76.5)" style="dominant-baseline: middle; font-size: 10.2px;" y="0" x="0" id="text-entity-SCHEDULE-d5aa4656-01eb-57f0-9eed-befe12843b9b-attr-3-name" class="er entityLabel">enabled</text><rect height="21" width="42.890625" y="87" x="0" class="er attributeBoxEven"/><text transform="translate(5,97.5)" style="dominant-baseline: middle; font-size: 10.2px;" y="0" x="0" id="text-entity-SCHEDULE-d5aa4656-01eb-57f0-9eed-befe12843b9b-attr-4-type" class="er entityLabel">interval</text><rect height="21" width="74.078125" y="87" x="42.890625" class="er attributeBoxEven"/><text transform="translate(47.890625,97.5)" style="dominant-baseline: middle; font-size: 10.2px;" y="0" x="0" id="text-entity-SCHEDULE-d5aa4656-01eb-57f0-9eed-befe12843b9b-attr-4-name" class="er entityLabel">query_interval</text><rect height="21" width="42.890625" y="108" x="0" class="er attributeBoxOdd"/><text transform="translate(5,118.5)" style="dominant-baseline: middle; font-size: 10.2px;" y="0" x="0" id="text-entity-SCHEDULE-d5aa4656-01eb-57f0-9eed-befe12843b9b-attr-5-type" class="er entityLabel">json</text><rect height="21" width="74.078125" y="108" x="42.890625" class="er attributeBoxOdd"/><text transform="translate(47.890625,118.5)" style="dominant-baseline: middle; font-size: 10.2px;" y="0" x="0" id="text-entity-SCHEDULE-d5aa4656-01eb-57f0-9eed-befe12843b9b-attr-5-name" class="er entityLabel">query</text></g><g transform="translate(626.3628921508789,728 )" id="entity-QUERY-e2d2dc0d-ae0a-5938-a9d1-e6e05bf81a37"><rect height="192" width="128.3719024658203" y="0" x="0" class="er entityBox"/><text transform="translate(64.18595123291016,12)" style="dominant-baseline: middle; text-anchor: middle; font-size: 12px;" y="0" x="0" id="text-entity-QUERY-e2d2dc0d-ae0a-5938-a9d1-e6e05bf81a37" class="er entityLabel">QUERY</text><rect height="21" width="49.44877624511719" y="24" x="0" class="er attributeBoxOdd"/><text transform="translate(5,34.5)" style="dominant-baseline: middle; font-size: 10.2px;" y="0" x="0" id="text-entity-QUERY-e2d2dc0d-ae0a-5938-a9d1-e6e05bf81a37-attr-1-type" class="er entityLabel">int</text><rect height="21" width="78.92312622070312" y="24" x="49.44877624511719" class="er attributeBoxOdd"/><text transform="translate(54.44877624511719,34.5)" style="dominant-baseline: middle; font-size: 10.2px;" y="0" x="0" id="text-entity-QUERY-e2d2dc0d-ae0a-5938-a9d1-e6e05bf81a37-attr-1-name" class="er entityLabel">id</text><rect height="21" width="49.44877624511719" y="45" x="0" class="er attributeBoxEven"/><text transform="translate(5,55.5)" style="dominant-baseline: middle; font-size: 10.2px;" y="0" x="0" id="text-entity-QUERY-e2d2dc0d-ae0a-5938-a9d1-e6e05bf81a37-attr-2-type" class="er entityLabel">int</text><rect height="21" width="78.92312622070312" y="45" x="49.44877624511719" class="er attributeBoxEven"/><text transform="translate(54.44877624511719,55.5)" style="dominant-baseline: middle; font-size: 10.2px;" y="0" x="0" id="text-entity-QUERY-e2d2dc0d-ae0a-5938-a9d1-e6e05bf81a37-attr-2-name" class="er entityLabel">schedule_id</text><rect height="21" width="49.44877624511719" y="66" x="0" class="er attributeBoxOdd"/><text transform="translate(5,76.5)" style="dominant-baseline: middle; font-size: 10.2px;" y="0" x="0" id="text-entity-QUERY-e2d2dc0d-ae0a-5938-a9d1-e6e05bf81a37-attr-3-type" class="er entityLabel">int</text><rect height="21" width="78.92312622070312" y="66" x="49.44877624511719" class="er attributeBoxOdd"/><text transform="translate(54.44877624511719,76.5)" style="dominant-baseline: middle; font-size: 10.2px;" y="0" x="0" id="text-entity-QUERY-e2d2dc0d-ae0a-5938-a9d1-e6e05bf81a37-attr-3-name" class="er entityLabel">connection_id</text><rect height="21" width="49.44877624511719" y="87" x="0" class="er attributeBoxEven"/><text transform="translate(5,97.5)" style="dominant-baseline: middle; font-size: 10.2px;" y="0" x="0" id="text-entity-QUERY-e2d2dc0d-ae0a-5938-a9d1-e6e05bf81a37-attr-4-type" class="er entityLabel">datetime</text><rect height="21" width="78.92312622070312" y="87" x="49.44877624511719" class="er attributeBoxEven"/><text transform="translate(54.44877624511719,97.5)" style="dominant-baseline: middle; font-size: 10.2px;" y="0" x="0" id="text-entity-QUERY-e2d2dc0d-ae0a-5938-a9d1-e6e05bf81a37-attr-4-name" class="er entityLabel">created</text><rect height="21" width="49.44877624511719" y="108" x="0" class="er attributeBoxOdd"/><text transform="translate(5,118.5)" style="dominant-baseline: middle; font-size: 10.2px;" y="0" x="0" id="text-entity-QUERY-e2d2dc0d-ae0a-5938-a9d1-e6e05bf81a37-attr-5-type" class="er entityLabel">datetime</text><rect height="21" width="78.92312622070312" y="108" x="49.44877624511719" class="er attributeBoxOdd"/><text transform="translate(54.44877624511719,118.5)" style="dominant-baseline: middle; font-size: 10.2px;" y="0" x="0" id="text-entity-QUERY-e2d2dc0d-ae0a-5938-a9d1-e6e05bf81a37-attr-5-name" class="er entityLabel">started</text><rect height="21" width="49.44877624511719" y="129" x="0" class="er attributeBoxEven"/><text transform="translate(5,139.5)" style="dominant-baseline: middle; font-size: 10.2px;" y="0" x="0" id="text-entity-QUERY-e2d2dc0d-ae0a-5938-a9d1-e6e05bf81a37-attr-6-type" class="er entityLabel">datetime</text><rect height="21" width="78.92312622070312" y="129" x="49.44877624511719" class="er attributeBoxEven"/><text transform="translate(54.44877624511719,139.5)" style="dominant-baseline: middle; font-size: 10.2px;" y="0" x="0" id="text-entity-QUERY-e2d2dc0d-ae0a-5938-a9d1-e6e05bf81a37-attr-6-name" class="er entityLabel">ended</text><rect height="21" width="49.44877624511719" y="150" x="0" class="er attributeBoxOdd"/><text transform="translate(5,160.5)" style="dominant-baseline: middle; font-size: 10.2px;" y="0" x="0" id="text-entity-QUERY-e2d2dc0d-ae0a-5938-a9d1-e6e05bf81a37-attr-7-type" class="er entityLabel">string</text><rect height="21" width="78.92312622070312" y="150" x="49.44877624511719" class="er attributeBoxOdd"/><text transform="translate(54.44877624511719,160.5)" style="dominant-baseline: middle; font-size: 10.2px;" y="0" x="0" id="text-entity-QUERY-e2d2dc0d-ae0a-5938-a9d1-e6e05bf81a37-attr-7-name" class="er entityLabel">error_message</text><rect height="21" width="49.44877624511719" y="171" x="0" class="er attributeBoxEven"/><text transform="translate(5,181.5)" style="dominant-baseline: middle; font-size: 10.2px;" y="0" x="0" id="text-entity-QUERY-e2d2dc0d-ae0a-5938-a9d1-e6e05bf81a37-attr-8-type" class="er entityLabel">json</text><rect height="21" width="78.92312622070312" y="171" x="49.44877624511719" class="er attributeBoxEven"/><text transform="translate(54.44877624511719,181.5)" style="dominant-baseline: middle; font-size: 10.2px;" y="0" x="0" id="text-entity-QUERY-e2d2dc0d-ae0a-5938-a9d1-e6e05bf81a37-attr-8-name" class="er entityLabel">query</text></g><g transform="translate(406.1290512084961,1051.5 )" id="entity-QUERYRESULT-ec1f6df9-1e6f-5450-999e-a33d53cb7e9c"><rect height="87" width="126.25390625" y="0" x="0" class="er entityBox"/><text transform="translate(63.126953125,12)" style="dominant-baseline: middle; text-anchor: middle; font-size: 12px;" y="0" x="0" id="text-entity-QUERYRESULT-ec1f6df9-1e6f-5450-999e-a33d53cb7e9c" class="er entityLabel">QUERY_RESULT</text><rect height="21" width="48.8695068359375" y="24" x="0" class="er attributeBoxOdd"/><text transform="translate(5,34.5)" style="dominant-baseline: middle; font-size: 10.2px;" y="0" x="0" id="text-entity-QUERYRESULT-ec1f6df9-1e6f-5450-999e-a33d53cb7e9c-attr-1-type" class="er entityLabel">int</text><rect height="21" width="77.3843994140625" y="24" x="48.8695068359375" class="er attributeBoxOdd"/><text transform="translate(53.8695068359375,34.5)" style="dominant-baseline: middle; font-size: 10.2px;" y="0" x="0" id="text-entity-QUERYRESULT-ec1f6df9-1e6f-5450-999e-a33d53cb7e9c-attr-1-name" class="er entityLabel">id</text><rect height="21" width="48.8695068359375" y="45" x="0" class="er attributeBoxEven"/><text transform="translate(5,55.5)" style="dominant-baseline: middle; font-size: 10.2px;" y="0" x="0" id="text-entity-QUERYRESULT-ec1f6df9-1e6f-5450-999e-a33d53cb7e9c-attr-2-type" class="er entityLabel">int</text><rect height="21" width="77.3843994140625" y="45" x="48.8695068359375" class="er attributeBoxEven"/><text transform="translate(53.8695068359375,55.5)" style="dominant-baseline: middle; font-size: 10.2px;" y="0" x="0" id="text-entity-QUERYRESULT-ec1f6df9-1e6f-5450-999e-a33d53cb7e9c-attr-2-name" class="er entityLabel">query_id</text><rect height="21" width="48.8695068359375" y="66" x="0" class="er attributeBoxOdd"/><text transform="translate(5,76.5)" style="dominant-baseline: middle; font-size: 10.2px;" y="0" x="0" id="text-entity-QUERYRESULT-ec1f6df9-1e6f-5450-999e-a33d53cb7e9c-attr-3-type" class="er entityLabel">int</text><rect height="21" width="77.3843994140625" y="66" x="48.8695068359375" class="er attributeBoxOdd"/><text transform="translate(53.8695068359375,76.5)" style="dominant-baseline: middle; font-size: 10.2px;" y="0" x="0" id="text-entity-QUERYRESULT-ec1f6df9-1e6f-5450-999e-a33d53cb7e9c-attr-3-name" class="er entityLabel">post_id</text></g><g transform="translate(686.6381072998047,1041 )" id="entity-QUERYLOG-69362357-6d2f-5ba9-bc71-5d168188a58d"><rect height="108" width="107.82147216796875" y="0" x="0" class="er entityBox"/><text transform="translate(53.910736083984375,12)" style="dominant-baseline: middle; text-anchor: middle; font-size: 12px;" y="0" x="0" id="text-entity-QUERYLOG-69362357-6d2f-5ba9-bc71-5d168188a58d" class="er entityLabel">QUERY_LOG</text><rect height="21" width="49.44877624511719" y="24" x="0" class="er attributeBoxOdd"/><text transform="translate(5,34.5)" style="dominant-baseline: middle; font-size: 10.2px;" y="0" x="0" id="text-entity-QUERYLOG-69362357-6d2f-5ba9-bc71-5d168188a58d-attr-1-type" class="er entityLabel">int</text><rect height="21" width="58.37269592285156" y="24" x="49.44877624511719" class="er attributeBoxOdd"/><text transform="translate(54.44877624511719,34.5)" style="dominant-baseline: middle; font-size: 10.2px;" y="0" x="0" id="text-entity-QUERYLOG-69362357-6d2f-5ba9-bc71-5d168188a58d-attr-1-name" class="er entityLabel">id</text><rect height="21" width="49.44877624511719" y="45" x="0" class="er attributeBoxEven"/><text transform="translate(5,55.5)" style="dominant-baseline: middle; font-size: 10.2px;" y="0" x="0" id="text-entity-QUERYLOG-69362357-6d2f-5ba9-bc71-5d168188a58d-attr-2-type" class="er entityLabel">int</text><rect height="21" width="58.37269592285156" y="45" x="49.44877624511719" class="er attributeBoxEven"/><text transform="translate(54.44877624511719,55.5)" style="dominant-baseline: middle; font-size: 10.2px;" y="0" x="0" id="text-entity-QUERYLOG-69362357-6d2f-5ba9-bc71-5d168188a58d-attr-2-name" class="er entityLabel">query_id</text><rect height="21" width="49.44877624511719" y="66" x="0" class="er attributeBoxOdd"/><text transform="translate(5,76.5)" style="dominant-baseline: middle; font-size: 10.2px;" y="0" x="0" id="text-entity-QUERYLOG-69362357-6d2f-5ba9-bc71-5d168188a58d-attr-3-type" class="er entityLabel">datetime</text><rect height="21" width="58.37269592285156" y="66" x="49.44877624511719" class="er attributeBoxOdd"/><text transform="translate(54.44877624511719,76.5)" style="dominant-baseline: middle; font-size: 10.2px;" y="0" x="0" id="text-entity-QUERYLOG-69362357-6d2f-5ba9-bc71-5d168188a58d-attr-3-name" class="er entityLabel">timestamp</text><rect height="21" width="49.44877624511719" y="87" x="0" class="er attributeBoxEven"/><text transform="translate(5,97.5)" style="dominant-baseline: middle; font-size: 10.2px;" y="0" x="0" id="text-entity-QUERYLOG-69362357-6d2f-5ba9-bc71-5d168188a58d-attr-4-type" class="er entityLabel">text</text><rect height="21" width="58.37269592285156" y="87" x="49.44877624511719" class="er attributeBoxEven"/><text transform="translate(54.44877624511719,97.5)" style="dominant-baseline: middle; font-size: 10.2px;" y="0" x="0" id="text-entity-QUERYLOG-69362357-6d2f-5ba9-bc71-5d168188a58d-attr-4-name" class="er entityLabel">message</text></g><rect height="0" width="0" y="668.7340698242188" x="76.09697723388672" class="er relationshipLabelBox"/><text style="text-anchor: middle; dominant-baseline: middle; font-size: 12px;" y="668.7340698242188" x="76.09697723388672" id="rel23" class="er relationshipLabel"/><rect height="0" width="0" y="679.5892333984375" x="212.71299743652344" class="er relationshipLabelBox"/><text style="text-anchor: middle; dominant-baseline: middle; font-size: 12px;" y="679.5892333984375" x="212.71299743652344" id="rel24" class="er relationshipLabel"/><rect height="0" width="0" y="657.606689453125" x="337.2561950683594" class="er relationshipLabelBox"/><text style="text-anchor: middle; dominant-baseline: middle; font-size: 12px;" y="657.606689453125" x="337.2561950683594" id="rel25" class="er relationshipLabel"/><rect height="0" width="0" y="199" x="582.030029296875" class="er relationshipLabelBox"/><text style="text-anchor: middle; dominant-baseline: middle; font-size: 12px;" y="199" x="582.030029296875" id="rel26" class="er relationshipLabel"/><rect height="0" width="0" y="526.467529296875" x="482.0314025878906" class="er relationshipLabelBox"/><text style="text-anchor: middle; dominant-baseline: middle; font-size: 12px;" y="526.467529296875" x="482.0314025878906" id="rel27" class="er relationshipLabel"/><rect height="0" width="0" y="547.4022827148438" x="582.044677734375" class="er relationshipLabelBox"/><text style="text-anchor: middle; dominant-baseline: middle; font-size: 12px;" y="547.4022827148438" x="582.044677734375" id="rel28" class="er relationshipLabel"/><rect height="0" width="0" y="386.53118896484375" x="726.2237548828125" class="er relationshipLabelBox"/><text style="text-anchor: middle; dominant-baseline: middle; font-size: 12px;" y="386.53118896484375" x="726.2237548828125" id="rel29" class="er relationshipLabel"/><rect height="0" width="0" y="664.603515625" x="762.5595092773438" class="er relationshipLabelBox"/><text style="text-anchor: middle; dominant-baseline: middle; font-size: 12px;" y="664.603515625" x="762.5595092773438" id="rel30" class="er relationshipLabel"/><rect height="0" width="0" y="998.2802734375" x="425.6838684082031" class="er relationshipLabelBox"/><text style="text-anchor: middle; dominant-baseline: middle; font-size: 12px;" y="998.2802734375" x="425.6838684082031" id="rel31" class="er relationshipLabel"/><rect height="0" width="0" y="990.4105224609375" x="577.7940673828125" class="er relationshipLabelBox"/><text style="text-anchor: middle; dominant-baseline: middle; font-size: 12px;" y="990.4105224609375" x="577.7940673828125" id="rel32" class="er relationshipLabel"/><rect height="0" width="0" y="979.5834350585938" x="735.4791259765625" class="er relationshipLabelBox"/><text style="text-anchor: middle; dominant-baseline: middle; font-size: 12px;" y="979.5834350585938" x="735.4791259765625" id="rel33" class="er relationshipLabel"/></svg>