<svg aria-roledescription="er" role="graphics-document document" viewBox="0 0 867.3331909179688 1377" style="max-width: 867.3331909179688px;" xmlns="http://www.w3.org/2000/svg" width="100%" id="export-svg"><style xmlns="http://www.w3.org/1999/xhtml">@import url("https://cdnjs.cloudflare.com/ajax/libs/font-awesome/6.2.0/css/all.min.css"); p {margin: 0;}</style><style>#export-svg{font-family:"trebuchet ms",verdana,arial,sans-serif;font-size:14px;fill:#333;}#export-svg .error-icon{fill:#ffffff;}#export-svg .error-text{fill:#000000;stroke:#000000;}#export-svg .edge-thickness-normal{stroke-width:1px;}#export-svg .edge-thickness-thick{stroke-width:3.5px;}#export-svg .edge-pattern-solid{stroke-dasharray:0;}#export-svg .edge-thickness-invisible{stroke-width:0;fill:none;}#export-svg .edge-pattern-dashed{stroke-dasharray:3;}#export-svg .edge-pattern-dotted{stroke-dasharray:2;}#export-svg .marker{fill:#000000;stroke:#000000;}#export-svg .marker.cross{stroke:#000000;}#export-svg svg{font-family:"trebuchet ms",verdana,arial,sans-serif;font-size:14px;}#export-svg p{margin:0;}#export-svg .entityBox{fill:#ffffff;stroke:#000000;}#export-svg .attributeBoxOdd{fill:#ffffff;stroke:#000000;}#export-svg .attributeBoxEven{fill:#f2f2f2;stroke:#000000;}#export-svg .relationshipLabelBox{fill:#ffffff;opacity:0.7;background-color:#ffffff;}#export-svg .relationshipLabelBox rect{opacity:0.5;}#export-svg .relationshipLine{stroke:#000000;}#export-svg .entityTitleText{text-anchor:middle;font-size:18px;fill:#333;}#export-svg #MD_PARENT_START{fill:#f5f5f5!important;stroke:#000000!important;stroke-width:1;}#export-svg #MD_PARENT_END{fill:#f5f5f5!important;stroke:#000000!important;stroke-width:1;}#export-svg .node .neo-node{stroke:#000000;}#export-svg [data-look="neo"].node rect,#export-svg [data-look="neo"].cluster rect,#export-svg [data-look="neo"].node polygon{stroke:url(#export-svg-gradient);filter:drop-shadow( 0px 1px 2px rgba(0, 0, 0, 0.25));}#export-svg [data-look="neo"].node rect,#export-svg [data-look="neo"].node polygon,#export-svg [data-look="neo"].node path{stroke:url(#export-svg-gradient);filter:drop-shadow( 0px 1px 2px rgba(0, 0, 0, 0.25));}#export-svg [data-look="neo"].node .neo-line path{stroke:hsl(0, 0%, 70%);filter:none;}#export-svg [data-look="neo"].node circle{stroke:url(#export-svg-gradient);filter:drop-shadow( 0px 1px 2px rgba(0, 0, 0, 0.25));}#export-svg [data-look="neo"].node circle .state-start{fill:#000000;}#export-svg [data-look="neo"].statediagram-cluster rect{fill:#ffffff;stroke:url(#export-svg-gradient);stroke-width:1px;}#export-svg [data-look="neo"].icon-shape .icon{fill:url(#export-svg-gradient);filter:drop-shadow( 0px 1px 2px rgba(0, 0, 0, 0.25));}#export-svg [data-look="neo"].icon-shape .icon-neo path{stroke:url(#export-svg-gradient);filter:drop-shadow( 0px 1px 2px rgba(0, 0, 0, 0.25));}#export-svg :root{--mermaid-font-family:"trebuchet ms",verdana,arial,sans-serif;}</style><g/><defs><marker orient="auto" markerHeight="240" markerWidth="190" refY="7" refX="0" id="MD_PARENT_START"><path d="M 18,7 L9,13 L1,7 L9,1 Z"/></marker></defs><defs><marker orient="auto" markerHeight="28" markerWidth="20" refY="7" refX="19" id="MD_PARENT_END"><path d="M 18,7 L9,13 L1,7 L9,1 Z"/></marker></defs><defs><marker orient="auto" markerHeight="18" markerWidth="18" refY="9" refX="0" id="ONLY_ONE_START"><path d="M9,0 L9,18 M15,0 L15,18" fill="none" stroke="gray"/></marker></defs><defs><marker orient="auto" markerHeight="18" markerWidth="18" refY="9" refX="18" id="ONLY_ONE_END"><path d="M3,0 L3,18 M9,0 L9,18" fill="none" stroke="gray"/></marker></defs><defs><marker orient="auto" markerHeight="18" markerWidth="30" refY="9" refX="0" id="ZERO_OR_ONE_START"><circle r="6" cy="9" cx="21" fill="white" stroke="gray"/><path d="M9,0 L9,18" fill="none" stroke="gray"/></marker></defs><defs><marker orient="auto" markerHeight="18" markerWidth="30" refY="9" refX="30" id="ZERO_OR_ONE_END"><circle r="6" cy="9" cx="9" fill="white" stroke="gray"/><path d="M21,0 L21,18" fill="none" stroke="gray"/></marker></defs><defs><marker orient="auto" markerHeight="36" markerWidth="45" refY="18" refX="18" id="ONE_OR_MORE_START"><path d="M0,18 Q 18,0 36,18 Q 18,36 0,18 M42,9 L42,27" fill="none" stroke="gray"/></marker></defs><defs><marker orient="auto" markerHeight="36" markerWidth="45" refY="18" refX="27" id="ONE_OR_MORE_END"><path d="M3,9 L3,27 M9,18 Q27,0 45,18 Q27,36 9,18" fill="none" stroke="gray"/></marker></defs><defs><marker orient="auto" markerHeight="36" markerWidth="57" refY="18" refX="18" id="ZERO_OR_MORE_START"><circle r="6" cy="18" cx="48" fill="white" stroke="gray"/><path d="M0,18 Q18,0 36,18 Q18,36 0,18" fill="none" stroke="gray"/></marker></defs><defs><marker orient="auto" markerHeight="36" markerWidth="57" refY="18" refX="39" id="ZERO_OR_MORE_END"><circle r="6" cy="18" cx="9" fill="white" stroke="gray"/><path d="M21,18 Q39,0 57,18 Q39,36 21,18" fill="none" stroke="gray"/></marker></defs><path marker-start="url(#ONLY_ONE_START)" marker-end="url(#ZERO_OR_MORE_END)" style="stroke: gray; fill: none;" d="M92.024,846.5L89.005,856.583C85.986,866.667,79.949,886.833,76.93,910.5C73.911,934.167,73.911,961.333,73.911,974.917L73.911,988.5" class="er relationshipLine"/><path marker-start="url(#ONE_OR_MORE_START)" marker-end="url(#ONLY_ONE_END)" style="stroke: gray; fill: none;" d="M73.911,1138.5L73.911,1152.083C73.911,1165.667,73.911,1192.833,73.911,1214.75C73.911,1236.667,73.911,1253.333,73.911,1261.667L73.911,1270" class="er relationshipLine"/><path marker-start="url(#ONLY_ONE_START)" marker-end="url(#ONE_OR_MORE_END)" style="stroke: gray; fill: none;" d="M135.562,846.5L142.636,856.583C149.709,866.667,163.856,886.833,180.011,909.984C196.165,933.135,214.329,959.271,223.41,972.339L232.492,985.406" class="er relationshipLine"/><path marker-start="url(#ZERO_OR_ONE_START)" marker-end="url(#ZERO_OR_MORE_END)" style="stroke: gray; fill: none;" d="M451.939,334.231L428.332,346.359C404.725,358.487,357.511,382.744,333.904,419.205C310.297,455.667,310.297,504.333,310.297,553C310.297,601.667,310.297,650.333,310.297,692C310.297,733.667,310.297,768.333,310.297,803C310.297,837.667,310.297,872.333,309.044,898C307.791,923.667,305.285,940.333,304.032,948.667L302.779,957" class="er relationshipLine"/><path marker-start="url(#ONE_OR_MORE_START)" marker-end="url(#ONLY_ONE_END)" style="stroke: gray; fill: none;" d="M489.192,357L485.56,365.333C481.927,373.667,474.663,390.333,471.031,412.25C467.399,434.167,467.399,461.333,467.399,474.917L467.399,488.5" class="er relationshipLine"/><path marker-start="url(#ONLY_ONE_START)" marker-end="url(#ZERO_OR_MORE_END)" style="stroke: gray; fill: none;" d="M570.178,357L579.044,365.333C587.909,373.667,605.641,390.333,619.412,407C633.184,423.667,642.996,440.333,647.902,448.667L652.808,457" class="er relationshipLine"/><path marker-start="url(#ZERO_OR_MORE_START)" marker-end="url(#ONLY_ONE_END)" style="stroke: gray; fill: none;" d="M565.776,144.541L556.934,153.617C548.093,162.694,530.411,180.847,521.57,198.257C512.728,215.667,512.728,232.333,512.728,240.667L512.728,249" class="er relationshipLine"/><path marker-start="url(#ZERO_OR_ONE_START)" marker-end="url(#ZERO_OR_MORE_END)" style="stroke: gray; fill: none;" d="M682.744,145.023L691.438,154.019C700.131,163.015,717.517,181.008,726.21,207.337C734.904,233.667,734.904,268.333,734.904,303C734.904,337.667,734.904,372.333,733.444,398C731.984,423.667,729.064,440.333,727.604,448.667L726.144,457" class="er relationshipLine"/><path marker-start="url(#ONLY_ONE_START)" marker-end="url(#ZERO_OR_MORE_END)" style="stroke: gray; fill: none;" d="M645.139,623.491L633.68,636.076C622.221,648.661,599.303,673.83,587.844,696.499C576.385,719.167,576.385,739.333,576.385,749.417L576.385,759.5" class="er relationshipLine"/><path marker-start="url(#ONLY_ONE_START)" marker-end="url(#ZERO_OR_MORE_END)" style="stroke: gray; fill: none;" d="M764.622,649L769.422,657.333C774.222,665.667,783.822,682.333,788.622,699C793.422,715.667,793.422,732.333,793.422,740.667L793.422,749" class="er relationshipLine"/><path marker-start="url(#ZERO_OR_MORE_START)" marker-end="url(#ONLY_ONE_END)" style="stroke: gray; fill: none;" d="M576.385,846.5L576.385,856.583C576.385,866.667,576.385,886.833,537.16,918.112C497.935,949.391,419.486,991.782,380.261,1012.978L341.036,1034.173" class="er relationshipLine"/><g transform="translate(410.2973823547363,488.5 )" id="entity-CONNECTOR-145c89f3-1c45-5eec-96c8-7fa697a33332"><rect height="129" width="114.20249938964844" y="0" x="0" class="er entityBox"/><text transform="translate(57.10124969482422,12)" style="dominant-baseline: middle; text-anchor: middle; font-size: 12px;" y="0" x="0" id="text-entity-CONNECTOR-145c89f3-1c45-5eec-96c8-7fa697a33332" class="er entityLabel">CONNECTOR</text><rect height="21" width="35.26939392089844" y="24" x="0" class="er attributeBoxOdd"/><text transform="translate(5,34.5)" style="dominant-baseline: middle; font-size: 10.2px;" y="0" x="0" id="text-entity-CONNECTOR-145c89f3-1c45-5eec-96c8-7fa697a33332-attr-1-type" class="er entityLabel">string</text><rect height="21" width="78.93310546875" y="24" x="35.26939392089844" class="er attributeBoxOdd"/><text transform="translate(40.26939392089844,34.5)" style="dominant-baseline: middle; font-size: 10.2px;" y="0" x="0" id="text-entity-CONNECTOR-145c89f3-1c45-5eec-96c8-7fa697a33332-attr-1-name" class="er entityLabel">name</text><rect height="21" width="35.26939392089844" y="45" x="0" class="er attributeBoxEven"/><text transform="translate(5,55.5)" style="dominant-baseline: middle; font-size: 10.2px;" y="0" x="0" id="text-entity-CONNECTOR-145c89f3-1c45-5eec-96c8-7fa697a33332-attr-2-type" class="er entityLabel">string</text><rect height="21" width="78.93310546875" y="45" x="35.26939392089844" class="er attributeBoxEven"/><text transform="translate(40.26939392089844,55.5)" style="dominant-baseline: middle; font-size: 10.2px;" y="0" x="0" id="text-entity-CONNECTOR-145c89f3-1c45-5eec-96c8-7fa697a33332-attr-2-name" class="er entityLabel">version</text><rect height="21" width="35.26939392089844" y="66" x="0" class="er attributeBoxOdd"/><text transform="translate(5,76.5)" style="dominant-baseline: middle; font-size: 10.2px;" y="0" x="0" id="text-entity-CONNECTOR-145c89f3-1c45-5eec-96c8-7fa697a33332-attr-3-type" class="er entityLabel">string</text><rect height="21" width="78.93310546875" y="66" x="35.26939392089844" class="er attributeBoxOdd"/><text transform="translate(40.26939392089844,76.5)" style="dominant-baseline: middle; font-size: 10.2px;" y="0" x="0" id="text-entity-CONNECTOR-145c89f3-1c45-5eec-96c8-7fa697a33332-attr-3-name" class="er entityLabel">description</text><rect height="21" width="35.26939392089844" y="87" x="0" class="er attributeBoxEven"/><text transform="translate(5,97.5)" style="dominant-baseline: middle; font-size: 10.2px;" y="0" x="0" id="text-entity-CONNECTOR-145c89f3-1c45-5eec-96c8-7fa697a33332-attr-4-type" class="er entityLabel">json</text><rect height="21" width="78.93310546875" y="87" x="35.26939392089844" class="er attributeBoxEven"/><text transform="translate(40.26939392089844,97.5)" style="dominant-baseline: middle; font-size: 10.2px;" y="0" x="0" id="text-entity-CONNECTOR-145c89f3-1c45-5eec-96c8-7fa697a33332-attr-4-name" class="er entityLabel">config_schema</text><rect height="21" width="35.26939392089844" y="108" x="0" class="er attributeBoxOdd"/><text transform="translate(5,118.5)" style="dominant-baseline: middle; font-size: 10.2px;" y="0" x="0" id="text-entity-CONNECTOR-145c89f3-1c45-5eec-96c8-7fa697a33332-attr-5-type" class="er entityLabel">json</text><rect height="21" width="78.93310546875" y="108" x="35.26939392089844" class="er attributeBoxOdd"/><text transform="translate(40.26939392089844,118.5)" style="dominant-baseline: middle; font-size: 10.2px;" y="0" x="0" id="text-entity-CONNECTOR-145c89f3-1c45-5eec-96c8-7fa697a33332-attr-5-name" class="er entityLabel">query_schema</text></g><g transform="translate(451.9390449523926,249 )" id="entity-CONNECTION-b5526f05-21fa-56a1-98ce-b2cc78839c90"><rect height="108" width="121.57855224609375" y="0" x="0" class="er entityBox"/><text transform="translate(60.789276123046875,12)" style="dominant-baseline: middle; text-anchor: middle; font-size: 12px;" y="0" x="0" id="text-entity-CONNECTION-b5526f05-21fa-56a1-98ce-b2cc78839c90" class="er entityLabel">CONNECTION</text><rect height="21" width="35.26939392089844" y="24" x="0" class="er attributeBoxOdd"/><text transform="translate(5,34.5)" style="dominant-baseline: middle; font-size: 10.2px;" y="0" x="0" id="text-entity-CONNECTION-b5526f05-21fa-56a1-98ce-b2cc78839c90-attr-1-type" class="er entityLabel">int</text><rect height="21" width="86.30915832519531" y="24" x="35.26939392089844" class="er attributeBoxOdd"/><text transform="translate(40.26939392089844,34.5)" style="dominant-baseline: middle; font-size: 10.2px;" y="0" x="0" id="text-entity-CONNECTION-b5526f05-21fa-56a1-98ce-b2cc78839c90-attr-1-name" class="er entityLabel">id</text><rect height="21" width="35.26939392089844" y="45" x="0" class="er attributeBoxEven"/><text transform="translate(5,55.5)" style="dominant-baseline: middle; font-size: 10.2px;" y="0" x="0" id="text-entity-CONNECTION-b5526f05-21fa-56a1-98ce-b2cc78839c90-attr-2-type" class="er entityLabel">string</text><rect height="21" width="86.30915832519531" y="45" x="35.26939392089844" class="er attributeBoxEven"/><text transform="translate(40.26939392089844,55.5)" style="dominant-baseline: middle; font-size: 10.2px;" y="0" x="0" id="text-entity-CONNECTION-b5526f05-21fa-56a1-98ce-b2cc78839c90-attr-2-name" class="er entityLabel">connector_name</text><rect height="21" width="35.26939392089844" y="66" x="0" class="er attributeBoxOdd"/><text transform="translate(5,76.5)" style="dominant-baseline: middle; font-size: 10.2px;" y="0" x="0" id="text-entity-CONNECTION-b5526f05-21fa-56a1-98ce-b2cc78839c90-attr-3-type" class="er entityLabel">string</text><rect height="21" width="86.30915832519531" y="66" x="35.26939392089844" class="er attributeBoxOdd"/><text transform="translate(40.26939392089844,76.5)" style="dominant-baseline: middle; font-size: 10.2px;" y="0" x="0" id="text-entity-CONNECTION-b5526f05-21fa-56a1-98ce-b2cc78839c90-attr-3-name" class="er entityLabel">name</text><rect height="21" width="35.26939392089844" y="87" x="0" class="er attributeBoxEven"/><text transform="translate(5,97.5)" style="dominant-baseline: middle; font-size: 10.2px;" y="0" x="0" id="text-entity-CONNECTION-b5526f05-21fa-56a1-98ce-b2cc78839c90-attr-4-type" class="er entityLabel">json</text><rect height="21" width="86.30915832519531" y="87" x="35.26939392089844" class="er attributeBoxEven"/><text transform="translate(40.26939392089844,97.5)" style="dominant-baseline: middle; font-size: 10.2px;" y="0" x="0" id="text-entity-CONNECTION-b5526f05-21fa-56a1-98ce-b2cc78839c90-attr-4-name" class="er entityLabel">config</text></g><g transform="translate(49.7982063293457,759.5 )" id="entity-JOB-689ef35c-f61f-5e8b-bf9d-457a270301e5"><rect height="87" width="110.49917602539062" y="0" x="0" class="er entityBox"/><text transform="translate(55.24958801269531,12)" style="dominant-baseline: middle; text-anchor: middle; font-size: 12px;" y="0" x="0" id="text-entity-JOB-689ef35c-f61f-5e8b-bf9d-457a270301e5" class="er entityLabel">JOB</text><rect height="21" width="27.606613159179688" y="24" x="0" class="er attributeBoxOdd"/><text transform="translate(5,34.5)" style="dominant-baseline: middle; font-size: 10.2px;" y="0" x="0" id="text-entity-JOB-689ef35c-f61f-5e8b-bf9d-457a270301e5-attr-1-type" class="er entityLabel">int</text><rect height="21" width="82.89256286621094" y="24" x="27.606613159179688" class="er attributeBoxOdd"/><text transform="translate(32.60661315917969,34.5)" style="dominant-baseline: middle; font-size: 10.2px;" y="0" x="0" id="text-entity-JOB-689ef35c-f61f-5e8b-bf9d-457a270301e5-attr-1-name" class="er entityLabel">id</text><rect height="21" width="27.606613159179688" y="45" x="0" class="er attributeBoxEven"/><text transform="translate(5,55.5)" style="dominant-baseline: middle; font-size: 10.2px;" y="0" x="0" id="text-entity-JOB-689ef35c-f61f-5e8b-bf9d-457a270301e5-attr-2-type" class="er entityLabel">int</text><rect height="21" width="82.89256286621094" y="45" x="27.606613159179688" class="er attributeBoxEven"/><text transform="translate(32.60661315917969,55.5)" style="dominant-baseline: middle; font-size: 10.2px;" y="0" x="0" id="text-entity-JOB-689ef35c-f61f-5e8b-bf9d-457a270301e5-attr-2-name" class="er entityLabel">primary_post_id</text><rect height="21" width="27.606613159179688" y="66" x="0" class="er attributeBoxOdd"/><text transform="translate(5,76.5)" style="dominant-baseline: middle; font-size: 10.2px;" y="0" x="0" id="text-entity-JOB-689ef35c-f61f-5e8b-bf9d-457a270301e5-attr-3-type" class="er entityLabel">text</text><rect height="21" width="82.89256286621094" y="66" x="27.606613159179688" class="er attributeBoxOdd"/><text transform="translate(32.60661315917969,76.5)" style="dominant-baseline: middle; font-size: 10.2px;" y="0" x="0" id="text-entity-JOB-689ef35c-f61f-5e8b-bf9d-457a270301e5-attr-3-name" class="er entityLabel">comments</text></g><g transform="translate(232.49178314208984,957 )" id="entity-POST-dedb1204-6961-5504-b717-5f982e5d0300"><rect height="213" width="108.54469299316406" y="0" x="0" class="er entityBox"/><text transform="translate(54.27234649658203,12)" style="dominant-baseline: middle; text-anchor: middle; font-size: 12px;" y="0" x="0" id="text-entity-POST-dedb1204-6961-5504-b717-5f982e5d0300" class="er entityLabel">POST</text><rect height="21" width="35.26939392089844" y="24" x="0" class="er attributeBoxOdd"/><text transform="translate(5,34.5)" style="dominant-baseline: middle; font-size: 10.2px;" y="0" x="0" id="text-entity-POST-dedb1204-6961-5504-b717-5f982e5d0300-attr-1-type" class="er entityLabel">int</text><rect height="21" width="73.27529907226562" y="24" x="35.26939392089844" class="er attributeBoxOdd"/><text transform="translate(40.26939392089844,34.5)" style="dominant-baseline: middle; font-size: 10.2px;" y="0" x="0" id="text-entity-POST-dedb1204-6961-5504-b717-5f982e5d0300-attr-1-name" class="er entityLabel">id</text><rect height="21" width="35.26939392089844" y="45" x="0" class="er attributeBoxEven"/><text transform="translate(5,55.5)" style="dominant-baseline: middle; font-size: 10.2px;" y="0" x="0" id="text-entity-POST-dedb1204-6961-5504-b717-5f982e5d0300-attr-2-type" class="er entityLabel">int</text><rect height="21" width="73.27529907226562" y="45" x="35.26939392089844" class="er attributeBoxEven"/><text transform="translate(40.26939392089844,55.5)" style="dominant-baseline: middle; font-size: 10.2px;" y="0" x="0" id="text-entity-POST-dedb1204-6961-5504-b717-5f982e5d0300-attr-2-name" class="er entityLabel">job_id</text><rect height="21" width="35.26939392089844" y="66" x="0" class="er attributeBoxOdd"/><text transform="translate(5,76.5)" style="dominant-baseline: middle; font-size: 10.2px;" y="0" x="0" id="text-entity-POST-dedb1204-6961-5504-b717-5f982e5d0300-attr-3-type" class="er entityLabel">int</text><rect height="21" width="73.27529907226562" y="66" x="35.26939392089844" class="er attributeBoxOdd"/><text transform="translate(40.26939392089844,76.5)" style="dominant-baseline: middle; font-size: 10.2px;" y="0" x="0" id="text-entity-POST-dedb1204-6961-5504-b717-5f982e5d0300-attr-3-name" class="er entityLabel">connection_id</text><rect height="21" width="35.26939392089844" y="87" x="0" class="er attributeBoxEven"/><text transform="translate(5,97.5)" style="dominant-baseline: middle; font-size: 10.2px;" y="0" x="0" id="text-entity-POST-dedb1204-6961-5504-b717-5f982e5d0300-attr-4-type" class="er entityLabel">string</text><rect height="21" width="73.27529907226562" y="87" x="35.26939392089844" class="er attributeBoxEven"/><text transform="translate(40.26939392089844,97.5)" style="dominant-baseline: middle; font-size: 10.2px;" y="0" x="0" id="text-entity-POST-dedb1204-6961-5504-b717-5f982e5d0300-attr-4-name" class="er entityLabel">unique_id</text><rect height="21" width="35.26939392089844" y="108" x="0" class="er attributeBoxOdd"/><text transform="translate(5,118.5)" style="dominant-baseline: middle; font-size: 10.2px;" y="0" x="0" id="text-entity-POST-dedb1204-6961-5504-b717-5f982e5d0300-attr-5-type" class="er entityLabel">string</text><rect height="21" width="73.27529907226562" y="108" x="35.26939392089844" class="er attributeBoxOdd"/><text transform="translate(40.26939392089844,118.5)" style="dominant-baseline: middle; font-size: 10.2px;" y="0" x="0" id="text-entity-POST-dedb1204-6961-5504-b717-5f982e5d0300-attr-5-name" class="er entityLabel">url</text><rect height="21" width="35.26939392089844" y="129" x="0" class="er attributeBoxEven"/><text transform="translate(5,139.5)" style="dominant-baseline: middle; font-size: 10.2px;" y="0" x="0" id="text-entity-POST-dedb1204-6961-5504-b717-5f982e5d0300-attr-6-type" class="er entityLabel">string</text><rect height="21" width="73.27529907226562" y="129" x="35.26939392089844" class="er attributeBoxEven"/><text transform="translate(40.26939392089844,139.5)" style="dominant-baseline: middle; font-size: 10.2px;" y="0" x="0" id="text-entity-POST-dedb1204-6961-5504-b717-5f982e5d0300-attr-6-name" class="er entityLabel">company</text><rect height="21" width="35.26939392089844" y="150" x="0" class="er attributeBoxOdd"/><text transform="translate(5,160.5)" style="dominant-baseline: middle; font-size: 10.2px;" y="0" x="0" id="text-entity-POST-dedb1204-6961-5504-b717-5f982e5d0300-attr-7-type" class="er entityLabel">string</text><rect height="21" width="73.27529907226562" y="150" x="35.26939392089844" class="er attributeBoxOdd"/><text transform="translate(40.26939392089844,160.5)" style="dominant-baseline: middle; font-size: 10.2px;" y="0" x="0" id="text-entity-POST-dedb1204-6961-5504-b717-5f982e5d0300-attr-7-name" class="er entityLabel">title</text><rect height="21" width="35.26939392089844" y="171" x="0" class="er attributeBoxEven"/><text transform="translate(5,181.5)" style="dominant-baseline: middle; font-size: 10.2px;" y="0" x="0" id="text-entity-POST-dedb1204-6961-5504-b717-5f982e5d0300-attr-8-type" class="er entityLabel">string</text><rect height="21" width="73.27529907226562" y="171" x="35.26939392089844" class="er attributeBoxEven"/><text transform="translate(40.26939392089844,181.5)" style="dominant-baseline: middle; font-size: 10.2px;" y="0" x="0" id="text-entity-POST-dedb1204-6961-5504-b717-5f982e5d0300-attr-8-name" class="er entityLabel">description</text><rect height="21" width="35.26939392089844" y="192" x="0" class="er attributeBoxOdd"/><text transform="translate(5,202.5)" style="dominant-baseline: middle; font-size: 10.2px;" y="0" x="0" id="text-entity-POST-dedb1204-6961-5504-b717-5f982e5d0300-attr-9-type" class="er entityLabel">string</text><rect height="21" width="73.27529907226562" y="192" x="35.26939392089844" class="er attributeBoxOdd"/><text transform="translate(40.26939392089844,202.5)" style="dominant-baseline: middle; font-size: 10.2px;" y="0" x="0" id="text-entity-POST-dedb1204-6961-5504-b717-5f982e5d0300-attr-9-name" class="er entityLabel">location</text></g><g transform="translate(20,988.5 )" id="entity-JOBSTAGE-03487128-ed0d-5aac-ada4-3834bff4bc59"><rect height="150" width="107.82147216796875" y="0" x="0" class="er entityBox"/><text transform="translate(53.910736083984375,12)" style="dominant-baseline: middle; text-anchor: middle; font-size: 12px;" y="0" x="0" id="text-entity-JOBSTAGE-03487128-ed0d-5aac-ada4-3834bff4bc59" class="er entityLabel">JOB_STAGE</text><rect height="21" width="49.44877624511719" y="24" x="0" class="er attributeBoxOdd"/><text transform="translate(5,34.5)" style="dominant-baseline: middle; font-size: 10.2px;" y="0" x="0" id="text-entity-JOBSTAGE-03487128-ed0d-5aac-ada4-3834bff4bc59-attr-1-type" class="er entityLabel">int</text><rect height="21" width="58.37269592285156" y="24" x="49.44877624511719" class="er attributeBoxOdd"/><text transform="translate(54.44877624511719,34.5)" style="dominant-baseline: middle; font-size: 10.2px;" y="0" x="0" id="text-entity-JOBSTAGE-03487128-ed0d-5aac-ada4-3834bff4bc59-attr-1-name" class="er entityLabel">id</text><rect height="21" width="49.44877624511719" y="45" x="0" class="er attributeBoxEven"/><text transform="translate(5,55.5)" style="dominant-baseline: middle; font-size: 10.2px;" y="0" x="0" id="text-entity-JOBSTAGE-03487128-ed0d-5aac-ada4-3834bff4bc59-attr-2-type" class="er entityLabel">int</text><rect height="21" width="58.37269592285156" y="45" x="49.44877624511719" class="er attributeBoxEven"/><text transform="translate(54.44877624511719,55.5)" style="dominant-baseline: middle; font-size: 10.2px;" y="0" x="0" id="text-entity-JOBSTAGE-03487128-ed0d-5aac-ada4-3834bff4bc59-attr-2-name" class="er entityLabel">stage_id</text><rect height="21" width="49.44877624511719" y="66" x="0" class="er attributeBoxOdd"/><text transform="translate(5,76.5)" style="dominant-baseline: middle; font-size: 10.2px;" y="0" x="0" id="text-entity-JOBSTAGE-03487128-ed0d-5aac-ada4-3834bff4bc59-attr-3-type" class="er entityLabel">int</text><rect height="21" width="58.37269592285156" y="66" x="49.44877624511719" class="er attributeBoxOdd"/><text transform="translate(54.44877624511719,76.5)" style="dominant-baseline: middle; font-size: 10.2px;" y="0" x="0" id="text-entity-JOBSTAGE-03487128-ed0d-5aac-ada4-3834bff4bc59-attr-3-name" class="er entityLabel">job_id</text><rect height="21" width="49.44877624511719" y="87" x="0" class="er attributeBoxEven"/><text transform="translate(5,97.5)" style="dominant-baseline: middle; font-size: 10.2px;" y="0" x="0" id="text-entity-JOBSTAGE-03487128-ed0d-5aac-ada4-3834bff4bc59-attr-4-type" class="er entityLabel">datetime</text><rect height="21" width="58.37269592285156" y="87" x="49.44877624511719" class="er attributeBoxEven"/><text transform="translate(54.44877624511719,97.5)" style="dominant-baseline: middle; font-size: 10.2px;" y="0" x="0" id="text-entity-JOBSTAGE-03487128-ed0d-5aac-ada4-3834bff4bc59-attr-4-name" class="er entityLabel">timestamp</text><rect height="21" width="49.44877624511719" y="108" x="0" class="er attributeBoxOdd"/><text transform="translate(5,118.5)" style="dominant-baseline: middle; font-size: 10.2px;" y="0" x="0" id="text-entity-JOBSTAGE-03487128-ed0d-5aac-ada4-3834bff4bc59-attr-5-type" class="er entityLabel">text</text><rect height="21" width="58.37269592285156" y="108" x="49.44877624511719" class="er attributeBoxOdd"/><text transform="translate(54.44877624511719,118.5)" style="dominant-baseline: middle; font-size: 10.2px;" y="0" x="0" id="text-entity-JOBSTAGE-03487128-ed0d-5aac-ada4-3834bff4bc59-attr-5-name" class="er entityLabel">comment</text><rect height="21" width="49.44877624511719" y="129" x="0" class="er attributeBoxEven"/><text transform="translate(5,139.5)" style="dominant-baseline: middle; font-size: 10.2px;" y="0" x="0" id="text-entity-JOBSTAGE-03487128-ed0d-5aac-ada4-3834bff4bc59-attr-6-type" class="er entityLabel">string</text><rect height="21" width="58.37269592285156" y="129" x="49.44877624511719" class="er attributeBoxEven"/><text transform="translate(54.44877624511719,139.5)" style="dominant-baseline: middle; font-size: 10.2px;" y="0" x="0" id="text-entity-JOBSTAGE-03487128-ed0d-5aac-ada4-3834bff4bc59-attr-6-name" class="er entityLabel">url</text></g><g transform="translate(23.910736083984375,1270 )" id="entity-STAGE-b3b3ae2f-3286-55e2-8698-6897421b790f"><rect height="87" width="100" y="0" x="0" class="er entityBox"/><text transform="translate(50,12)" style="dominant-baseline: middle; text-anchor: middle; font-size: 12px;" y="0" x="0" id="text-entity-STAGE-b3b3ae2f-3286-55e2-8698-6897421b790f" class="er entityLabel">STAGE</text><rect height="21" width="49.71361541748047" y="24" x="0" class="er attributeBoxOdd"/><text transform="translate(5,34.5)" style="dominant-baseline: middle; font-size: 10.2px;" y="0" x="0" id="text-entity-STAGE-b3b3ae2f-3286-55e2-8698-6897421b790f-attr-1-type" class="er entityLabel">int</text><rect height="21" width="50.28638458251953" y="24" x="49.71361541748047" class="er attributeBoxOdd"/><text transform="translate(54.71361541748047,34.5)" style="dominant-baseline: middle; font-size: 10.2px;" y="0" x="0" id="text-entity-STAGE-b3b3ae2f-3286-55e2-8698-6897421b790f-attr-1-name" class="er entityLabel">id</text><rect height="21" width="49.71361541748047" y="45" x="0" class="er attributeBoxEven"/><text transform="translate(5,55.5)" style="dominant-baseline: middle; font-size: 10.2px;" y="0" x="0" id="text-entity-STAGE-b3b3ae2f-3286-55e2-8698-6897421b790f-attr-2-type" class="er entityLabel">string</text><rect height="21" width="50.28638458251953" y="45" x="49.71361541748047" class="er attributeBoxEven"/><text transform="translate(54.71361541748047,55.5)" style="dominant-baseline: middle; font-size: 10.2px;" y="0" x="0" id="text-entity-STAGE-b3b3ae2f-3286-55e2-8698-6897421b790f-attr-2-name" class="er entityLabel">name</text><rect height="21" width="49.71361541748047" y="66" x="0" class="er attributeBoxOdd"/><text transform="translate(5,76.5)" style="dominant-baseline: middle; font-size: 10.2px;" y="0" x="0" id="text-entity-STAGE-b3b3ae2f-3286-55e2-8698-6897421b790f-attr-3-type" class="er entityLabel">string</text><rect height="21" width="50.28638458251953" y="66" x="49.71361541748047" class="er attributeBoxOdd"/><text transform="translate(54.71361541748047,76.5)" style="dominant-baseline: middle; font-size: 10.2px;" y="0" x="0" id="text-entity-STAGE-b3b3ae2f-3286-55e2-8698-6897421b790f-attr-3-name" class="er entityLabel">color</text></g><g transform="translate(645.1390151977539,457 )" id="entity-QUERY-e2d2dc0d-ae0a-5938-a9d1-e6e05bf81a37"><rect height="192" width="128.3719024658203" y="0" x="0" class="er entityBox"/><text transform="translate(64.18595123291016,12)" style="dominant-baseline: middle; text-anchor: middle; font-size: 12px;" y="0" x="0" id="text-entity-QUERY-e2d2dc0d-ae0a-5938-a9d1-e6e05bf81a37" class="er entityLabel">QUERY</text><rect height="21" width="49.44877624511719" y="24" x="0" class="er attributeBoxOdd"/><text transform="translate(5,34.5)" style="dominant-baseline: middle; font-size: 10.2px;" y="0" x="0" id="text-entity-QUERY-e2d2dc0d-ae0a-5938-a9d1-e6e05bf81a37-attr-1-type" class="er entityLabel">int</text><rect height="21" width="78.92312622070312" y="24" x="49.44877624511719" class="er attributeBoxOdd"/><text transform="translate(54.44877624511719,34.5)" style="dominant-baseline: middle; font-size: 10.2px;" y="0" x="0" id="text-entity-QUERY-e2d2dc0d-ae0a-5938-a9d1-e6e05bf81a37-attr-1-name" class="er entityLabel">id</text><rect height="21" width="49.44877624511719" y="45" x="0" class="er attributeBoxEven"/><text transform="translate(5,55.5)" style="dominant-baseline: middle; font-size: 10.2px;" y="0" x="0" id="text-entity-QUERY-e2d2dc0d-ae0a-5938-a9d1-e6e05bf81a37-attr-2-type" class="er entityLabel">int</text><rect height="21" width="78.92312622070312" y="45" x="49.44877624511719" class="er attributeBoxEven"/><text transform="translate(54.44877624511719,55.5)" style="dominant-baseline: middle; font-size: 10.2px;" y="0" x="0" id="text-entity-QUERY-e2d2dc0d-ae0a-5938-a9d1-e6e05bf81a37-attr-2-name" class="er entityLabel">schedule_id</text><rect height="21" width="49.44877624511719" y="66" x="0" class="er attributeBoxOdd"/><text transform="translate(5,76.5)" style="dominant-baseline: middle; font-size: 10.2px;" y="0" x="0" id="text-entity-QUERY-e2d2dc0d-ae0a-5938-a9d1-e6e05bf81a37-attr-3-type" class="er entityLabel">int</text><rect height="21" width="78.92312622070312" y="66" x="49.44877624511719" class="er attributeBoxOdd"/><text transform="translate(54.44877624511719,76.5)" style="dominant-baseline: middle; font-size: 10.2px;" y="0" x="0" id="text-entity-QUERY-e2d2dc0d-ae0a-5938-a9d1-e6e05bf81a37-attr-3-name" class="er entityLabel">connection_id</text><rect height="21" width="49.44877624511719" y="87" x="0" class="er attributeBoxEven"/><text transform="translate(5,97.5)" style="dominant-baseline: middle; font-size: 10.2px;" y="0" x="0" id="text-entity-QUERY-e2d2dc0d-ae0a-5938-a9d1-e6e05bf81a37-attr-4-type" class="er entityLabel">datetime</text><rect height="21" width="78.92312622070312" y="87" x="49.44877624511719" class="er attributeBoxEven"/><text transform="translate(54.44877624511719,97.5)" style="dominant-baseline: middle; font-size: 10.2px;" y="0" x="0" id="text-entity-QUERY-e2d2dc0d-ae0a-5938-a9d1-e6e05bf81a37-attr-4-name" class="er entityLabel">created</text><rect height="21" width="49.44877624511719" y="108" x="0" class="er attributeBoxOdd"/><text transform="translate(5,118.5)" style="dominant-baseline: middle; font-size: 10.2px;" y="0" x="0" id="text-entity-QUERY-e2d2dc0d-ae0a-5938-a9d1-e6e05bf81a37-attr-5-type" class="er entityLabel">datetime</text><rect height="21" width="78.92312622070312" y="108" x="49.44877624511719" class="er attributeBoxOdd"/><text transform="translate(54.44877624511719,118.5)" style="dominant-baseline: middle; font-size: 10.2px;" y="0" x="0" id="text-entity-QUERY-e2d2dc0d-ae0a-5938-a9d1-e6e05bf81a37-attr-5-name" class="er entityLabel">started</text><rect height="21" width="49.44877624511719" y="129" x="0" class="er attributeBoxEven"/><text transform="translate(5,139.5)" style="dominant-baseline: middle; font-size: 10.2px;" y="0" x="0" id="text-entity-QUERY-e2d2dc0d-ae0a-5938-a9d1-e6e05bf81a37-attr-6-type" class="er entityLabel">datetime</text><rect height="21" width="78.92312622070312" y="129" x="49.44877624511719" class="er attributeBoxEven"/><text transform="translate(54.44877624511719,139.5)" style="dominant-baseline: middle; font-size: 10.2px;" y="0" x="0" id="text-entity-QUERY-e2d2dc0d-ae0a-5938-a9d1-e6e05bf81a37-attr-6-name" class="er entityLabel">ended</text><rect height="21" width="49.44877624511719" y="150" x="0" class="er attributeBoxOdd"/><text transform="translate(5,160.5)" style="dominant-baseline: middle; font-size: 10.2px;" y="0" x="0" id="text-entity-QUERY-e2d2dc0d-ae0a-5938-a9d1-e6e05bf81a37-attr-7-type" class="er entityLabel">string</text><rect height="21" width="78.92312622070312" y="150" x="49.44877624511719" class="er attributeBoxOdd"/><text transform="translate(54.44877624511719,160.5)" style="dominant-baseline: middle; font-size: 10.2px;" y="0" x="0" id="text-entity-QUERY-e2d2dc0d-ae0a-5938-a9d1-e6e05bf81a37-attr-7-name" class="er entityLabel">error_message</text><rect height="21" width="49.44877624511719" y="171" x="0" class="er attributeBoxEven"/><text transform="translate(5,181.5)" style="dominant-baseline: middle; font-size: 10.2px;" y="0" x="0" id="text-entity-QUERY-e2d2dc0d-ae0a-5938-a9d1-e6e05bf81a37-attr-8-type" class="er entityLabel">json</text><rect height="21" width="78.92312622070312" y="171" x="49.44877624511719" class="er attributeBoxEven"/><text transform="translate(54.44877624511719,181.5)" style="dominant-baseline: middle; font-size: 10.2px;" y="0" x="0" id="text-entity-QUERY-e2d2dc0d-ae0a-5938-a9d1-e6e05bf81a37-attr-8-name" class="er entityLabel">query</text></g><g transform="translate(513.2578201293945,759.5 )" id="entity-QUERYRESULT-ec1f6df9-1e6f-5450-999e-a33d53cb7e9c"><rect height="87" width="126.25390625" y="0" x="0" class="er entityBox"/><text transform="translate(63.126953125,12)" style="dominant-baseline: middle; text-anchor: middle; font-size: 12px;" y="0" x="0" id="text-entity-QUERYRESULT-ec1f6df9-1e6f-5450-999e-a33d53cb7e9c" class="er entityLabel">QUERY_RESULT</text><rect height="21" width="48.8695068359375" y="24" x="0" class="er attributeBoxOdd"/><text transform="translate(5,34.5)" style="dominant-baseline: middle; font-size: 10.2px;" y="0" x="0" id="text-entity-QUERYRESULT-ec1f6df9-1e6f-5450-999e-a33d53cb7e9c-attr-1-type" class="er entityLabel">int</text><rect height="21" width="77.3843994140625" y="24" x="48.8695068359375" class="er attributeBoxOdd"/><text transform="translate(53.8695068359375,34.5)" style="dominant-baseline: middle; font-size: 10.2px;" y="0" x="0" id="text-entity-QUERYRESULT-ec1f6df9-1e6f-5450-999e-a33d53cb7e9c-attr-1-name" class="er entityLabel">id</text><rect height="21" width="48.8695068359375" y="45" x="0" class="er attributeBoxEven"/><text transform="translate(5,55.5)" style="dominant-baseline: middle; font-size: 10.2px;" y="0" x="0" id="text-entity-QUERYRESULT-ec1f6df9-1e6f-5450-999e-a33d53cb7e9c-attr-2-type" class="er entityLabel">int</text><rect height="21" width="77.3843994140625" y="45" x="48.8695068359375" class="er attributeBoxEven"/><text transform="translate(53.8695068359375,55.5)" style="dominant-baseline: middle; font-size: 10.2px;" y="0" x="0" id="text-entity-QUERYRESULT-ec1f6df9-1e6f-5450-999e-a33d53cb7e9c-attr-2-name" class="er entityLabel">query_id</text><rect height="21" width="48.8695068359375" y="66" x="0" class="er attributeBoxOdd"/><text transform="translate(5,76.5)" style="dominant-baseline: middle; font-size: 10.2px;" y="0" x="0" id="text-entity-QUERYRESULT-ec1f6df9-1e6f-5450-999e-a33d53cb7e9c-attr-3-type" class="er entityLabel">int</text><rect height="21" width="77.3843994140625" y="66" x="48.8695068359375" class="er attributeBoxOdd"/><text transform="translate(53.8695068359375,76.5)" style="dominant-baseline: middle; font-size: 10.2px;" y="0" x="0" id="text-entity-QUERYRESULT-ec1f6df9-1e6f-5450-999e-a33d53cb7e9c-attr-3-name" class="er entityLabel">post_id</text></g><g transform="translate(739.5117263793945,749 )" id="entity-QUERYLOG-69362357-6d2f-5ba9-bc71-5d168188a58d"><rect height="108" width="107.82147216796875" y="0" x="0" class="er entityBox"/><text transform="translate(53.910736083984375,12)" style="dominant-baseline: middle; text-anchor: middle; font-size: 12px;" y="0" x="0" id="text-entity-QUERYLOG-69362357-6d2f-5ba9-bc71-5d168188a58d" class="er entityLabel">QUERY_LOG</text><rect height="21" width="49.44877624511719" y="24" x="0" class="er attributeBoxOdd"/><text transform="translate(5,34.5)" style="dominant-baseline: middle; font-size: 10.2px;" y="0" x="0" id="text-entity-QUERYLOG-69362357-6d2f-5ba9-bc71-5d168188a58d-attr-1-type" class="er entityLabel">int</text><rect height="21" width="58.37269592285156" y="24" x="49.44877624511719" class="er attributeBoxOdd"/><text transform="translate(54.44877624511719,34.5)" style="dominant-baseline: middle; font-size: 10.2px;" y="0" x="0" id="text-entity-QUERYLOG-69362357-6d2f-5ba9-bc71-5d168188a58d-attr-1-name" class="er entityLabel">id</text><rect height="21" width="49.44877624511719" y="45" x="0" class="er attributeBoxEven"/><text transform="translate(5,55.5)" style="dominant-baseline: middle; font-size: 10.2px;" y="0" x="0" id="text-entity-QUERYLOG-69362357-6d2f-5ba9-bc71-5d168188a58d-attr-2-type" class="er entityLabel">int</text><rect height="21" width="58.37269592285156" y="45" x="49.44877624511719" class="er attributeBoxEven"/><text transform="translate(54.44877624511719,55.5)" style="dominant-baseline: middle; font-size: 10.2px;" y="0" x="0" id="text-entity-QUERYLOG-69362357-6d2f-5ba9-bc71-5d168188a58d-attr-2-name" class="er entityLabel">query_id</text><rect height="21" width="49.44877624511719" y="66" x="0" class="er attributeBoxOdd"/><text transform="translate(5,76.5)" style="dominant-baseline: middle; font-size: 10.2px;" y="0" x="0" id="text-entity-QUERYLOG-69362357-6d2f-5ba9-bc71-5d168188a58d-attr-3-type" class="er entityLabel">datetime</text><rect height="21" width="58.37269592285156" y="66" x="49.44877624511719" class="er attributeBoxOdd"/><text transform="translate(54.44877624511719,76.5)" style="dominant-baseline: middle; font-size: 10.2px;" y="0" x="0" id="text-entity-QUERYLOG-69362357-6d2f-5ba9-bc71-5d168188a58d-attr-3-name" class="er entityLabel">timestamp</text><rect height="21" width="49.44877624511719" y="87" x="0" class="er attributeBoxEven"/><text transform="translate(5,97.5)" style="dominant-baseline: middle; font-size: 10.2px;" y="0" x="0" id="text-entity-QUERYLOG-69362357-6d2f-5ba9-bc71-5d168188a58d-attr-4-type" class="er entityLabel">text</text><rect height="21" width="58.37269592285156" y="87" x="49.44877624511719" class="er attributeBoxEven"/><text transform="translate(54.44877624511719,97.5)" style="dominant-baseline: middle; font-size: 10.2px;" y="0" x="0" id="text-entity-QUERYLOG-69362357-6d2f-5ba9-bc71-5d168188a58d-attr-4-name" class="er entityLabel">message</text></g><g transform="translate(565.7756423950195,20 )" id="entity-SCHEDULE-d5aa4656-01eb-57f0-9eed-befe12843b9b"><rect height="129" width="116.96875" y="0" x="0" class="er entityBox"/><text transform="translate(58.484375,12)" style="dominant-baseline: middle; text-anchor: middle; font-size: 12px;" y="0" x="0" id="text-entity-SCHEDULE-d5aa4656-01eb-57f0-9eed-befe12843b9b" class="er entityLabel">SCHEDULE</text><rect height="21" width="42.890625" y="24" x="0" class="er attributeBoxOdd"/><text transform="translate(5,34.5)" style="dominant-baseline: middle; font-size: 10.2px;" y="0" x="0" id="text-entity-SCHEDULE-d5aa4656-01eb-57f0-9eed-befe12843b9b-attr-1-type" class="er entityLabel">int</text><rect height="21" width="74.078125" y="24" x="42.890625" class="er attributeBoxOdd"/><text transform="translate(47.890625,34.5)" style="dominant-baseline: middle; font-size: 10.2px;" y="0" x="0" id="text-entity-SCHEDULE-d5aa4656-01eb-57f0-9eed-befe12843b9b-attr-1-name" class="er entityLabel">id</text><rect height="21" width="42.890625" y="45" x="0" class="er attributeBoxEven"/><text transform="translate(5,55.5)" style="dominant-baseline: middle; font-size: 10.2px;" y="0" x="0" id="text-entity-SCHEDULE-d5aa4656-01eb-57f0-9eed-befe12843b9b-attr-2-type" class="er entityLabel">int</text><rect height="21" width="74.078125" y="45" x="42.890625" class="er attributeBoxEven"/><text transform="translate(47.890625,55.5)" style="dominant-baseline: middle; font-size: 10.2px;" y="0" x="0" id="text-entity-SCHEDULE-d5aa4656-01eb-57f0-9eed-befe12843b9b-attr-2-name" class="er entityLabel">connection_id</text><rect height="21" width="42.890625" y="66" x="0" class="er attributeBoxOdd"/><text transform="translate(5,76.5)" style="dominant-baseline: middle; font-size: 10.2px;" y="0" x="0" id="text-entity-SCHEDULE-d5aa4656-01eb-57f0-9eed-befe12843b9b-attr-3-type" class="er entityLabel">bool</text><rect height="21" width="74.078125" y="66" x="42.890625" class="er attributeBoxOdd"/><text transform="translate(47.890625,76.5)" style="dominant-baseline: middle; font-size: 10.2px;" y="0" x="0" id="text-entity-SCHEDULE-d5aa4656-01eb-57f0-9eed-befe12843b9b-attr-3-name" class="er entityLabel">enabled</text><rect height="21" width="42.890625" y="87" x="0" class="er attributeBoxEven"/><text transform="translate(5,97.5)" style="dominant-baseline: middle; font-size: 10.2px;" y="0" x="0" id="text-entity-SCHEDULE-d5aa4656-01eb-57f0-9eed-befe12843b9b-attr-4-type" class="er entityLabel">interval</text><rect height="21" width="74.078125" y="87" x="42.890625" class="er attributeBoxEven"/><text transform="translate(47.890625,97.5)" style="dominant-baseline: middle; font-size: 10.2px;" y="0" x="0" id="text-entity-SCHEDULE-d5aa4656-01eb-57f0-9eed-befe12843b9b-attr-4-name" class="er entityLabel">query_interval</text><rect height="21" width="42.890625" y="108" x="0" class="er attributeBoxOdd"/><text transform="translate(5,118.5)" style="dominant-baseline: middle; font-size: 10.2px;" y="0" x="0" id="text-entity-SCHEDULE-d5aa4656-01eb-57f0-9eed-befe12843b9b-attr-5-type" class="er entityLabel">json</text><rect height="21" width="74.078125" y="108" x="42.890625" class="er attributeBoxOdd"/><text transform="translate(47.890625,118.5)" style="dominant-baseline: middle; font-size: 10.2px;" y="0" x="0" id="text-entity-SCHEDULE-d5aa4656-01eb-57f0-9eed-befe12843b9b-attr-5-name" class="er entityLabel">query</text></g><rect height="14" width="52.03125" y="909.5939331054688" x="50.20933532714844" class="er relationshipLabelBox"/><text style="text-anchor: middle; dominant-baseline: middle; font-size: 12px;" y="916.5939331054688" x="76.22496032714844" id="rel177" class="er relationshipLabel">has many</text><rect height="14" width="19.359375" y="1197.25" x="64.23131561279297" class="er relationshipLabelBox"/><text style="text-anchor: middle; dominant-baseline: middle; font-size: 12px;" y="1204.25" x="73.91100311279297" id="rel178" class="er relationshipLabel">has</text><rect height="14" width="52.03125" y="908.8849487304688" x="158.10887145996094" class="er relationshipLabelBox"/><text style="text-anchor: middle; dominant-baseline: middle; font-size: 12px;" y="915.8849487304688" x="184.12449645996094" id="rel179" class="er relationshipLabel">has many</text><rect height="14" width="52.03125" y="605.7215576171875" x="284.2813720703125" class="er relationshipLabelBox"/><text style="text-anchor: middle; dominant-baseline: middle; font-size: 12px;" y="612.7215576171875" x="310.2969970703125" id="rel180" class="er relationshipLabel">has many</text><rect height="14" width="25.359375" y="414.20172119140625" x="457.0902099609375" class="er relationshipLabelBox"/><text style="text-anchor: middle; dominant-baseline: middle; font-size: 12px;" y="421.20172119140625" x="469.7698974609375" id="rel181" class="er relationshipLabel">uses</text><rect height="14" width="23.34375" y="396.1719055175781" x="604.5098266601562" class="er relationshipLabelBox"/><text style="text-anchor: middle; dominant-baseline: middle; font-size: 12px;" y="403.1719055175781" x="616.1817016601562" id="rel182" class="er relationshipLabel">runs</text><rect height="14" width="25.359375" y="183.57044982910156" x="513.3011474609375" class="er relationshipLabelBox"/><text style="text-anchor: middle; dominant-baseline: middle; font-size: 12px;" y="190.57044982910156" x="525.9808349609375" id="rel183" class="er relationshipLabel">uses</text><rect height="14" width="39.359375" y="286.6617126464844" x="715.2177734375" class="er relationshipLabelBox"/><text style="text-anchor: middle; dominant-baseline: middle; font-size: 12px;" y="293.6617126464844" x="734.8974609375" id="rel184" class="er relationshipLabel">creates</text><rect height="14" width="39.359375" y="677.2523193359375" x="575.236328125" class="er relationshipLabelBox"/><text style="text-anchor: middle; dominant-baseline: middle; font-size: 12px;" y="684.2523193359375" x="594.916015625" id="rel185" class="er relationshipLabel">creates</text><rect height="14" width="52.03125" y="689.5176391601562" x="761.8563842773438" class="er relationshipLabelBox"/><text style="text-anchor: middle; dominant-baseline: middle; font-size: 12px;" y="696.5176391601562" x="787.8720092773438" id="rel186" class="er relationshipLabel">has many</text><rect height="14" width="19.359375" y="950.789794921875" x="468.46197509765625" class="er relationshipLabelBox"/><text style="text-anchor: middle; dominant-baseline: middle; font-size: 12px;" y="957.789794921875" x="478.14166259765625" id="rel187" class="er relationshipLabel">has</text></svg>