<svg aria-roledescription="er" role="graphics-document document" viewBox="0 0 876.3385620117188 1461" style="max-width: 876.3385620117188px;" xmlns="http://www.w3.org/2000/svg" width="100%" id="export-svg"><style xmlns="http://www.w3.org/1999/xhtml">@import url("https://cdnjs.cloudflare.com/ajax/libs/font-awesome/6.2.0/css/all.min.css"); p {margin: 0;}</style><style>#export-svg{font-family:"trebuchet ms",verdana,arial,sans-serif;font-size:14px;fill:#333;}#export-svg .error-icon{fill:#ffffff;}#export-svg .error-text{fill:#000000;stroke:#000000;}#export-svg .edge-thickness-normal{stroke-width:1px;}#export-svg .edge-thickness-thick{stroke-width:3.5px;}#export-svg .edge-pattern-solid{stroke-dasharray:0;}#export-svg .edge-thickness-invisible{stroke-width:0;fill:none;}#export-svg .edge-pattern-dashed{stroke-dasharray:3;}#export-svg .edge-pattern-dotted{stroke-dasharray:2;}#export-svg .marker{fill:#000000;stroke:#000000;}#export-svg .marker.cross{stroke:#000000;}#export-svg svg{font-family:"trebuchet ms",verdana,arial,sans-serif;font-size:14px;}#export-svg p{margin:0;}#export-svg .entityBox{fill:#ffffff;stroke:#000000;}#export-svg .attributeBoxOdd{fill:#ffffff;stroke:#000000;}#export-svg .attributeBoxEven{fill:#f2f2f2;stroke:#000000;}#export-svg .relationshipLabelBox{fill:#ffffff;opacity:0.7;background-color:#ffffff;}#export-svg .relationshipLabelBox rect{opacity:0.5;}#export-svg .relationshipLine{stroke:#000000;}#export-svg .entityTitleText{text-anchor:middle;font-size:18px;fill:#333;}#export-svg #MD_PARENT_START{fill:#f5f5f5!important;stroke:#000000!important;stroke-width:1;}#export-svg #MD_PARENT_END{fill:#f5f5f5!important;stroke:#000000!important;stroke-width:1;}#export-svg .node .neo-node{stroke:#000000;}#export-svg [data-look="neo"].node rect,#export-svg [data-look="neo"].cluster rect,#export-svg [data-look="neo"].node polygon{stroke:url(#export-svg-gradient);filter:drop-shadow( 0px 1px 2px rgba(0, 0, 0, 0.25));}#export-svg [data-look="neo"].node rect,#export-svg [data-look="neo"].node polygon,#export-svg [data-look="neo"].node path{stroke:url(#export-svg-gradient);filter:drop-shadow( 0px 1px 2px rgba(0, 0, 0, 0.25));}#export-svg [data-look="neo"].node .neo-line path{stroke:hsl(0, 0%, 70%);filter:none;}#export-svg [data-look="neo"].node circle{stroke:url(#export-svg-gradient);filter:drop-shadow( 0px 1px 2px rgba(0, 0, 0, 0.25));}#export-svg [data-look="neo"].node circle .state-start{fill:#000000;}#export-svg [data-look="neo"].statediagram-cluster rect{fill:#ffffff;stroke:url(#export-svg-gradient);stroke-width:1px;}#export-svg [data-look="neo"].icon-shape .icon{fill:url(#export-svg-gradient);filter:drop-shadow( 0px 1px 2px rgba(0, 0, 0, 0.25));}#export-svg [data-look="neo"].icon-shape .icon-neo path{stroke:url(#export-svg-gradient);filter:drop-shadow( 0px 1px 2px rgba(0, 0, 0, 0.25));}#export-svg :root{--mermaid-font-family:"trebuchet ms",verdana,arial,sans-serif;}</style><g/><defs><marker orient="auto" markerHeight="240" markerWidth="190" refY="7" refX="0" id="MD_PARENT_START"><path d="M 18,7 L9,13 L1,7 L9,1 Z"/></marker></defs><defs><marker orient="auto" markerHeight="28" markerWidth="20" refY="7" refX="19" id="MD_PARENT_END"><path d="M 18,7 L9,13 L1,7 L9,1 Z"/></marker></defs><defs><marker orient="auto" markerHeight="18" markerWidth="18" refY="9" refX="0" id="ONLY_ONE_START"><path d="M9,0 L9,18 M15,0 L15,18" fill="none" stroke="gray"/></marker></defs><defs><marker orient="auto" markerHeight="18" markerWidth="18" refY="9" refX="18" id="ONLY_ONE_END"><path d="M3,0 L3,18 M9,0 L9,18" fill="none" stroke="gray"/></marker></defs><defs><marker orient="auto" markerHeight="18" markerWidth="30" refY="9" refX="0" id="ZERO_OR_ONE_START"><circle r="6" cy="9" cx="21" fill="white" stroke="gray"/><path d="M9,0 L9,18" fill="none" stroke="gray"/></marker></defs><defs><marker orient="auto" markerHeight="18" markerWidth="30" refY="9" refX="30" id="ZERO_OR_ONE_END"><circle r="6" cy="9" cx="9" fill="white" stroke="gray"/><path d="M21,0 L21,18" fill="none" stroke="gray"/></marker></defs><defs><marker orient="auto" markerHeight="36" markerWidth="45" refY="18" refX="18" id="ONE_OR_MORE_START"><path d="M0,18 Q 18,0 36,18 Q 18,36 0,18 M42,9 L42,27" fill="none" stroke="gray"/></marker></defs><defs><marker orient="auto" markerHeight="36" markerWidth="45" refY="18" refX="27" id="ONE_OR_MORE_END"><path d="M3,9 L3,27 M9,18 Q27,0 45,18 Q27,36 9,18" fill="none" stroke="gray"/></marker></defs><defs><marker orient="auto" markerHeight="36" markerWidth="57" refY="18" refX="18" id="ZERO_OR_MORE_START"><circle r="6" cy="18" cx="48" fill="white" stroke="gray"/><path d="M0,18 Q18,0 36,18 Q18,36 0,18" fill="none" stroke="gray"/></marker></defs><defs><marker orient="auto" markerHeight="36" markerWidth="57" refY="18" refX="39" id="ZERO_OR_MORE_END"><circle r="6" cy="18" cx="9" fill="white" stroke="gray"/><path d="M21,18 Q39,0 57,18 Q39,36 21,18" fill="none" stroke="gray"/></marker></defs><path marker-start="url(#ONLY_ONE_START)" marker-end="url(#ZERO_OR_MORE_END)" style="stroke: gray; fill: none;" d="M87.508,878L85.242,886.333C82.975,894.667,78.443,911.333,76.177,936.75C73.911,962.167,73.911,996.333,73.911,1013.417L73.911,1030.5" class="er relationshipLine"/><path marker-start="url(#ONE_OR_MORE_START)" marker-end="url(#ONLY_ONE_END)" style="stroke: gray; fill: none;" d="M73.911,1180.5L73.911,1197.583C73.911,1214.667,73.911,1248.833,73.911,1274.25C73.911,1299.667,73.911,1316.333,73.911,1324.667L73.911,1333" class="er relationshipLine"/><path marker-start="url(#ONLY_ONE_START)" marker-end="url(#ONE_OR_MORE_END)" style="stroke: gray; fill: none;" d="M148.141,878L153.709,886.333C159.277,894.667,170.412,911.333,184.79,933.357C199.167,955.381,216.787,982.763,225.597,996.454L234.407,1010.144" class="er relationshipLine"/><path marker-start="url(#ZERO_OR_ONE_START)" marker-end="url(#ZERO_OR_MORE_END)" style="stroke: gray; fill: none;" d="M460.944,334.529L437.657,346.608C414.369,358.686,367.794,382.843,344.506,419.255C321.218,455.667,321.218,504.333,321.218,553C321.218,601.667,321.218,650.333,321.218,693.75C321.218,737.167,321.218,775.333,321.218,813.5C321.218,851.667,321.218,889.833,320.024,917.25C318.829,944.667,316.439,961.333,315.245,969.667L314.05,978" class="er relationshipLine"/><path marker-start="url(#ONE_OR_MORE_START)" marker-end="url(#ONLY_ONE_END)" style="stroke: gray; fill: none;" d="M499.192,357L495.713,365.333C492.234,373.667,485.277,390.333,481.798,412.25C478.32,434.167,478.32,461.333,478.32,474.917L478.32,488.5" class="er relationshipLine"/><path marker-start="url(#ONLY_ONE_START)" marker-end="url(#ZERO_OR_MORE_END)" style="stroke: gray; fill: none;" d="M579.183,357L588.049,365.333C596.915,373.667,614.646,390.333,628.527,407C642.408,423.667,652.439,440.333,657.454,448.667L662.469,457" class="er relationshipLine"/><path marker-start="url(#ZERO_OR_MORE_START)" marker-end="url(#ONLY_ONE_END)" style="stroke: gray; fill: none;" d="M574.781,144.541L565.94,153.617C557.099,162.694,539.416,180.847,530.575,198.257C521.734,215.667,521.734,232.333,521.734,240.667L521.734,249" class="er relationshipLine"/><path marker-start="url(#ZERO_OR_ONE_START)" marker-end="url(#ZERO_OR_MORE_END)" style="stroke: gray; fill: none;" d="M691.75,145.023L700.443,154.019C709.136,163.015,726.523,181.008,735.216,207.337C743.909,233.667,743.909,268.333,743.909,303C743.909,337.667,743.909,372.333,742.558,398C741.208,423.667,738.507,440.333,737.156,448.667L735.805,457" class="er relationshipLine"/><path marker-start="url(#ONLY_ONE_START)" marker-end="url(#ZERO_OR_MORE_END)" style="stroke: gray; fill: none;" d="M656.06,622.49L644.282,635.242C632.503,647.993,608.947,673.497,597.168,698.082C585.39,722.667,585.39,746.333,585.39,758.167L585.39,770" class="er relationshipLine"/><path marker-start="url(#ONLY_ONE_START)" marker-end="url(#ZERO_OR_MORE_END)" style="stroke: gray; fill: none;" d="M774.283,649L778.974,657.333C783.665,665.667,793.046,682.333,797.737,700.75C802.428,719.167,802.428,739.333,802.428,749.417L802.428,759.5" class="er relationshipLine"/><path marker-start="url(#ZERO_OR_MORE_START)" marker-end="url(#ONLY_ONE_END)" style="stroke: gray; fill: none;" d="M585.39,857L585.39,868.833C585.39,880.667,585.39,904.333,547.347,939.482C509.304,974.631,433.218,1021.262,395.175,1044.578L357.132,1067.893" class="er relationshipLine"/><g transform="translate(421.2184638977051,488.5 )" id="entity-CONNECTOR-145c89f3-1c45-5eec-96c8-7fa697a33332"><rect height="129" width="114.20249938964844" y="0" x="0" class="er entityBox"/><text transform="translate(57.10124969482422,12)" style="dominant-baseline: middle; text-anchor: middle; font-size: 12px;" y="0" x="0" id="text-entity-CONNECTOR-145c89f3-1c45-5eec-96c8-7fa697a33332" class="er entityLabel">CONNECTOR</text><rect height="21" width="35.26939392089844" y="24" x="0" class="er attributeBoxOdd"/><text transform="translate(5,34.5)" style="dominant-baseline: middle; font-size: 10.2px;" y="0" x="0" id="text-entity-CONNECTOR-145c89f3-1c45-5eec-96c8-7fa697a33332-attr-1-type" class="er entityLabel">string</text><rect height="21" width="78.93310546875" y="24" x="35.26939392089844" class="er attributeBoxOdd"/><text transform="translate(40.26939392089844,34.5)" style="dominant-baseline: middle; font-size: 10.2px;" y="0" x="0" id="text-entity-CONNECTOR-145c89f3-1c45-5eec-96c8-7fa697a33332-attr-1-name" class="er entityLabel">name</text><rect height="21" width="35.26939392089844" y="45" x="0" class="er attributeBoxEven"/><text transform="translate(5,55.5)" style="dominant-baseline: middle; font-size: 10.2px;" y="0" x="0" id="text-entity-CONNECTOR-145c89f3-1c45-5eec-96c8-7fa697a33332-attr-2-type" class="er entityLabel">string</text><rect height="21" width="78.93310546875" y="45" x="35.26939392089844" class="er attributeBoxEven"/><text transform="translate(40.26939392089844,55.5)" style="dominant-baseline: middle; font-size: 10.2px;" y="0" x="0" id="text-entity-CONNECTOR-145c89f3-1c45-5eec-96c8-7fa697a33332-attr-2-name" class="er entityLabel">version</text><rect height="21" width="35.26939392089844" y="66" x="0" class="er attributeBoxOdd"/><text transform="translate(5,76.5)" style="dominant-baseline: middle; font-size: 10.2px;" y="0" x="0" id="text-entity-CONNECTOR-145c89f3-1c45-5eec-96c8-7fa697a33332-attr-3-type" class="er entityLabel">string</text><rect height="21" width="78.93310546875" y="66" x="35.26939392089844" class="er attributeBoxOdd"/><text transform="translate(40.26939392089844,76.5)" style="dominant-baseline: middle; font-size: 10.2px;" y="0" x="0" id="text-entity-CONNECTOR-145c89f3-1c45-5eec-96c8-7fa697a33332-attr-3-name" class="er entityLabel">description</text><rect height="21" width="35.26939392089844" y="87" x="0" class="er attributeBoxEven"/><text transform="translate(5,97.5)" style="dominant-baseline: middle; font-size: 10.2px;" y="0" x="0" id="text-entity-CONNECTOR-145c89f3-1c45-5eec-96c8-7fa697a33332-attr-4-type" class="er entityLabel">json</text><rect height="21" width="78.93310546875" y="87" x="35.26939392089844" class="er attributeBoxEven"/><text transform="translate(40.26939392089844,97.5)" style="dominant-baseline: middle; font-size: 10.2px;" y="0" x="0" id="text-entity-CONNECTOR-145c89f3-1c45-5eec-96c8-7fa697a33332-attr-4-name" class="er entityLabel">config_schema</text><rect height="21" width="35.26939392089844" y="108" x="0" class="er attributeBoxOdd"/><text transform="translate(5,118.5)" style="dominant-baseline: middle; font-size: 10.2px;" y="0" x="0" id="text-entity-CONNECTOR-145c89f3-1c45-5eec-96c8-7fa697a33332-attr-5-type" class="er entityLabel">json</text><rect height="21" width="78.93310546875" y="108" x="35.26939392089844" class="er attributeBoxOdd"/><text transform="translate(40.26939392089844,118.5)" style="dominant-baseline: middle; font-size: 10.2px;" y="0" x="0" id="text-entity-CONNECTOR-145c89f3-1c45-5eec-96c8-7fa697a33332-attr-5-name" class="er entityLabel">query_schema</text></g><g transform="translate(460.94443130493164,249 )" id="entity-CONNECTION-b5526f05-21fa-56a1-98ce-b2cc78839c90"><rect height="108" width="121.57855224609375" y="0" x="0" class="er entityBox"/><text transform="translate(60.789276123046875,12)" style="dominant-baseline: middle; text-anchor: middle; font-size: 12px;" y="0" x="0" id="text-entity-CONNECTION-b5526f05-21fa-56a1-98ce-b2cc78839c90" class="er entityLabel">CONNECTION</text><rect height="21" width="35.26939392089844" y="24" x="0" class="er attributeBoxOdd"/><text transform="translate(5,34.5)" style="dominant-baseline: middle; font-size: 10.2px;" y="0" x="0" id="text-entity-CONNECTION-b5526f05-21fa-56a1-98ce-b2cc78839c90-attr-1-type" class="er entityLabel">int</text><rect height="21" width="86.30915832519531" y="24" x="35.26939392089844" class="er attributeBoxOdd"/><text transform="translate(40.26939392089844,34.5)" style="dominant-baseline: middle; font-size: 10.2px;" y="0" x="0" id="text-entity-CONNECTION-b5526f05-21fa-56a1-98ce-b2cc78839c90-attr-1-name" class="er entityLabel">id</text><rect height="21" width="35.26939392089844" y="45" x="0" class="er attributeBoxEven"/><text transform="translate(5,55.5)" style="dominant-baseline: middle; font-size: 10.2px;" y="0" x="0" id="text-entity-CONNECTION-b5526f05-21fa-56a1-98ce-b2cc78839c90-attr-2-type" class="er entityLabel">string</text><rect height="21" width="86.30915832519531" y="45" x="35.26939392089844" class="er attributeBoxEven"/><text transform="translate(40.26939392089844,55.5)" style="dominant-baseline: middle; font-size: 10.2px;" y="0" x="0" id="text-entity-CONNECTION-b5526f05-21fa-56a1-98ce-b2cc78839c90-attr-2-name" class="er entityLabel">connector_name</text><rect height="21" width="35.26939392089844" y="66" x="0" class="er attributeBoxOdd"/><text transform="translate(5,76.5)" style="dominant-baseline: middle; font-size: 10.2px;" y="0" x="0" id="text-entity-CONNECTION-b5526f05-21fa-56a1-98ce-b2cc78839c90-attr-3-type" class="er entityLabel">string</text><rect height="21" width="86.30915832519531" y="66" x="35.26939392089844" class="er attributeBoxOdd"/><text transform="translate(40.26939392089844,76.5)" style="dominant-baseline: middle; font-size: 10.2px;" y="0" x="0" id="text-entity-CONNECTION-b5526f05-21fa-56a1-98ce-b2cc78839c90-attr-3-name" class="er entityLabel">name</text><rect height="21" width="35.26939392089844" y="87" x="0" class="er attributeBoxEven"/><text transform="translate(5,97.5)" style="dominant-baseline: middle; font-size: 10.2px;" y="0" x="0" id="text-entity-CONNECTION-b5526f05-21fa-56a1-98ce-b2cc78839c90-attr-4-type" class="er entityLabel">json</text><rect height="21" width="86.30915832519531" y="87" x="35.26939392089844" class="er attributeBoxEven"/><text transform="translate(40.26939392089844,97.5)" style="dominant-baseline: middle; font-size: 10.2px;" y="0" x="0" id="text-entity-CONNECTION-b5526f05-21fa-56a1-98ce-b2cc78839c90-attr-4-name" class="er entityLabel">config</text></g><g transform="translate(38.87712478637695,749 )" id="entity-JOB-689ef35c-f61f-5e8b-bf9d-457a270301e5"><rect height="129" width="132.34133911132812" y="0" x="0" class="er entityBox"/><text transform="translate(66.17066955566406,12)" style="dominant-baseline: middle; text-anchor: middle; font-size: 12px;" y="0" x="0" id="text-entity-JOB-689ef35c-f61f-5e8b-bf9d-457a270301e5" class="er entityLabel">JOB</text><rect height="21" width="49.44877624511719" y="24" x="0" class="er attributeBoxOdd"/><text transform="translate(5,34.5)" style="dominant-baseline: middle; font-size: 10.2px;" y="0" x="0" id="text-entity-JOB-689ef35c-f61f-5e8b-bf9d-457a270301e5-attr-1-type" class="er entityLabel">int</text><rect height="21" width="82.89256286621094" y="24" x="49.44877624511719" class="er attributeBoxOdd"/><text transform="translate(54.44877624511719,34.5)" style="dominant-baseline: middle; font-size: 10.2px;" y="0" x="0" id="text-entity-JOB-689ef35c-f61f-5e8b-bf9d-457a270301e5-attr-1-name" class="er entityLabel">id</text><rect height="21" width="49.44877624511719" y="45" x="0" class="er attributeBoxEven"/><text transform="translate(5,55.5)" style="dominant-baseline: middle; font-size: 10.2px;" y="0" x="0" id="text-entity-JOB-689ef35c-f61f-5e8b-bf9d-457a270301e5-attr-2-type" class="er entityLabel">int</text><rect height="21" width="82.89256286621094" y="45" x="49.44877624511719" class="er attributeBoxEven"/><text transform="translate(54.44877624511719,55.5)" style="dominant-baseline: middle; font-size: 10.2px;" y="0" x="0" id="text-entity-JOB-689ef35c-f61f-5e8b-bf9d-457a270301e5-attr-2-name" class="er entityLabel">primary_post_id</text><rect height="21" width="49.44877624511719" y="66" x="0" class="er attributeBoxOdd"/><text transform="translate(5,76.5)" style="dominant-baseline: middle; font-size: 10.2px;" y="0" x="0" id="text-entity-JOB-689ef35c-f61f-5e8b-bf9d-457a270301e5-attr-3-type" class="er entityLabel">text</text><rect height="21" width="82.89256286621094" y="66" x="49.44877624511719" class="er attributeBoxOdd"/><text transform="translate(54.44877624511719,76.5)" style="dominant-baseline: middle; font-size: 10.2px;" y="0" x="0" id="text-entity-JOB-689ef35c-f61f-5e8b-bf9d-457a270301e5-attr-3-name" class="er entityLabel">comments</text><rect height="21" width="49.44877624511719" y="87" x="0" class="er attributeBoxEven"/><text transform="translate(5,97.5)" style="dominant-baseline: middle; font-size: 10.2px;" y="0" x="0" id="text-entity-JOB-689ef35c-f61f-5e8b-bf9d-457a270301e5-attr-4-type" class="er entityLabel">datetime</text><rect height="21" width="82.89256286621094" y="87" x="49.44877624511719" class="er attributeBoxEven"/><text transform="translate(54.44877624511719,97.5)" style="dominant-baseline: middle; font-size: 10.2px;" y="0" x="0" id="text-entity-JOB-689ef35c-f61f-5e8b-bf9d-457a270301e5-attr-4-name" class="er entityLabel">created</text><rect height="21" width="49.44877624511719" y="108" x="0" class="er attributeBoxOdd"/><text transform="translate(5,118.5)" style="dominant-baseline: middle; font-size: 10.2px;" y="0" x="0" id="text-entity-JOB-689ef35c-f61f-5e8b-bf9d-457a270301e5-attr-5-type" class="er entityLabel">datetime</text><rect height="21" width="82.89256286621094" y="108" x="49.44877624511719" class="er attributeBoxOdd"/><text transform="translate(54.44877624511719,118.5)" style="dominant-baseline: middle; font-size: 10.2px;" y="0" x="0" id="text-entity-JOB-689ef35c-f61f-5e8b-bf9d-457a270301e5-attr-5-name" class="er entityLabel">modified</text></g><g transform="translate(234.40747833251953,978 )" id="entity-POST-dedb1204-6961-5504-b717-5f982e5d0300"><rect height="255" width="122.72407531738281" y="0" x="0" class="er entityBox"/><text transform="translate(61.362037658691406,12)" style="dominant-baseline: middle; text-anchor: middle; font-size: 12px;" y="0" x="0" id="text-entity-POST-dedb1204-6961-5504-b717-5f982e5d0300" class="er entityLabel">POST</text><rect height="21" width="49.44877624511719" y="24" x="0" class="er attributeBoxOdd"/><text transform="translate(5,34.5)" style="dominant-baseline: middle; font-size: 10.2px;" y="0" x="0" id="text-entity-POST-dedb1204-6961-5504-b717-5f982e5d0300-attr-1-type" class="er entityLabel">int</text><rect height="21" width="73.27529907226562" y="24" x="49.44877624511719" class="er attributeBoxOdd"/><text transform="translate(54.44877624511719,34.5)" style="dominant-baseline: middle; font-size: 10.2px;" y="0" x="0" id="text-entity-POST-dedb1204-6961-5504-b717-5f982e5d0300-attr-1-name" class="er entityLabel">id</text><rect height="21" width="49.44877624511719" y="45" x="0" class="er attributeBoxEven"/><text transform="translate(5,55.5)" style="dominant-baseline: middle; font-size: 10.2px;" y="0" x="0" id="text-entity-POST-dedb1204-6961-5504-b717-5f982e5d0300-attr-2-type" class="er entityLabel">int</text><rect height="21" width="73.27529907226562" y="45" x="49.44877624511719" class="er attributeBoxEven"/><text transform="translate(54.44877624511719,55.5)" style="dominant-baseline: middle; font-size: 10.2px;" y="0" x="0" id="text-entity-POST-dedb1204-6961-5504-b717-5f982e5d0300-attr-2-name" class="er entityLabel">job_id</text><rect height="21" width="49.44877624511719" y="66" x="0" class="er attributeBoxOdd"/><text transform="translate(5,76.5)" style="dominant-baseline: middle; font-size: 10.2px;" y="0" x="0" id="text-entity-POST-dedb1204-6961-5504-b717-5f982e5d0300-attr-3-type" class="er entityLabel">int</text><rect height="21" width="73.27529907226562" y="66" x="49.44877624511719" class="er attributeBoxOdd"/><text transform="translate(54.44877624511719,76.5)" style="dominant-baseline: middle; font-size: 10.2px;" y="0" x="0" id="text-entity-POST-dedb1204-6961-5504-b717-5f982e5d0300-attr-3-name" class="er entityLabel">connection_id</text><rect height="21" width="49.44877624511719" y="87" x="0" class="er attributeBoxEven"/><text transform="translate(5,97.5)" style="dominant-baseline: middle; font-size: 10.2px;" y="0" x="0" id="text-entity-POST-dedb1204-6961-5504-b717-5f982e5d0300-attr-4-type" class="er entityLabel">string</text><rect height="21" width="73.27529907226562" y="87" x="49.44877624511719" class="er attributeBoxEven"/><text transform="translate(54.44877624511719,97.5)" style="dominant-baseline: middle; font-size: 10.2px;" y="0" x="0" id="text-entity-POST-dedb1204-6961-5504-b717-5f982e5d0300-attr-4-name" class="er entityLabel">unique_id</text><rect height="21" width="49.44877624511719" y="108" x="0" class="er attributeBoxOdd"/><text transform="translate(5,118.5)" style="dominant-baseline: middle; font-size: 10.2px;" y="0" x="0" id="text-entity-POST-dedb1204-6961-5504-b717-5f982e5d0300-attr-5-type" class="er entityLabel">string</text><rect height="21" width="73.27529907226562" y="108" x="49.44877624511719" class="er attributeBoxOdd"/><text transform="translate(54.44877624511719,118.5)" style="dominant-baseline: middle; font-size: 10.2px;" y="0" x="0" id="text-entity-POST-dedb1204-6961-5504-b717-5f982e5d0300-attr-5-name" class="er entityLabel">url</text><rect height="21" width="49.44877624511719" y="129" x="0" class="er attributeBoxEven"/><text transform="translate(5,139.5)" style="dominant-baseline: middle; font-size: 10.2px;" y="0" x="0" id="text-entity-POST-dedb1204-6961-5504-b717-5f982e5d0300-attr-6-type" class="er entityLabel">string</text><rect height="21" width="73.27529907226562" y="129" x="49.44877624511719" class="er attributeBoxEven"/><text transform="translate(54.44877624511719,139.5)" style="dominant-baseline: middle; font-size: 10.2px;" y="0" x="0" id="text-entity-POST-dedb1204-6961-5504-b717-5f982e5d0300-attr-6-name" class="er entityLabel">company</text><rect height="21" width="49.44877624511719" y="150" x="0" class="er attributeBoxOdd"/><text transform="translate(5,160.5)" style="dominant-baseline: middle; font-size: 10.2px;" y="0" x="0" id="text-entity-POST-dedb1204-6961-5504-b717-5f982e5d0300-attr-7-type" class="er entityLabel">string</text><rect height="21" width="73.27529907226562" y="150" x="49.44877624511719" class="er attributeBoxOdd"/><text transform="translate(54.44877624511719,160.5)" style="dominant-baseline: middle; font-size: 10.2px;" y="0" x="0" id="text-entity-POST-dedb1204-6961-5504-b717-5f982e5d0300-attr-7-name" class="er entityLabel">title</text><rect height="21" width="49.44877624511719" y="171" x="0" class="er attributeBoxEven"/><text transform="translate(5,181.5)" style="dominant-baseline: middle; font-size: 10.2px;" y="0" x="0" id="text-entity-POST-dedb1204-6961-5504-b717-5f982e5d0300-attr-8-type" class="er entityLabel">string</text><rect height="21" width="73.27529907226562" y="171" x="49.44877624511719" class="er attributeBoxEven"/><text transform="translate(54.44877624511719,181.5)" style="dominant-baseline: middle; font-size: 10.2px;" y="0" x="0" id="text-entity-POST-dedb1204-6961-5504-b717-5f982e5d0300-attr-8-name" class="er entityLabel">description</text><rect height="21" width="49.44877624511719" y="192" x="0" class="er attributeBoxOdd"/><text transform="translate(5,202.5)" style="dominant-baseline: middle; font-size: 10.2px;" y="0" x="0" id="text-entity-POST-dedb1204-6961-5504-b717-5f982e5d0300-attr-9-type" class="er entityLabel">string</text><rect height="21" width="73.27529907226562" y="192" x="49.44877624511719" class="er attributeBoxOdd"/><text transform="translate(54.44877624511719,202.5)" style="dominant-baseline: middle; font-size: 10.2px;" y="0" x="0" id="text-entity-POST-dedb1204-6961-5504-b717-5f982e5d0300-attr-9-name" class="er entityLabel">location</text><rect height="21" width="49.44877624511719" y="213" x="0" class="er attributeBoxEven"/><text transform="translate(5,223.5)" style="dominant-baseline: middle; font-size: 10.2px;" y="0" x="0" id="text-entity-POST-dedb1204-6961-5504-b717-5f982e5d0300-attr-10-type" class="er entityLabel">datetime</text><rect height="21" width="73.27529907226562" y="213" x="49.44877624511719" class="er attributeBoxEven"/><text transform="translate(54.44877624511719,223.5)" style="dominant-baseline: middle; font-size: 10.2px;" y="0" x="0" id="text-entity-POST-dedb1204-6961-5504-b717-5f982e5d0300-attr-10-name" class="er entityLabel">created</text><rect height="21" width="49.44877624511719" y="234" x="0" class="er attributeBoxOdd"/><text transform="translate(5,244.5)" style="dominant-baseline: middle; font-size: 10.2px;" y="0" x="0" id="text-entity-POST-dedb1204-6961-5504-b717-5f982e5d0300-attr-11-type" class="er entityLabel">datetime</text><rect height="21" width="73.27529907226562" y="234" x="49.44877624511719" class="er attributeBoxOdd"/><text transform="translate(54.44877624511719,244.5)" style="dominant-baseline: middle; font-size: 10.2px;" y="0" x="0" id="text-entity-POST-dedb1204-6961-5504-b717-5f982e5d0300-attr-11-name" class="er entityLabel">modified</text></g><g transform="translate(20,1030.5 )" id="entity-JOBSTAGE-03487128-ed0d-5aac-ada4-3834bff4bc59"><rect height="150" width="107.82147216796875" y="0" x="0" class="er entityBox"/><text transform="translate(53.910736083984375,12)" style="dominant-baseline: middle; text-anchor: middle; font-size: 12px;" y="0" x="0" id="text-entity-JOBSTAGE-03487128-ed0d-5aac-ada4-3834bff4bc59" class="er entityLabel">JOB_STAGE</text><rect height="21" width="49.44877624511719" y="24" x="0" class="er attributeBoxOdd"/><text transform="translate(5,34.5)" style="dominant-baseline: middle; font-size: 10.2px;" y="0" x="0" id="text-entity-JOBSTAGE-03487128-ed0d-5aac-ada4-3834bff4bc59-attr-1-type" class="er entityLabel">int</text><rect height="21" width="58.37269592285156" y="24" x="49.44877624511719" class="er attributeBoxOdd"/><text transform="translate(54.44877624511719,34.5)" style="dominant-baseline: middle; font-size: 10.2px;" y="0" x="0" id="text-entity-JOBSTAGE-03487128-ed0d-5aac-ada4-3834bff4bc59-attr-1-name" class="er entityLabel">id</text><rect height="21" width="49.44877624511719" y="45" x="0" class="er attributeBoxEven"/><text transform="translate(5,55.5)" style="dominant-baseline: middle; font-size: 10.2px;" y="0" x="0" id="text-entity-JOBSTAGE-03487128-ed0d-5aac-ada4-3834bff4bc59-attr-2-type" class="er entityLabel">int</text><rect height="21" width="58.37269592285156" y="45" x="49.44877624511719" class="er attributeBoxEven"/><text transform="translate(54.44877624511719,55.5)" style="dominant-baseline: middle; font-size: 10.2px;" y="0" x="0" id="text-entity-JOBSTAGE-03487128-ed0d-5aac-ada4-3834bff4bc59-attr-2-name" class="er entityLabel">stage_id</text><rect height="21" width="49.44877624511719" y="66" x="0" class="er attributeBoxOdd"/><text transform="translate(5,76.5)" style="dominant-baseline: middle; font-size: 10.2px;" y="0" x="0" id="text-entity-JOBSTAGE-03487128-ed0d-5aac-ada4-3834bff4bc59-attr-3-type" class="er entityLabel">int</text><rect height="21" width="58.37269592285156" y="66" x="49.44877624511719" class="er attributeBoxOdd"/><text transform="translate(54.44877624511719,76.5)" style="dominant-baseline: middle; font-size: 10.2px;" y="0" x="0" id="text-entity-JOBSTAGE-03487128-ed0d-5aac-ada4-3834bff4bc59-attr-3-name" class="er entityLabel">job_id</text><rect height="21" width="49.44877624511719" y="87" x="0" class="er attributeBoxEven"/><text transform="translate(5,97.5)" style="dominant-baseline: middle; font-size: 10.2px;" y="0" x="0" id="text-entity-JOBSTAGE-03487128-ed0d-5aac-ada4-3834bff4bc59-attr-4-type" class="er entityLabel">datetime</text><rect height="21" width="58.37269592285156" y="87" x="49.44877624511719" class="er attributeBoxEven"/><text transform="translate(54.44877624511719,97.5)" style="dominant-baseline: middle; font-size: 10.2px;" y="0" x="0" id="text-entity-JOBSTAGE-03487128-ed0d-5aac-ada4-3834bff4bc59-attr-4-name" class="er entityLabel">timestamp</text><rect height="21" width="49.44877624511719" y="108" x="0" class="er attributeBoxOdd"/><text transform="translate(5,118.5)" style="dominant-baseline: middle; font-size: 10.2px;" y="0" x="0" id="text-entity-JOBSTAGE-03487128-ed0d-5aac-ada4-3834bff4bc59-attr-5-type" class="er entityLabel">text</text><rect height="21" width="58.37269592285156" y="108" x="49.44877624511719" class="er attributeBoxOdd"/><text transform="translate(54.44877624511719,118.5)" style="dominant-baseline: middle; font-size: 10.2px;" y="0" x="0" id="text-entity-JOBSTAGE-03487128-ed0d-5aac-ada4-3834bff4bc59-attr-5-name" class="er entityLabel">comment</text><rect height="21" width="49.44877624511719" y="129" x="0" class="er attributeBoxEven"/><text transform="translate(5,139.5)" style="dominant-baseline: middle; font-size: 10.2px;" y="0" x="0" id="text-entity-JOBSTAGE-03487128-ed0d-5aac-ada4-3834bff4bc59-attr-6-type" class="er entityLabel">string</text><rect height="21" width="58.37269592285156" y="129" x="49.44877624511719" class="er attributeBoxEven"/><text transform="translate(54.44877624511719,139.5)" style="dominant-baseline: middle; font-size: 10.2px;" y="0" x="0" id="text-entity-JOBSTAGE-03487128-ed0d-5aac-ada4-3834bff4bc59-attr-6-name" class="er entityLabel">url</text></g><g transform="translate(23.910736083984375,1333 )" id="entity-STAGE-b3b3ae2f-3286-55e2-8698-6897421b790f"><rect height="108" width="100" y="0" x="0" class="er entityBox"/><text transform="translate(50,12)" style="dominant-baseline: middle; text-anchor: middle; font-size: 12px;" y="0" x="0" id="text-entity-STAGE-b3b3ae2f-3286-55e2-8698-6897421b790f" class="er entityLabel">STAGE</text><rect height="21" width="39.0892333984375" y="24" x="0" class="er attributeBoxOdd"/><text transform="translate(5,34.5)" style="dominant-baseline: middle; font-size: 10.2px;" y="0" x="0" id="text-entity-STAGE-b3b3ae2f-3286-55e2-8698-6897421b790f-attr-1-type" class="er entityLabel">int</text><rect height="21" width="60.9107666015625" y="24" x="39.0892333984375" class="er attributeBoxOdd"/><text transform="translate(44.0892333984375,34.5)" style="dominant-baseline: middle; font-size: 10.2px;" y="0" x="0" id="text-entity-STAGE-b3b3ae2f-3286-55e2-8698-6897421b790f-attr-1-name" class="er entityLabel">id</text><rect height="21" width="39.0892333984375" y="45" x="0" class="er attributeBoxEven"/><text transform="translate(5,55.5)" style="dominant-baseline: middle; font-size: 10.2px;" y="0" x="0" id="text-entity-STAGE-b3b3ae2f-3286-55e2-8698-6897421b790f-attr-2-type" class="er entityLabel">int</text><rect height="21" width="60.9107666015625" y="45" x="39.0892333984375" class="er attributeBoxEven"/><text transform="translate(44.0892333984375,55.5)" style="dominant-baseline: middle; font-size: 10.2px;" y="0" x="0" id="text-entity-STAGE-b3b3ae2f-3286-55e2-8698-6897421b790f-attr-2-name" class="er entityLabel">sort_order</text><rect height="21" width="39.0892333984375" y="66" x="0" class="er attributeBoxOdd"/><text transform="translate(5,76.5)" style="dominant-baseline: middle; font-size: 10.2px;" y="0" x="0" id="text-entity-STAGE-b3b3ae2f-3286-55e2-8698-6897421b790f-attr-3-type" class="er entityLabel">string</text><rect height="21" width="60.9107666015625" y="66" x="39.0892333984375" class="er attributeBoxOdd"/><text transform="translate(44.0892333984375,76.5)" style="dominant-baseline: middle; font-size: 10.2px;" y="0" x="0" id="text-entity-STAGE-b3b3ae2f-3286-55e2-8698-6897421b790f-attr-3-name" class="er entityLabel">name</text><rect height="21" width="39.0892333984375" y="87" x="0" class="er attributeBoxEven"/><text transform="translate(5,97.5)" style="dominant-baseline: middle; font-size: 10.2px;" y="0" x="0" id="text-entity-STAGE-b3b3ae2f-3286-55e2-8698-6897421b790f-attr-4-type" class="er entityLabel">string</text><rect height="21" width="60.9107666015625" y="87" x="39.0892333984375" class="er attributeBoxEven"/><text transform="translate(44.0892333984375,97.5)" style="dominant-baseline: middle; font-size: 10.2px;" y="0" x="0" id="text-entity-STAGE-b3b3ae2f-3286-55e2-8698-6897421b790f-attr-4-name" class="er entityLabel">color</text></g><g transform="translate(656.0600967407227,457 )" id="entity-QUERY-e2d2dc0d-ae0a-5938-a9d1-e6e05bf81a37"><rect height="192" width="128.3719024658203" y="0" x="0" class="er entityBox"/><text transform="translate(64.18595123291016,12)" style="dominant-baseline: middle; text-anchor: middle; font-size: 12px;" y="0" x="0" id="text-entity-QUERY-e2d2dc0d-ae0a-5938-a9d1-e6e05bf81a37" class="er entityLabel">QUERY</text><rect height="21" width="49.44877624511719" y="24" x="0" class="er attributeBoxOdd"/><text transform="translate(5,34.5)" style="dominant-baseline: middle; font-size: 10.2px;" y="0" x="0" id="text-entity-QUERY-e2d2dc0d-ae0a-5938-a9d1-e6e05bf81a37-attr-1-type" class="er entityLabel">int</text><rect height="21" width="78.92312622070312" y="24" x="49.44877624511719" class="er attributeBoxOdd"/><text transform="translate(54.44877624511719,34.5)" style="dominant-baseline: middle; font-size: 10.2px;" y="0" x="0" id="text-entity-QUERY-e2d2dc0d-ae0a-5938-a9d1-e6e05bf81a37-attr-1-name" class="er entityLabel">id</text><rect height="21" width="49.44877624511719" y="45" x="0" class="er attributeBoxEven"/><text transform="translate(5,55.5)" style="dominant-baseline: middle; font-size: 10.2px;" y="0" x="0" id="text-entity-QUERY-e2d2dc0d-ae0a-5938-a9d1-e6e05bf81a37-attr-2-type" class="er entityLabel">int</text><rect height="21" width="78.92312622070312" y="45" x="49.44877624511719" class="er attributeBoxEven"/><text transform="translate(54.44877624511719,55.5)" style="dominant-baseline: middle; font-size: 10.2px;" y="0" x="0" id="text-entity-QUERY-e2d2dc0d-ae0a-5938-a9d1-e6e05bf81a37-attr-2-name" class="er entityLabel">schedule_id</text><rect height="21" width="49.44877624511719" y="66" x="0" class="er attributeBoxOdd"/><text transform="translate(5,76.5)" style="dominant-baseline: middle; font-size: 10.2px;" y="0" x="0" id="text-entity-QUERY-e2d2dc0d-ae0a-5938-a9d1-e6e05bf81a37-attr-3-type" class="er entityLabel">int</text><rect height="21" width="78.92312622070312" y="66" x="49.44877624511719" class="er attributeBoxOdd"/><text transform="translate(54.44877624511719,76.5)" style="dominant-baseline: middle; font-size: 10.2px;" y="0" x="0" id="text-entity-QUERY-e2d2dc0d-ae0a-5938-a9d1-e6e05bf81a37-attr-3-name" class="er entityLabel">connection_id</text><rect height="21" width="49.44877624511719" y="87" x="0" class="er attributeBoxEven"/><text transform="translate(5,97.5)" style="dominant-baseline: middle; font-size: 10.2px;" y="0" x="0" id="text-entity-QUERY-e2d2dc0d-ae0a-5938-a9d1-e6e05bf81a37-attr-4-type" class="er entityLabel">datetime</text><rect height="21" width="78.92312622070312" y="87" x="49.44877624511719" class="er attributeBoxEven"/><text transform="translate(54.44877624511719,97.5)" style="dominant-baseline: middle; font-size: 10.2px;" y="0" x="0" id="text-entity-QUERY-e2d2dc0d-ae0a-5938-a9d1-e6e05bf81a37-attr-4-name" class="er entityLabel">created</text><rect height="21" width="49.44877624511719" y="108" x="0" class="er attributeBoxOdd"/><text transform="translate(5,118.5)" style="dominant-baseline: middle; font-size: 10.2px;" y="0" x="0" id="text-entity-QUERY-e2d2dc0d-ae0a-5938-a9d1-e6e05bf81a37-attr-5-type" class="er entityLabel">datetime</text><rect height="21" width="78.92312622070312" y="108" x="49.44877624511719" class="er attributeBoxOdd"/><text transform="translate(54.44877624511719,118.5)" style="dominant-baseline: middle; font-size: 10.2px;" y="0" x="0" id="text-entity-QUERY-e2d2dc0d-ae0a-5938-a9d1-e6e05bf81a37-attr-5-name" class="er entityLabel">started</text><rect height="21" width="49.44877624511719" y="129" x="0" class="er attributeBoxEven"/><text transform="translate(5,139.5)" style="dominant-baseline: middle; font-size: 10.2px;" y="0" x="0" id="text-entity-QUERY-e2d2dc0d-ae0a-5938-a9d1-e6e05bf81a37-attr-6-type" class="er entityLabel">datetime</text><rect height="21" width="78.92312622070312" y="129" x="49.44877624511719" class="er attributeBoxEven"/><text transform="translate(54.44877624511719,139.5)" style="dominant-baseline: middle; font-size: 10.2px;" y="0" x="0" id="text-entity-QUERY-e2d2dc0d-ae0a-5938-a9d1-e6e05bf81a37-attr-6-name" class="er entityLabel">ended</text><rect height="21" width="49.44877624511719" y="150" x="0" class="er attributeBoxOdd"/><text transform="translate(5,160.5)" style="dominant-baseline: middle; font-size: 10.2px;" y="0" x="0" id="text-entity-QUERY-e2d2dc0d-ae0a-5938-a9d1-e6e05bf81a37-attr-7-type" class="er entityLabel">string</text><rect height="21" width="78.92312622070312" y="150" x="49.44877624511719" class="er attributeBoxOdd"/><text transform="translate(54.44877624511719,160.5)" style="dominant-baseline: middle; font-size: 10.2px;" y="0" x="0" id="text-entity-QUERY-e2d2dc0d-ae0a-5938-a9d1-e6e05bf81a37-attr-7-name" class="er entityLabel">error_message</text><rect height="21" width="49.44877624511719" y="171" x="0" class="er attributeBoxEven"/><text transform="translate(5,181.5)" style="dominant-baseline: middle; font-size: 10.2px;" y="0" x="0" id="text-entity-QUERY-e2d2dc0d-ae0a-5938-a9d1-e6e05bf81a37-attr-8-type" class="er entityLabel">json</text><rect height="21" width="78.92312622070312" y="171" x="49.44877624511719" class="er attributeBoxEven"/><text transform="translate(54.44877624511719,181.5)" style="dominant-baseline: middle; font-size: 10.2px;" y="0" x="0" id="text-entity-QUERY-e2d2dc0d-ae0a-5938-a9d1-e6e05bf81a37-attr-8-name" class="er entityLabel">query</text></g><g transform="translate(522.2632064819336,770 )" id="entity-QUERYRESULT-ec1f6df9-1e6f-5450-999e-a33d53cb7e9c"><rect height="87" width="126.25390625" y="0" x="0" class="er entityBox"/><text transform="translate(63.126953125,12)" style="dominant-baseline: middle; text-anchor: middle; font-size: 12px;" y="0" x="0" id="text-entity-QUERYRESULT-ec1f6df9-1e6f-5450-999e-a33d53cb7e9c" class="er entityLabel">QUERY_RESULT</text><rect height="21" width="48.8695068359375" y="24" x="0" class="er attributeBoxOdd"/><text transform="translate(5,34.5)" style="dominant-baseline: middle; font-size: 10.2px;" y="0" x="0" id="text-entity-QUERYRESULT-ec1f6df9-1e6f-5450-999e-a33d53cb7e9c-attr-1-type" class="er entityLabel">int</text><rect height="21" width="77.3843994140625" y="24" x="48.8695068359375" class="er attributeBoxOdd"/><text transform="translate(53.8695068359375,34.5)" style="dominant-baseline: middle; font-size: 10.2px;" y="0" x="0" id="text-entity-QUERYRESULT-ec1f6df9-1e6f-5450-999e-a33d53cb7e9c-attr-1-name" class="er entityLabel">id</text><rect height="21" width="48.8695068359375" y="45" x="0" class="er attributeBoxEven"/><text transform="translate(5,55.5)" style="dominant-baseline: middle; font-size: 10.2px;" y="0" x="0" id="text-entity-QUERYRESULT-ec1f6df9-1e6f-5450-999e-a33d53cb7e9c-attr-2-type" class="er entityLabel">int</text><rect height="21" width="77.3843994140625" y="45" x="48.8695068359375" class="er attributeBoxEven"/><text transform="translate(53.8695068359375,55.5)" style="dominant-baseline: middle; font-size: 10.2px;" y="0" x="0" id="text-entity-QUERYRESULT-ec1f6df9-1e6f-5450-999e-a33d53cb7e9c-attr-2-name" class="er entityLabel">query_id</text><rect height="21" width="48.8695068359375" y="66" x="0" class="er attributeBoxOdd"/><text transform="translate(5,76.5)" style="dominant-baseline: middle; font-size: 10.2px;" y="0" x="0" id="text-entity-QUERYRESULT-ec1f6df9-1e6f-5450-999e-a33d53cb7e9c-attr-3-type" class="er entityLabel">int</text><rect height="21" width="77.3843994140625" y="66" x="48.8695068359375" class="er attributeBoxOdd"/><text transform="translate(53.8695068359375,76.5)" style="dominant-baseline: middle; font-size: 10.2px;" y="0" x="0" id="text-entity-QUERYRESULT-ec1f6df9-1e6f-5450-999e-a33d53cb7e9c-attr-3-name" class="er entityLabel">post_id</text></g><g transform="translate(748.5171127319336,759.5 )" id="entity-QUERYLOG-69362357-6d2f-5ba9-bc71-5d168188a58d"><rect height="108" width="107.82147216796875" y="0" x="0" class="er entityBox"/><text transform="translate(53.910736083984375,12)" style="dominant-baseline: middle; text-anchor: middle; font-size: 12px;" y="0" x="0" id="text-entity-QUERYLOG-69362357-6d2f-5ba9-bc71-5d168188a58d" class="er entityLabel">QUERY_LOG</text><rect height="21" width="49.44877624511719" y="24" x="0" class="er attributeBoxOdd"/><text transform="translate(5,34.5)" style="dominant-baseline: middle; font-size: 10.2px;" y="0" x="0" id="text-entity-QUERYLOG-69362357-6d2f-5ba9-bc71-5d168188a58d-attr-1-type" class="er entityLabel">int</text><rect height="21" width="58.37269592285156" y="24" x="49.44877624511719" class="er attributeBoxOdd"/><text transform="translate(54.44877624511719,34.5)" style="dominant-baseline: middle; font-size: 10.2px;" y="0" x="0" id="text-entity-QUERYLOG-69362357-6d2f-5ba9-bc71-5d168188a58d-attr-1-name" class="er entityLabel">id</text><rect height="21" width="49.44877624511719" y="45" x="0" class="er attributeBoxEven"/><text transform="translate(5,55.5)" style="dominant-baseline: middle; font-size: 10.2px;" y="0" x="0" id="text-entity-QUERYLOG-69362357-6d2f-5ba9-bc71-5d168188a58d-attr-2-type" class="er entityLabel">int</text><rect height="21" width="58.37269592285156" y="45" x="49.44877624511719" class="er attributeBoxEven"/><text transform="translate(54.44877624511719,55.5)" style="dominant-baseline: middle; font-size: 10.2px;" y="0" x="0" id="text-entity-QUERYLOG-69362357-6d2f-5ba9-bc71-5d168188a58d-attr-2-name" class="er entityLabel">query_id</text><rect height="21" width="49.44877624511719" y="66" x="0" class="er attributeBoxOdd"/><text transform="translate(5,76.5)" style="dominant-baseline: middle; font-size: 10.2px;" y="0" x="0" id="text-entity-QUERYLOG-69362357-6d2f-5ba9-bc71-5d168188a58d-attr-3-type" class="er entityLabel">datetime</text><rect height="21" width="58.37269592285156" y="66" x="49.44877624511719" class="er attributeBoxOdd"/><text transform="translate(54.44877624511719,76.5)" style="dominant-baseline: middle; font-size: 10.2px;" y="0" x="0" id="text-entity-QUERYLOG-69362357-6d2f-5ba9-bc71-5d168188a58d-attr-3-name" class="er entityLabel">timestamp</text><rect height="21" width="49.44877624511719" y="87" x="0" class="er attributeBoxEven"/><text transform="translate(5,97.5)" style="dominant-baseline: middle; font-size: 10.2px;" y="0" x="0" id="text-entity-QUERYLOG-69362357-6d2f-5ba9-bc71-5d168188a58d-attr-4-type" class="er entityLabel">text</text><rect height="21" width="58.37269592285156" y="87" x="49.44877624511719" class="er attributeBoxEven"/><text transform="translate(54.44877624511719,97.5)" style="dominant-baseline: middle; font-size: 10.2px;" y="0" x="0" id="text-entity-QUERYLOG-69362357-6d2f-5ba9-bc71-5d168188a58d-attr-4-name" class="er entityLabel">message</text></g><g transform="translate(574.7810287475586,20 )" id="entity-SCHEDULE-d5aa4656-01eb-57f0-9eed-befe12843b9b"><rect height="129" width="116.96875" y="0" x="0" class="er entityBox"/><text transform="translate(58.484375,12)" style="dominant-baseline: middle; text-anchor: middle; font-size: 12px;" y="0" x="0" id="text-entity-SCHEDULE-d5aa4656-01eb-57f0-9eed-befe12843b9b" class="er entityLabel">SCHEDULE</text><rect height="21" width="42.890625" y="24" x="0" class="er attributeBoxOdd"/><text transform="translate(5,34.5)" style="dominant-baseline: middle; font-size: 10.2px;" y="0" x="0" id="text-entity-SCHEDULE-d5aa4656-01eb-57f0-9eed-befe12843b9b-attr-1-type" class="er entityLabel">int</text><rect height="21" width="74.078125" y="24" x="42.890625" class="er attributeBoxOdd"/><text transform="translate(47.890625,34.5)" style="dominant-baseline: middle; font-size: 10.2px;" y="0" x="0" id="text-entity-SCHEDULE-d5aa4656-01eb-57f0-9eed-befe12843b9b-attr-1-name" class="er entityLabel">id</text><rect height="21" width="42.890625" y="45" x="0" class="er attributeBoxEven"/><text transform="translate(5,55.5)" style="dominant-baseline: middle; font-size: 10.2px;" y="0" x="0" id="text-entity-SCHEDULE-d5aa4656-01eb-57f0-9eed-befe12843b9b-attr-2-type" class="er entityLabel">int</text><rect height="21" width="74.078125" y="45" x="42.890625" class="er attributeBoxEven"/><text transform="translate(47.890625,55.5)" style="dominant-baseline: middle; font-size: 10.2px;" y="0" x="0" id="text-entity-SCHEDULE-d5aa4656-01eb-57f0-9eed-befe12843b9b-attr-2-name" class="er entityLabel">connection_id</text><rect height="21" width="42.890625" y="66" x="0" class="er attributeBoxOdd"/><text transform="translate(5,76.5)" style="dominant-baseline: middle; font-size: 10.2px;" y="0" x="0" id="text-entity-SCHEDULE-d5aa4656-01eb-57f0-9eed-befe12843b9b-attr-3-type" class="er entityLabel">bool</text><rect height="21" width="74.078125" y="66" x="42.890625" class="er attributeBoxOdd"/><text transform="translate(47.890625,76.5)" style="dominant-baseline: middle; font-size: 10.2px;" y="0" x="0" id="text-entity-SCHEDULE-d5aa4656-01eb-57f0-9eed-befe12843b9b-attr-3-name" class="er entityLabel">enabled</text><rect height="21" width="42.890625" y="87" x="0" class="er attributeBoxEven"/><text transform="translate(5,97.5)" style="dominant-baseline: middle; font-size: 10.2px;" y="0" x="0" id="text-entity-SCHEDULE-d5aa4656-01eb-57f0-9eed-befe12843b9b-attr-4-type" class="er entityLabel">interval</text><rect height="21" width="74.078125" y="87" x="42.890625" class="er attributeBoxEven"/><text transform="translate(47.890625,97.5)" style="dominant-baseline: middle; font-size: 10.2px;" y="0" x="0" id="text-entity-SCHEDULE-d5aa4656-01eb-57f0-9eed-befe12843b9b-attr-4-name" class="er entityLabel">query_interval</text><rect height="21" width="42.890625" y="108" x="0" class="er attributeBoxOdd"/><text transform="translate(5,118.5)" style="dominant-baseline: middle; font-size: 10.2px;" y="0" x="0" id="text-entity-SCHEDULE-d5aa4656-01eb-57f0-9eed-befe12843b9b-attr-5-type" class="er entityLabel">json</text><rect height="21" width="74.078125" y="108" x="42.890625" class="er attributeBoxOdd"/><text transform="translate(47.890625,118.5)" style="dominant-baseline: middle; font-size: 10.2px;" y="0" x="0" id="text-entity-SCHEDULE-d5aa4656-01eb-57f0-9eed-befe12843b9b-attr-5-name" class="er entityLabel">query</text></g><rect height="14" width="52.03125" y="946.6461181640625" x="49.01557922363281" class="er relationshipLabelBox"/><text style="text-anchor: middle; dominant-baseline: middle; font-size: 12px;" y="953.6461181640625" x="75.03120422363281" id="rel463" class="er relationshipLabel">has many</text><rect height="14" width="19.359375" y="1249.75" x="64.23131561279297" class="er relationshipLabelBox"/><text style="text-anchor: middle; dominant-baseline: middle; font-size: 12px;" y="1256.75" x="73.91100311279297" id="rel464" class="er relationshipLabel">has</text><rect height="14" width="52.03125" y="936.8463745117188" x="165.6034393310547" class="er relationshipLabelBox"/><text style="text-anchor: middle; dominant-baseline: middle; font-size: 12px;" y="943.8463745117188" x="191.6190643310547" id="rel465" class="er relationshipLabel">has many</text><rect height="14" width="52.03125" y="616.9945678710938" x="295.2023620605469" class="er relationshipLabelBox"/><text style="text-anchor: middle; dominant-baseline: middle; font-size: 12px;" y="623.9945678710938" x="321.2179870605469" id="rel466" class="er relationshipLabel">has many</text><rect height="14" width="25.359375" y="414.3251953125" x="467.89666748046875" class="er relationshipLabelBox"/><text style="text-anchor: middle; dominant-baseline: middle; font-size: 12px;" y="421.3251953125" x="480.57635498046875" id="rel467" class="er relationshipLabel">uses</text><rect height="14" width="23.34375" y="396.2686767578125" x="613.68505859375" class="er relationshipLabelBox"/><text style="text-anchor: middle; dominant-baseline: middle; font-size: 12px;" y="403.2686767578125" x="625.35693359375" id="rel468" class="er relationshipLabel">runs</text><rect height="14" width="25.359375" y="183.5703582763672" x="522.3062133789062" class="er relationshipLabelBox"/><text style="text-anchor: middle; dominant-baseline: middle; font-size: 12px;" y="190.5703582763672" x="534.9859008789062" id="rel469" class="er relationshipLabel">uses</text><rect height="14" width="39.359375" y="286.6247863769531" x="724.2227172851562" class="er relationshipLabelBox"/><text style="text-anchor: middle; dominant-baseline: middle; font-size: 12px;" y="293.6247863769531" x="743.9024047851562" id="rel470" class="er relationshipLabel">creates</text><rect height="14" width="39.359375" y="681.14794921875" x="582.82177734375" class="er relationshipLabelBox"/><text style="text-anchor: middle; dominant-baseline: middle; font-size: 12px;" y="688.14794921875" x="602.50146484375" id="rel471" class="er relationshipLabel">creates</text><rect height="14" width="52.03125" y="694.77001953125" x="771.9755249023438" class="er relationshipLabelBox"/><text style="text-anchor: middle; dominant-baseline: middle; font-size: 12px;" y="701.77001953125" x="797.9911499023438" id="rel472" class="er relationshipLabel">has many</text><rect height="14" width="19.359375" y="973.9407348632812" x="484.3978271484375" class="er relationshipLabelBox"/><text style="text-anchor: middle; dominant-baseline: middle; font-size: 12px;" y="980.9407348632812" x="494.0775146484375" id="rel473" class="er relationshipLabel">has</text></svg>